<svg width="44" height="39" viewBox="0 0 44 39" fill="none" xmlns="http://www.w3.org/2000/svg">
<path d="M36.1422 37C38.9392 34.1327 40.844 30.4794 41.6157 26.5023C42.3874 22.5252 41.9913 18.4029 40.4776 14.6565C38.9638 10.9102 36.4004 7.70813 33.1114 5.45529C29.8224 3.20245 25.9556 2 22 2C18.0444 2 14.1776 3.20245 10.8886 5.45529C7.59965 7.70813 5.0362 10.9102 3.52244 14.6565C2.00868 18.4029 1.6126 22.5252 2.38429 26.5023C3.15597 30.4794 5.06076 34.1327 7.85778 37" stroke="#C1C7D0" stroke-width="3" stroke-linecap="round" stroke-linejoin="round"/>
<path d="M29.8576 30.5572C31.4112 28.9641 32.4691 26.9345 32.8976 24.7251C33.3261 22.5157 33.1059 20.2256 32.2648 18.1445C31.4238 16.0634 29.9996 14.2846 28.1725 13.0332C26.3453 11.7817 24.1972 11.1138 21.9998 11.1138C19.8023 11.1138 17.6542 11.7817 15.8271 13.0332C13.9999 14.2846 12.5758 16.0634 11.7347 18.1445C10.8937 20.2256 10.6735 22.5157 11.102 24.7251C11.5304 26.9345 12.5884 28.9641 14.142 30.5572" stroke="#C1C7D0" stroke-width="3" stroke-linecap="round" stroke-linejoin="round"/>
<path d="M19.7778 22.5027C19.7778 23.1069 20.012 23.6863 20.4287 24.1135C20.8455 24.5407 21.4107 24.7807 22.0001 24.7807C22.5894 24.7807 23.1547 24.5407 23.5714 24.1135C23.9881 23.6863 24.2223 23.1069 24.2223 22.5027C24.2223 21.8985 23.9881 21.3191 23.5714 20.8918C23.1547 20.4646 22.5894 20.2246 22.0001 20.2246C21.4107 20.2246 20.8455 20.4646 20.4287 20.8918C20.012 21.3191 19.7778 21.8985 19.7778 22.5027Z" stroke="#C1C7D0" stroke-width="3" stroke-linecap="round" stroke-linejoin="round"/>
</svg>
