<svg width="31" height="25" viewBox="0 0 31 25" fill="none" xmlns="http://www.w3.org/2000/svg">
<path d="M22.792 1.95268C24.9915 2.98316 26.8213 4.46189 28.1001 6.24248C29.3788 8.02307 30.0623 10.0438 30.0828 12.1046C30.1033 14.1654 29.4602 16.1948 28.217 17.9919C26.9739 19.789 25.1738 21.2915 22.9951 22.3507C20.8163 23.4099 18.3344 23.989 15.7951 24.0307C13.2557 24.0724 10.747 23.5752 8.51718 22.5885C6.28739 21.6017 4.41389 20.1595 3.08213 18.4047C1.75037 16.6498 1.00655 14.6432 0.924284 12.5834L0.916992 12.2L0.924284 11.8166C1.00596 9.77307 1.73883 7.78155 3.05147 6.03622C4.3641 4.2909 6.2117 2.85133 8.41413 1.85787C10.6166 0.864415 13.0987 0.350964 15.6185 0.367578C18.1383 0.384193 20.6097 0.930306 22.792 1.95268ZM13.3289 8.81579C13.0233 8.66821 12.6618 8.61629 12.3124 8.66981C11.963 8.72333 11.6497 8.87859 11.4315 9.10639C11.2133 9.33419 11.1051 9.61884 11.1275 9.9068C11.1498 10.1948 11.301 10.4662 11.5526 10.67L13.4368 12.2L11.5526 13.73L11.4316 13.8413C11.2049 14.0791 11.0984 14.378 11.1335 14.6773C11.1686 14.9766 11.3428 15.2538 11.6208 15.4526C11.8987 15.6514 12.2594 15.757 12.6298 15.7478C13.0001 15.7386 13.3523 15.6154 13.6147 15.4032L15.5003 13.8744L17.386 15.4032L17.523 15.5014C17.8161 15.6853 18.1845 15.7718 18.5534 15.7433C18.9222 15.7148 19.2639 15.5734 19.5089 15.3479C19.754 15.1224 19.884 14.8297 19.8727 14.5292C19.8614 14.2287 19.7096 13.943 19.448 13.73L17.5639 12.2L19.448 10.67L19.5691 10.5588C19.7957 10.321 19.9023 10.022 19.8672 9.72276C19.832 9.42348 19.6578 9.14627 19.3799 8.94743C19.102 8.7486 18.7412 8.64305 18.3709 8.65223C18.0005 8.6614 17.6484 8.78462 17.386 8.99684L15.5003 10.5257L13.6147 8.99684L13.4776 8.89862L13.3289 8.81579Z" fill="#EB3223"/>
</svg>
