<svg width="19" height="20" viewBox="0 0 19 20" fill="none" xmlns="http://www.w3.org/2000/svg">
<path d="M13.5792 12.4497H12.721L12.4168 12.1564C13.4814 10.918 14.1224 9.31018 14.1224 7.56118C14.1224 3.66123 10.9611 0.5 7.06118 0.5C3.16123 0.5 0 3.66123 0 7.56118C0 11.4611 3.16123 14.6224 7.06118 14.6224C8.81018 14.6224 10.418 13.9814 11.6564 12.9168L11.9497 13.221V14.0792L17.3814 19.5L19 17.8814L13.5792 12.4497ZM7.06118 12.4497C4.3562 12.4497 2.17267 10.2662 2.17267 7.56118C2.17267 4.8562 4.3562 2.67267 7.06118 2.67267C9.76615 2.67267 11.9497 4.8562 11.9497 7.56118C11.9497 10.2662 9.76615 12.4497 7.06118 12.4497Z" fill="#5E6C84"/>
</svg>
