<svg width="31" height="30" viewBox="0 0 31 30" fill="none" xmlns="http://www.w3.org/2000/svg">
<path d="M0.726562 2.14286C0.726562 1.57454 0.952327 1.02949 1.35419 0.627628C1.75605 0.225765 2.3011 0 2.86942 0H28.5837C29.152 0 29.6971 0.225765 30.0989 0.627628C30.5008 1.02949 30.7266 1.57454 30.7266 2.14286V6.42857C30.7266 6.99689 30.5008 7.54194 30.0989 7.9438C29.6971 8.34566 29.152 8.57143 28.5837 8.57143H2.86942C2.3011 8.57143 1.75605 8.34566 1.35419 7.9438C0.952327 7.54194 0.726563 6.99689 0.726562 6.42857V2.14286ZM0.726562 15C0.726562 14.4317 0.952327 13.8866 1.35419 13.4848C1.75605 13.0829 2.3011 12.8571 2.86942 12.8571H15.7266C16.2949 12.8571 16.8399 13.0829 17.2418 13.4848C17.6437 13.8866 17.8694 14.4317 17.8694 15V27.8571C17.8694 28.4255 17.6437 28.9705 17.2418 29.3724C16.8399 29.7742 16.2949 30 15.7266 30H2.86942C2.3011 30 1.75605 29.7742 1.35419 29.3724C0.952327 28.9705 0.726563 28.4255 0.726562 27.8571V15ZM24.298 12.8571C23.7297 12.8571 23.1846 13.0829 22.7828 13.4848C22.3809 13.8866 22.1551 14.4317 22.1551 15V27.8571C22.1551 28.4255 22.3809 28.9705 22.7828 29.3724C23.1846 29.7742 23.7297 30 24.298 30H28.5837C29.152 30 29.6971 29.7742 30.0989 29.3724C30.5008 28.9705 30.7266 28.4255 30.7266 27.8571V15C30.7266 14.4317 30.5008 13.8866 30.0989 13.4848C29.6971 13.0829 29.152 12.8571 28.5837 12.8571H24.298Z" fill="#C1C7D0"/>
</svg>
