<svg width="30" height="30" viewBox="0 0 30 30" fill="none" xmlns="http://www.w3.org/2000/svg">
<path d="M14.999 26.4887C8.63982 26.4882 3.5 21.3315 3.5 14.9624C3.5 9.45011 7.355 4.8722 12.5 3.7241V1.14809C5.95515 2.32602 1 8.05599 1 14.9624C1 22.7145 7.26094 29 14.985 29C19.2191 29 23.0101 27.1137 25.5783 24.1277L23.3874 22.8352C22.4177 23.8805 21.2597 24.7369 19.9715 25.3577C18.4202 26.1053 16.7204 26.492 14.999 26.4887ZM14.999 26.4887C14.9987 26.4887 14.9984 26.4887 14.998 26.4887L15 25.4887V26.4887C14.9997 26.4887 14.9993 26.4887 14.999 26.4887ZM26.5 14.9624C26.5 9.45011 22.645 4.8722 17.5 3.7241V1.14859C24.0326 2.32878 29 8.07119 29 14.9624C29 16.5985 28.7102 18.1718 28.188 19.6314L25.9891 18.3342C26.3117 17.2745 26.5 16.1471 26.5 14.9624ZM27.075 23.8496L26.2092 23.3388L26.4523 24.6433C26.6684 24.386 26.8761 24.1213 27.075 23.8496Z" fill="white" stroke="#C1C7D0" stroke-width="2"/>
</svg>
