<svg width="28" height="17" viewBox="0 0 28 17" fill="none" xmlns="http://www.w3.org/2000/svg">
<path fill-rule="evenodd" clip-rule="evenodd" d="M15.3673 1.12102C14.9766 0.730451 14.4468 0.511044 13.8944 0.511044C13.3419 0.511044 12.8121 0.730451 12.4214 1.12102L0.636018 12.9064C0.437038 13.0986 0.278325 13.3285 0.169139 13.5827C0.0599539 13.8368 0.00248244 14.1102 7.86591e-05 14.3868C-0.00232512 14.6635 0.0503873 14.9378 0.155139 15.1938C0.259891 15.4499 0.414585 15.6825 0.610195 15.8781C0.805805 16.0737 1.03841 16.2284 1.29445 16.3331C1.55048 16.4379 1.82481 16.4906 2.10144 16.4882C2.37806 16.4858 2.65143 16.4283 2.90561 16.3191C3.15978 16.21 3.38967 16.0512 3.58185 15.8523L13.8944 5.53976L24.2069 15.8523C24.5998 16.2318 25.126 16.4417 25.6723 16.437C26.2185 16.4323 26.741 16.2132 27.1273 15.8269C27.5136 15.4406 27.7327 14.9181 27.7374 14.3719C27.7422 13.8256 27.5322 13.2994 27.1527 12.9064L15.3673 1.12102Z" fill="#5E6C84"/>
</svg>
