<svg width="32" height="30" viewBox="0 0 32 30" fill="none" xmlns="http://www.w3.org/2000/svg">
<path d="M3.38581 30V27.2727H28.3121V30H3.38581ZM3.38581 2.72727V0H28.3121V2.72727H3.38581ZM15.849 16.3636C17.1472 16.3636 18.2507 15.9659 19.1595 15.1705C20.0683 14.375 20.5227 13.4091 20.5227 12.2727C20.5227 11.1364 20.0683 10.1705 19.1595 9.375C18.2507 8.57955 17.1472 8.18182 15.849 8.18182C14.5507 8.18182 13.4472 8.57955 12.5384 9.375C11.6297 10.1705 11.1753 11.1364 11.1753 12.2727C11.1753 13.4091 11.6297 14.375 12.5384 15.1705C13.4472 15.9659 14.5507 16.3636 15.849 16.3636ZM3.38581 25.9091C2.52897 25.9091 1.79572 25.6423 1.18606 25.1086C0.575367 24.5741 0.27002 23.9318 0.27002 23.1818V6.81818C0.27002 6.06818 0.575367 5.42636 1.18606 4.89273C1.79572 4.35818 2.52897 4.09091 3.38581 4.09091H28.3121C29.169 4.09091 29.9027 4.35818 30.5134 4.89273C31.1231 5.42636 31.4279 6.06818 31.4279 6.81818V23.1818C31.4279 23.9318 31.1231 24.5741 30.5134 25.1086C29.9027 25.6423 29.169 25.9091 28.3121 25.9091H3.38581ZM6.11212 23.1818C7.28055 21.9091 8.69563 20.9091 10.3574 20.1818C12.0191 19.4545 13.8497 19.0909 15.849 19.0909C17.8483 19.0909 19.6788 19.4545 21.3405 20.1818C23.0023 20.9091 24.4174 21.9091 25.5858 23.1818H28.3121V6.81818H3.38581V23.1818H6.11212ZM10.7079 23.1818H20.99C20.237 22.7273 19.4259 22.3864 18.5566 22.1591C17.6862 21.9318 16.7837 21.8182 15.849 21.8182C14.9142 21.8182 14.0122 21.9318 13.1429 22.1591C12.2726 22.3864 11.4609 22.7273 10.7079 23.1818ZM15.849 13.6364C15.4076 13.6364 15.0378 13.5055 14.7397 13.2436C14.4406 12.9827 14.2911 12.6591 14.2911 12.2727C14.2911 11.8864 14.4406 11.5623 14.7397 11.3005C15.0378 11.0395 15.4076 10.9091 15.849 10.9091C16.2904 10.9091 16.6606 11.0395 16.9597 11.3005C17.2578 11.5623 17.4069 11.8864 17.4069 12.2727C17.4069 12.6591 17.2578 12.9827 16.9597 13.2436C16.6606 13.5055 16.2904 13.6364 15.849 13.6364Z" fill="#C1C7D0"/>
</svg>
