<svg width="200" height="160" viewBox="0 0 200 160" fill="none" xmlns="http://www.w3.org/2000/svg">
<path d="M180 0H20C9 0 0.0999999 9 0.0999999 20L0 140C0 151 9 160 20 160H180C191 160 200 151 200 140V20C200 9 191 0 180 0ZM176 42.5L105.3 86.7C102.1 88.7 97.9 88.7 94.7 86.7L24 42.5C22.9973 41.9371 22.1192 41.1766 21.4189 40.2645C20.7186 39.3525 20.2106 38.3078 19.9258 37.1937C19.6409 36.0796 19.585 34.9194 19.7616 33.7831C19.9381 32.6468 20.3434 31.5581 20.9528 30.583C21.5623 29.6079 22.3632 28.7666 23.3073 28.11C24.2513 27.4533 25.3187 26.9951 26.445 26.763C27.5712 26.5309 28.7328 26.5297 29.8595 26.7595C30.9863 26.9893 32.0546 27.4453 33 28.1L100 70L167 28.1C167.945 27.4453 169.014 26.9893 170.14 26.7595C171.267 26.5297 172.429 26.5309 173.555 26.763C174.681 26.9951 175.749 27.4533 176.693 28.11C177.637 28.7666 178.438 29.6079 179.047 30.583C179.657 31.5581 180.062 32.6468 180.238 33.7831C180.415 34.9194 180.359 36.0796 180.074 37.1937C179.789 38.3078 179.281 39.3525 178.581 40.2645C177.881 41.1766 177.003 41.9371 176 42.5Z" fill="#E55246"/>
</svg>
