<svg width="62" height="61" viewBox="0 0 62 61" fill="none" xmlns="http://www.w3.org/2000/svg">
<path d="M9.3 60.2953C6.71667 60.2953 4.52083 59.4275 2.7125 57.6918C0.904167 55.9562 0 53.8486 0 51.3691V9.71334C0 7.23383 0.904167 5.12625 2.7125 3.39059C4.52083 1.65494 6.71667 0.787109 9.3 0.787109H52.7C55.2833 0.787109 57.4792 1.65494 59.2875 3.39059C61.0958 5.12625 62 7.23383 62 9.71334V51.3691C62 53.8486 61.0958 55.9562 59.2875 57.6918C57.4792 59.4275 55.2833 60.2953 52.7 60.2953H9.3ZM9.3 54.3445H52.7C53.5783 54.3445 54.3141 54.0588 54.9072 53.4876C55.5024 52.9183 55.8 52.2121 55.8 51.3691V9.71334C55.8 8.87031 55.5024 8.16315 54.9072 7.59187C54.3141 7.02258 53.5783 6.73793 52.7 6.73793H9.3C8.42167 6.73793 7.6849 7.02258 7.0897 7.59187C6.49657 8.16315 6.2 8.87031 6.2 9.71334V51.3691C6.2 52.2121 6.49657 52.9183 7.0897 53.4876C7.6849 54.0588 8.42167 54.3445 9.3 54.3445ZM12.4 48.3937L24.8 36.492L30.38 41.7734L37.2 33.5166L49.6 48.3937H12.4ZM18.6 24.5904C16.895 24.5904 15.4359 24.0072 14.2228 22.8408C13.0076 21.6765 12.4 20.276 12.4 18.6396C12.4 17.0031 13.0076 15.6027 14.2228 14.4383C15.4359 13.2719 16.895 12.6887 18.6 12.6887C20.305 12.6887 21.7651 13.2719 22.9803 14.4383C24.1934 15.6027 24.8 17.0031 24.8 18.6396C24.8 20.276 24.1934 21.6765 22.9803 22.8408C21.7651 24.0072 20.305 24.5904 18.6 24.5904Z" fill="#434343"/>
</svg>
