<svg width="25" height="25" viewBox="0 0 25 25" fill="none" xmlns="http://www.w3.org/2000/svg">
<path d="M21.4804 14.0925C21.5297 13.7085 21.5667 13.3245 21.5667 12.9165C21.5667 12.5085 21.5297 12.1245 21.4804 11.7405L24.0834 9.7605C24.3178 9.5805 24.3795 9.2565 24.2314 8.9925L21.7641 4.8405C21.6531 4.6485 21.4434 4.5405 21.2213 4.5405C21.1473 4.5405 21.0733 4.5525 21.0116 4.5765L17.9398 5.7765C17.2983 5.2965 16.6074 4.9005 15.8549 4.6005L15.3861 1.4205C15.3491 1.1325 15.09 0.916504 14.7816 0.916504H9.84692C9.5385 0.916504 9.27944 1.1325 9.24242 1.4205L8.77363 4.6005C8.0211 4.9005 7.33025 5.3085 6.68874 5.7765L3.61692 4.5765C3.5429 4.5525 3.46888 4.5405 3.39486 4.5405C3.18514 4.5405 2.97541 4.6485 2.86438 4.8405L0.397055 8.9925C0.236679 9.2565 0.310699 9.5805 0.545095 9.7605L3.14813 11.7405C3.09878 12.1245 3.06177 12.5205 3.06177 12.9165C3.06177 13.3125 3.09878 13.7085 3.14813 14.0925L0.545095 16.0725C0.310699 16.2525 0.249016 16.5765 0.397055 16.8405L2.86438 20.9925C2.97541 21.1845 3.18514 21.2925 3.4072 21.2925C3.48122 21.2925 3.55523 21.2805 3.61692 21.2565L6.68874 20.0565C7.33025 20.5365 8.0211 20.9325 8.77363 21.2325L9.24242 24.4125C9.27944 24.7005 9.5385 24.9165 9.84692 24.9165H14.7816C15.09 24.9165 15.3491 24.7005 15.3861 24.4125L15.8549 21.2325C16.6074 20.9325 17.2983 20.5245 17.9398 20.0565L21.0116 21.2565C21.0856 21.2805 21.1596 21.2925 21.2336 21.2925C21.4434 21.2925 21.6531 21.1845 21.7641 20.9925L24.2314 16.8405C24.3795 16.5765 24.3178 16.2525 24.0834 16.0725L21.4804 14.0925ZM19.0377 12.0405C19.0871 12.4125 19.0994 12.6645 19.0994 12.9165C19.0994 13.1685 19.0747 13.4325 19.0377 13.7925L18.865 15.1485L19.963 15.9885L21.2953 16.9965L20.4318 18.4485L18.865 17.8365L17.582 17.3325L16.4717 18.1485C15.9412 18.5325 15.4354 18.8205 14.9296 19.0245L13.6219 19.5405L13.4245 20.8965L13.1778 22.5165H11.4507L11.2163 20.8965L11.0189 19.5405L9.71122 19.0245C9.18074 18.8085 8.68728 18.5325 8.19381 18.1725L7.07118 17.3325L5.76349 17.8485L4.19674 18.4605L3.33318 17.0085L4.66553 16.0005L5.76349 15.1605L5.59078 13.8045C5.55377 13.4325 5.5291 13.1565 5.5291 12.9165C5.5291 12.6765 5.55377 12.4005 5.59078 12.0405L5.76349 10.6845L4.66553 9.8445L3.33318 8.8365L4.19674 7.3845L5.76349 7.9965L7.0465 8.5005L8.1568 7.6845C8.68728 7.3005 9.19308 7.0125 9.69888 6.8085L11.0066 6.2925L11.204 4.9365L11.4507 3.3165H13.1655L13.3999 4.9365L13.5973 6.2925L14.9049 6.8085C15.4354 7.0245 15.9289 7.3005 16.4223 7.6605L17.545 8.5005L18.8527 7.9845L20.4194 7.3725L21.283 8.8245L19.963 9.8445L18.865 10.6845L19.0377 12.0405ZM12.3142 8.1165C9.58785 8.1165 7.37959 10.2645 7.37959 12.9165C7.37959 15.5685 9.58785 17.7165 12.3142 17.7165C15.0406 17.7165 17.2489 15.5685 17.2489 12.9165C17.2489 10.2645 15.0406 8.1165 12.3142 8.1165ZM12.3142 15.3165C10.9572 15.3165 9.84692 14.2365 9.84692 12.9165C9.84692 11.5965 10.9572 10.5165 12.3142 10.5165C13.6713 10.5165 14.7816 11.5965 14.7816 12.9165C14.7816 14.2365 13.6713 15.3165 12.3142 15.3165Z" fill="#C1C7D0"/>
</svg>
