<svg width="62" height="63" viewBox="0 0 62 63" fill="none" xmlns="http://www.w3.org/2000/svg">
<path d="M34.1855 24.7275L24.7068 17.6513V45.4616L34.1855 38.3854L43.3534 31.5564L34.1855 24.7275ZM34.1855 24.7275L24.7068 17.6513V45.4616L34.1855 38.3854L43.3534 31.5564L34.1855 24.7275ZM34.1855 24.7275L24.7068 17.6513V45.4616L34.1855 38.3854L43.3534 31.5564L34.1855 24.7275ZM27.8145 7.05243V0.810547C21.5679 1.42855 15.8807 3.90059 11.2812 7.63954L15.6942 12.0583C19.1439 9.40086 23.2772 7.60864 27.8145 7.05243ZM11.3123 16.4152L6.86817 12.0274C3.10777 16.6007 0.621554 22.2554 0 28.4664H6.27769C6.83709 23.9549 8.6396 19.8452 11.3123 16.4152ZM6.27769 34.6465H0C0.621554 40.8575 3.10777 46.5122 6.86817 51.0855L11.3123 46.6667C8.6396 43.2677 6.83709 39.1579 6.27769 34.6465ZM11.2812 55.4734C15.8807 59.2123 21.599 61.6843 27.8145 62.3023V56.0605C23.2772 55.5043 19.1439 53.712 15.6942 51.0546L11.2812 55.4734ZM62 31.5564C62 47.501 49.8175 60.6646 34.1855 62.3023V56.0605C46.3679 54.4536 55.7845 44.0711 55.7845 31.5564C55.7845 19.0418 46.3679 8.65925 34.1855 7.05243V0.810547C49.8175 2.44827 62 15.6118 62 31.5564Z" fill="#434343"/>
</svg>
