<svg width="90" height="65" viewBox="0 0 90 65" fill="none" xmlns="http://www.w3.org/2000/svg">
<path d="M61.1273 13.5502L61.0869 13.5981L61.2039 15.7357L61.819 16.984L65.0111 16.5827L68.5316 17.6788L70.6532 19.8165L71.8025 22.6696L71.849 24.5637L71.6244 25.651L71.2941 26.5111L70.7846 27.5875L70.6386 27.9757L70.6925 28.0736L72.6598 28.9434L74.5101 29.4871L75.3477 29.6382L75.502 29.5012C75.8142 28.8987 76.0771 28.2694 76.2879 27.6202C76.5519 26.7318 76.9754 24.7398 76.5923 22.6924C76.2092 20.645 75.62 18.7161 74.8207 17.6907C74.0214 16.6654 72.6598 15.3128 72.6598 15.3128L69.6198 13.411L66.6978 12.6499L63.6848 12.7402L61.8076 13.1751L61.1273 13.5502Z" fill="white"/>
<path d="M75.406 29.5841C75.6526 29.0924 75.8674 28.5838 76.049 28.0618C76.6283 26.4151 76.8121 24.6438 76.5843 22.9046C76.049 18.9533 74.0341 16.0741 70.728 14.18C68.7607 13.0524 66.6267 12.6436 64.3964 12.8012C63.3467 12.8778 62.3123 13.108 61.3233 13.4852C61.2632 13.508 61.2011 13.5276 61.1276 13.5526C61.0667 13.2973 61.0368 13.035 61.0385 12.7719C60.9143 10.6842 61.1193 8.64005 61.8151 6.66873C62.1012 5.85279 62.467 5.0701 62.9064 4.33316C63.0393 4.10226 63.2016 3.89153 63.3889 3.70686C63.4913 3.60504 63.6097 3.52264 63.7389 3.4633C63.8492 3.41019 63.9728 3.39568 64.0916 3.42191C64.2103 3.44814 64.3179 3.51373 64.3985 3.609C64.5533 3.77933 64.6722 3.98199 64.7474 4.20377C64.9163 4.66631 65.033 5.14801 65.0953 5.63904C65.2103 6.47358 65.2795 7.31438 65.3024 8.15728C65.3111 8.67067 65.3754 9.18136 65.4939 9.67953C65.5413 9.89172 65.624 10.0934 65.7383 10.2754C65.935 10.5668 66.1732 10.6255 66.4703 10.4548C66.6694 10.33 66.8449 10.1678 66.988 9.97637C67.3114 9.55777 67.5921 9.10479 67.8257 8.62482C68.2627 7.77454 68.5992 6.87641 68.9647 5.99351C69.4824 4.75287 70.0001 3.50897 70.6017 2.31183C70.8429 1.81555 71.1253 1.34255 71.4455 0.898307C71.6276 0.638691 71.8503 0.413329 72.104 0.231777C72.2558 0.125027 72.4272 0.0529312 72.6072 0.020153C72.7872 -0.0126252 72.9717 -0.00535496 73.1488 0.0414959C73.2622 0.0675558 73.3689 0.119166 73.4615 0.192755C73.5541 0.266344 73.6304 0.360163 73.6851 0.467731C73.8198 0.737972 73.9018 1.03368 73.9264 1.33759C74.0123 2.04 73.9657 2.7435 73.9046 3.44482C73.7618 5.09973 73.4781 6.73179 73.2047 8.36604C73.1047 8.91292 73.0634 9.46984 73.0815 10.0264C73.0845 10.2092 73.1196 10.3898 73.185 10.5592C73.2886 10.8071 73.4573 10.8854 73.71 10.8136C73.892 10.754 74.0622 10.6601 74.2122 10.5363C74.5971 10.2339 74.9529 9.89269 75.2745 9.51752C76.3441 8.32146 77.3909 7.09714 78.5091 5.94566C79.2721 5.14191 80.0854 4.39253 80.9434 3.70252C81.3427 3.3772 81.7721 3.09489 82.2252 2.85984C82.4915 2.71923 82.7786 2.62731 83.0743 2.58801C83.3194 2.55304 83.5678 2.62048 83.7661 2.77582C83.9644 2.93117 84.0967 3.16201 84.1346 3.41872C84.1828 3.7725 84.1538 4.13317 84.0497 4.47342C83.9021 5.00789 83.6993 5.52382 83.445 6.01199C82.862 7.195 82.1559 8.29537 81.4528 9.40553C80.8606 10.3374 80.2497 11.254 79.7237 12.2326C79.4307 12.7476 79.1852 13.2908 78.9906 13.8548C78.9069 14.0818 78.862 14.3226 78.8581 14.566C78.8653 14.9117 79.0206 15.0759 79.3458 15.0857C79.5693 15.0809 79.7902 15.0341 79.9981 14.9476C80.4021 14.792 80.7931 14.6014 81.1671 14.3779C82.6001 13.5624 84.0383 12.7577 85.5365 12.0782C86.2741 11.7246 87.0425 11.4467 87.831 11.2485C88.2452 11.155 88.6593 11.0865 89.087 11.1615C89.2509 11.1868 89.4087 11.2447 89.5519 11.3323C89.7249 11.4385 89.8595 11.6021 89.9344 11.7973C90.0094 11.9925 90.0205 12.2083 89.966 12.4109C89.8905 12.7142 89.7643 13.001 89.5933 13.2579C89.2119 13.8382 88.769 14.3711 88.2731 14.8465C87.1518 15.9719 85.9258 16.9657 84.6844 17.9377C83.5361 18.837 82.3785 19.722 81.2323 20.6234C80.6026 21.1048 80.0105 21.6382 79.4617 22.2185C79.2567 22.4339 79.0744 22.672 78.9181 22.9286C78.8517 23.0387 78.7969 23.1561 78.7545 23.2787C78.6127 23.6951 78.709 24.0268 79.0507 24.2855C79.2717 24.4418 79.517 24.5566 79.7755 24.6248C80.5022 24.8333 81.2489 24.9555 82.0016 24.989C82.6301 25.0293 83.2586 25.0532 83.8861 25.0978C84.3994 25.1268 84.9045 25.2463 85.3802 25.4511C85.8479 25.6591 86.2526 25.9975 86.5502 26.4297C86.8826 26.9082 86.8608 27.3877 86.4767 27.8259C86.2423 28.0854 85.9638 28.2967 85.6556 28.4489C84.5705 29.0088 83.4157 29.4056 82.2252 29.6276C80.6926 29.9233 79.1299 30.0092 77.5762 29.8831C76.8991 29.8309 76.2302 29.7406 75.5572 29.621C75.5147 29.6199 75.4764 29.6047 75.406 29.5841Z" fill="#EE3126"/>
<path d="M70.6367 27.9768C71.1983 28.2874 71.7828 28.5503 72.3845 28.7629C73.285 29.1055 74.2102 29.372 75.1511 29.5599C75.2153 29.573 75.2785 29.5936 75.3582 29.6154C75.2545 29.8503 75.1319 30.0755 74.9917 30.2884C73.2718 33.0524 70.8696 34.7856 67.811 35.5228C66.6484 35.8092 65.4488 35.8918 64.2606 35.7675C60.5828 35.3717 57.6629 33.608 55.6024 30.358C54.7019 28.9445 54.1432 27.3218 53.9747 25.6304C53.601 22.0422 54.6498 18.9553 57.0292 16.3653C58.1236 15.1873 59.4449 14.2683 60.9048 13.6698L61.087 13.5991C61.2257 14.7515 61.4684 15.8874 61.8118 16.9916V16.985C61.0227 17.2951 60.2952 17.7564 59.6664 18.3453C57.7934 20.11 56.9743 22.3075 57.3492 24.929C57.6184 26.8036 58.5285 28.3247 59.9512 29.4816C61.6575 30.8691 63.599 31.3866 65.733 31.067C67.5388 30.8128 69.1887 29.8582 70.3582 28.3911C70.4617 28.2617 70.5922 28.1442 70.6408 27.9703L70.6367 27.9768Z" fill="#6E6F72"/>
<path d="M70.6367 27.9768V27.9714C70.4524 27.8746 70.265 27.7833 70.0838 27.68C67.8628 26.4198 66.0508 24.6703 64.5484 22.5565C63.352 20.8693 62.4285 18.9865 61.8149 16.984V16.9905C62.748 16.6002 63.7475 16.4151 64.7514 16.4468C67.6692 16.5838 69.9285 17.9158 71.2517 20.6874C72.4135 23.1317 72.166 25.5488 70.7465 27.8333C70.7129 27.8836 70.6762 27.9316 70.6367 27.9768Z" fill="#EE3126"/>
<path d="M38.9324 27.8986C40.2225 26.4981 42.6816 26.5938 43.7792 28.2661C43.8506 28.2552 43.8765 28.1824 43.9169 28.1346C44.2271 27.7593 44.6097 27.4577 45.0394 27.2496C45.4691 27.0415 45.936 26.9318 46.4091 26.9276C46.8397 26.9065 47.2705 26.9635 47.6827 27.0962C48.7336 27.4495 49.3652 28.215 49.6406 29.323C49.7228 29.6689 49.7625 30.0245 49.7587 30.381C49.7587 31.867 49.7587 33.353 49.7587 34.839C49.768 34.9781 49.7512 35.1178 49.709 35.25C49.6344 35.4453 49.4967 35.6069 49.3201 35.7063C49.1435 35.8057 48.9391 35.8366 48.743 35.7937C48.5492 35.7601 48.3734 35.6548 48.2473 35.4968C48.1211 35.3389 48.0531 35.1387 48.0554 34.9325C48.0554 33.5755 48.0554 32.2196 48.0554 30.8637C48.0616 30.5422 48.0296 30.2212 47.9602 29.908C47.7282 28.9424 47.0376 28.4945 46.1016 28.5706C45.0103 28.6532 44.4698 29.5285 44.3735 30.4005C44.3526 30.5991 44.3426 30.7988 44.3435 30.9986C44.3435 32.2591 44.3435 33.5197 44.3435 34.7803C44.352 34.9191 44.3401 35.0584 44.3082 35.1935C44.1861 35.6077 43.7999 35.8459 43.3515 35.798C43.1614 35.7723 42.9858 35.6774 42.8555 35.5298C42.7251 35.3822 42.6482 35.1912 42.6381 34.9901C42.6319 34.8944 42.6381 34.7988 42.6381 34.7031C42.6381 33.3555 42.6381 32.008 42.6381 30.6604C42.6461 30.2598 42.5668 29.8626 42.4062 29.4991C42.1577 28.9631 41.7425 28.676 41.1885 28.5891C39.9864 28.3999 39.1291 29.2589 38.9603 30.3614C38.9302 30.5672 38.916 30.7752 38.9179 30.9833C38.9179 32.2881 38.9179 33.5929 38.9179 34.8977C38.9179 35.3326 38.7108 35.6588 38.3391 35.7676C37.7375 35.947 37.2291 35.5381 37.2001 34.9629C37.2001 34.9021 37.2001 34.8412 37.2001 34.7803V28.0519C37.1891 27.8953 37.2055 27.7379 37.2488 27.5876C37.3115 27.4161 37.4234 27.2693 37.569 27.1675C37.7146 27.0656 37.8867 27.0137 38.0616 27.019C38.2366 27.0159 38.4081 27.0706 38.5518 27.1754C38.6956 27.2801 38.8045 27.4297 38.863 27.6029C38.892 27.6964 38.9054 27.7877 38.9324 27.8986Z" fill="#070909"/>
<path d="M26.6327 48.8219C26.4422 49.0133 26.3014 49.1742 26.1419 49.3112C24.9087 50.3735 23.5389 50.4964 22.1193 49.8461C20.6998 49.1959 19.9646 48.0075 19.7772 46.4211C19.6592 45.424 19.7772 44.4639 20.2297 43.5636C20.8644 42.3154 21.8656 41.5825 23.1951 41.377C24.4739 41.1791 25.5766 41.5673 26.495 42.5372C26.5261 42.5698 26.5447 42.6307 26.6327 42.6133V38.9534C26.626 38.8407 26.6365 38.7276 26.6638 38.6184C26.7181 38.4437 26.827 38.2933 26.9728 38.1915C27.1186 38.0897 27.2928 38.0424 27.4673 38.0574C27.6471 38.0656 27.8185 38.1402 27.9511 38.2681C28.0837 38.396 28.169 38.569 28.1921 38.7565C28.204 38.8601 28.2091 38.9643 28.2076 39.0686C28.2076 42.4234 28.2076 45.7781 28.2076 49.1329C28.2088 49.2368 28.2033 49.3407 28.191 49.4438C28.1655 49.644 28.0687 49.8265 27.9203 49.9548C27.7718 50.0831 27.5826 50.1476 27.3906 50.1354C27.194 50.1314 27.0062 50.0485 26.8658 49.9037C26.7255 49.759 26.6432 49.5633 26.6358 49.3568C26.6286 49.1948 26.6327 49.0328 26.6327 48.8219ZM23.9914 48.7425C24.2035 48.7487 24.4153 48.7197 24.6188 48.6566C26.057 48.2402 26.9464 46.7592 26.611 45.0782C26.4939 44.4825 26.1983 43.9418 25.7673 43.5354C25.3363 43.1289 24.7926 42.8782 24.216 42.8199C23.1506 42.7198 22.1048 43.2374 21.6275 44.3421C21.3285 45.0374 21.2585 45.8175 21.4287 46.5592C21.5486 47.1794 21.8704 47.7365 22.3387 48.1349C22.8071 48.5333 23.3928 48.7481 23.9955 48.7425H23.9914Z" fill="#070909"/>
<path d="M9.50772 32.1372C9.75519 33.5953 10.8859 34.4662 12.3158 34.3118C12.9546 34.2438 13.556 33.9634 14.0325 33.5115C14.2396 33.3256 14.4581 33.2049 14.7324 33.2571C14.8776 33.2752 15.0147 33.3372 15.1268 33.4357C15.239 33.5342 15.3214 33.6648 15.364 33.8117C15.4676 34.1378 15.3537 34.4075 15.1249 34.6304C14.5129 35.2284 13.812 35.6557 12.9826 35.8178C12.0704 35.995 11.1675 35.97 10.3009 35.5862C8.91339 34.9718 8.07989 33.8671 7.80757 32.3242C7.56943 30.9716 7.80136 29.7016 8.61002 28.6012C9.55018 27.3236 10.8113 26.793 12.3375 26.9702C14.0128 27.1605 15.2802 28.4446 15.6509 30.292C15.7192 30.6133 15.7539 30.9414 15.7544 31.2706C15.7578 31.4953 15.677 31.7123 15.5294 31.875C15.3818 32.0377 15.1793 32.1331 14.9654 32.1404C14.8991 32.1404 14.8329 32.1404 14.7666 32.1404H9.50979L9.50772 32.1372ZM13.99 30.6791C13.9361 30.2256 13.7772 29.7929 13.5272 29.4189C13.0095 28.6577 12.2847 28.3783 11.4222 28.5218C10.4241 28.6893 9.65165 29.5885 9.51705 30.6791H13.99Z" fill="#070909"/>
<path d="M23.1777 32.1304C22.7386 32.5718 22.3172 33.0002 21.8906 33.4243C21.8632 33.4562 21.8428 33.4941 21.8312 33.5353C21.8195 33.5765 21.8169 33.62 21.8233 33.6624C21.8233 34.0887 21.8233 34.5149 21.8233 34.9411C21.8268 35.1427 21.7622 35.3391 21.6409 35.4953C21.5195 35.6516 21.3494 35.7577 21.1607 35.7947C20.9564 35.8412 20.7429 35.8089 20.5594 35.7037C20.3759 35.5984 20.2346 35.4273 20.1615 35.2216C20.1246 35.0883 20.1106 34.9491 20.1201 34.8106V27.6963C20.1201 26.6622 20.1294 25.6304 20.1201 24.5931C20.1202 24.4739 20.1429 24.3559 20.1868 24.246C20.2308 24.1361 20.2951 24.0364 20.376 23.9529C20.4569 23.8693 20.5529 23.8035 20.6582 23.7592C20.7636 23.7149 20.8763 23.6931 20.9898 23.6949C21.2116 23.6949 21.4244 23.7873 21.5814 23.9518C21.7384 24.1163 21.8269 24.3395 21.8275 24.5724C21.8275 25.3542 21.8275 26.1371 21.8275 26.9188V31.2681C21.9238 31.2681 21.9538 31.1953 21.9973 31.1507C23.2108 29.8923 24.4226 28.6325 25.6326 27.3712C25.8491 27.1461 26.0841 26.9939 26.4009 27.0265C26.5381 27.035 26.6704 27.0824 26.784 27.1636C26.8976 27.2448 26.9881 27.3567 27.046 27.4875C27.1143 27.6183 27.1446 27.7672 27.133 27.9159C27.1214 28.0645 27.0685 28.2063 26.9808 28.3237C26.8992 28.4328 26.8087 28.5343 26.7105 28.627C25.9995 29.3425 25.2875 30.0569 24.5745 30.7701C24.3995 30.9452 24.3995 30.9452 24.5589 31.1507L26.93 34.1952C27.0172 34.2986 27.0981 34.4075 27.1723 34.5214C27.2478 34.6445 27.2909 34.7862 27.2974 34.9324C27.3039 35.0786 27.2735 35.224 27.2093 35.3539C27.1451 35.4838 27.0494 35.5936 26.9318 35.6721C26.8142 35.7507 26.6789 35.7952 26.5397 35.8012C26.3868 35.8149 26.2331 35.7869 26.0936 35.7199C25.9541 35.6528 25.8334 35.549 25.7434 35.4185C24.9317 34.3648 24.1126 33.3167 23.2957 32.2652C23.2605 32.2326 23.2284 32.1935 23.1777 32.1304Z" fill="#070909"/>
<path d="M27.4048 31.4205C27.4028 30.3771 27.7494 29.366 28.3841 28.5634C29.0189 27.7607 29.9016 27.2173 30.8786 27.0277C32.3676 26.7319 33.7146 27.0614 34.8464 28.1389C35.859 29.1023 36.2845 30.332 36.1924 31.7641C36.063 33.843 34.5295 35.561 32.5104 35.8546C30.801 36.1036 29.3535 35.5751 28.2652 34.1355C27.6657 33.3505 27.412 32.4241 27.4048 31.4205ZM29.1443 31.3998C29.1557 31.5662 29.1598 31.7314 29.1816 31.8945C29.2023 32.0315 29.2324 32.1666 29.2717 32.299C29.8556 34.3562 32.3603 34.9912 33.7519 33.4233C34.4363 32.6513 34.601 31.7162 34.3846 30.705C34.2963 30.295 34.1212 29.9112 33.8721 29.5821C33.6231 29.2531 33.3065 28.9873 32.9461 28.8045C32.5856 28.6217 32.1906 28.5267 31.7903 28.5265C31.39 28.5263 30.9949 28.6209 30.6343 28.8033C29.6196 29.3274 29.1805 30.2429 29.1443 31.3998Z" fill="#070909"/>
<path d="M49.3134 46.4476C49.3757 47.0024 49.6037 47.5222 49.9647 47.9324C50.3258 48.3427 50.8014 48.6222 51.3231 48.731C51.7749 48.8272 52.2414 48.8155 52.6882 48.6968C53.1351 48.578 53.5507 48.3552 53.9045 48.0449C53.9883 47.9742 54.067 47.8959 54.1561 47.8274C54.3052 47.7224 54.4863 47.6798 54.6639 47.7082C54.8414 47.7366 55.0023 47.8338 55.1149 47.9807C55.3385 48.2754 55.3064 48.6581 55.0248 48.9408C54.2176 49.7725 53.1312 50.2373 52.0003 50.2347C50.8448 50.2521 49.8156 49.8977 48.9676 49.0517C48.1962 48.283 47.7924 47.3262 47.7012 46.2247C47.6155 45.3292 47.7757 44.4267 48.163 43.6238C48.5197 42.8768 49.0813 42.2592 49.7754 41.8507C50.4696 41.4421 51.2644 41.2614 52.0573 41.3318C53.6673 41.4709 54.914 42.5278 55.4027 44.1816C55.5438 44.6455 55.6137 45.13 55.6098 45.6169C55.6196 45.8148 55.5555 46.0088 55.4311 46.1578C55.3068 46.3069 55.1321 46.3991 54.944 46.415C54.8617 46.423 54.7791 46.4255 54.6965 46.4226H49.5816C49.4915 46.4119 49.4003 46.4204 49.3134 46.4476ZM49.3134 45.12H54.0318C53.9904 44.933 53.9583 44.7633 53.9148 44.597C53.8635 44.405 53.7941 44.2189 53.7077 44.0414C53.1351 42.8453 51.9858 42.5767 51.0778 42.8322C50.032 43.1258 49.4014 44.2001 49.3103 45.12H49.3134Z" fill="#070909"/>
<path d="M72.542 49.2079C72.4685 49.1938 72.4468 49.2394 72.4188 49.2655C71.636 49.9853 70.7083 50.2561 69.6884 50.2224C69.0481 50.2116 68.4218 50.0241 67.8723 49.6787C67.2511 49.284 66.8255 48.7338 66.7095 47.976C66.5387 46.8593 66.8617 45.885 67.8412 45.2435C68.3771 44.9096 68.9799 44.7119 69.6014 44.6661C70.526 44.5747 71.4586 44.6434 72.3619 44.8695C72.4168 44.8825 72.4737 44.8891 72.5306 44.8988C72.6104 43.9333 72.074 43.1591 71.167 42.9417C70.3532 42.7481 69.5559 42.8547 68.7731 43.1254C68.5929 43.1874 68.42 43.2755 68.2368 43.3287C68.0646 43.3836 67.8788 43.3659 67.7189 43.2793C67.5589 43.1927 67.4374 43.044 67.3802 42.8649C67.3229 42.6857 67.3344 42.4902 67.4121 42.3198C67.4899 42.1494 67.6279 42.0175 67.7967 41.9522C68.2661 41.7351 68.7592 41.5799 69.2649 41.4901C69.9997 41.3509 70.7518 41.3465 71.488 41.477C71.8633 41.5443 72.2262 41.6727 72.5638 41.8576C73.3497 42.3023 73.8063 43.0015 73.9885 43.9126C74.0517 44.2452 74.0818 44.5837 74.0786 44.9228C74.0786 46.3479 74.0786 47.7737 74.0786 49.2003C74.083 49.3304 74.0691 49.4605 74.0372 49.5863C73.9841 49.747 73.8844 49.8862 73.752 49.9842C73.6196 50.0822 73.4612 50.1341 73.2993 50.1325C73.1373 50.1309 72.9799 50.076 72.8492 49.9755C72.7185 49.875 72.6212 49.7339 72.571 49.5721C72.5531 49.4516 72.5434 49.3299 72.542 49.2079ZM72.5617 46.7364C72.5617 46.6048 72.5545 46.4907 72.5617 46.3787C72.5731 46.246 72.5182 46.2025 72.4002 46.1721C71.6455 45.9715 70.8667 45.8891 70.0891 45.9275C69.6662 45.9424 69.2525 46.0608 68.8808 46.2732C68.6885 46.3898 68.5291 46.5579 68.4188 46.7603C68.3085 46.9627 68.2512 47.1922 68.2529 47.4254C68.2546 47.6586 68.3151 47.8872 68.4283 48.0878C68.5415 48.2884 68.7034 48.4539 68.8974 48.5675C69.0187 48.6416 69.1476 48.7014 69.2815 48.7458C69.6769 48.8759 70.0944 48.9148 70.5054 48.8598C70.9164 48.8048 71.3113 48.6572 71.663 48.4272C72.2708 48.0456 72.6011 47.4856 72.5617 46.7364Z" fill="#070909"/>
<path d="M33.7572 41.3208C35.4087 41.3871 36.7403 42.0743 37.5686 43.6183C37.8821 44.1991 38.0657 44.8472 38.1055 45.5135C38.1453 46.1799 38.0403 46.847 37.7984 47.4644C37.5565 48.0818 37.184 48.6333 36.7092 49.0773C36.2344 49.5213 35.6697 49.846 35.0577 50.027C33.3161 50.5707 31.7392 50.1759 30.4677 48.7722C29.5855 47.7936 29.2707 46.5976 29.4053 45.2656C29.6124 43.2508 31.1573 41.6144 33.1608 41.3665C33.3586 41.3425 33.5553 41.3284 33.7572 41.3208ZM36.4876 45.7788C36.4996 45.4243 36.444 45.0709 36.324 44.7393C35.9202 43.627 35.1581 42.954 34.0316 42.8159C32.9962 42.6876 32.1233 43.0725 31.5021 43.9739C31.0506 44.6263 30.9129 45.3733 31.0009 46.1735C31.0459 46.6089 31.184 47.028 31.4049 47.3995C31.6257 47.7711 31.9236 48.0854 32.2763 48.3192C32.6289 48.5529 33.0273 48.7 33.4417 48.7494C33.8561 48.7989 34.2758 48.7494 34.6694 48.6048C35.7908 48.2025 36.5114 47.0727 36.4876 45.7799V45.7788Z" fill="#070909"/>
<path d="M5.63537 30.5236C5.63537 31.94 5.63537 33.3568 5.63537 34.774C5.64444 34.9207 5.62866 35.068 5.58877 35.2089C5.51624 35.4145 5.37643 35.5864 5.19434 35.6938C5.01224 35.8011 4.79973 35.837 4.59477 35.795C4.39771 35.7608 4.21837 35.6549 4.08814 35.4959C3.95791 35.3369 3.88508 35.1348 3.88241 34.9251C3.88241 34.1944 3.88241 33.4648 3.88241 32.7342C3.88241 30.5595 3.88241 28.387 3.88241 26.2167C3.88241 26.1559 3.88241 26.095 3.88241 26.0341C3.88241 25.9547 3.84824 25.9253 3.77887 25.9253C3.70949 25.9253 3.66289 25.9253 3.60491 25.9253C2.79418 25.9253 1.98345 25.9253 1.17168 25.9253C1.03937 25.9291 0.907234 25.913 0.779263 25.8775C0.606874 25.8264 0.45604 25.7155 0.351319 25.5629C0.246598 25.4102 0.19415 25.2249 0.202528 25.037C0.213431 24.8538 0.280571 24.6792 0.393876 24.5395C0.507181 24.3997 0.66056 24.3023 0.831034 24.2617C0.928596 24.2419 1.0278 24.2325 1.12716 24.2335H8.40201C8.60993 24.2193 8.81625 24.2799 8.98702 24.4053C9.11141 24.4935 9.20816 24.6185 9.26509 24.7644C9.32202 24.9102 9.33658 25.0705 9.30696 25.2251C9.28277 25.3802 9.21601 25.5246 9.11486 25.6405C9.0137 25.7564 8.88256 25.8387 8.73748 25.8775C8.60941 25.9143 8.47668 25.9301 8.34402 25.9243H5.85902C5.60534 25.9243 5.6364 25.9112 5.6364 26.1656C5.63502 27.6212 5.63468 29.0739 5.63537 30.5236Z" fill="#070909"/>
<path d="M12.877 42.4341C12.9327 42.4157 12.9804 42.3772 13.0116 42.3253C13.5684 41.7301 14.3178 41.3762 15.1114 41.3337C15.6003 41.288 16.093 41.3446 16.561 41.5C17.6937 41.8915 18.3491 42.7276 18.5904 43.94C18.6467 44.2561 18.6727 44.5774 18.6681 44.899C18.6681 46.3162 18.6681 47.733 18.6681 49.1494C18.6696 49.2534 18.6634 49.3574 18.6494 49.4603C18.62 49.6554 18.523 49.8322 18.3769 49.9566C18.2309 50.0811 18.0462 50.1444 17.8584 50.1345C17.6662 50.1306 17.4821 50.0522 17.3418 49.9142C17.2014 49.7763 17.1147 49.5886 17.0984 49.3875C17.0984 49.3092 17.0984 49.2309 17.0984 49.1526C17.0984 47.8145 17.0984 46.476 17.0984 45.1371C17.102 44.8502 17.07 44.564 17.0031 44.2858C16.8074 43.5246 16.3539 43.0343 15.6032 42.8777C15.2047 42.7885 14.7917 42.8016 14.399 42.9157C13.9816 43.0379 13.6107 43.2936 13.3379 43.6473C13.0652 44.001 12.9041 44.435 12.877 44.8892C12.8687 45.0197 12.8676 45.1502 12.8676 45.2807C12.8676 46.5666 12.8676 47.8529 12.8676 49.1396C12.8718 49.261 12.8624 49.3825 12.8397 49.5017C12.8006 49.6903 12.6983 49.8578 12.5513 49.9738C12.4044 50.0898 12.2227 50.1464 12.0393 50.1334C11.8468 50.1266 11.6635 50.045 11.525 49.9043C11.3865 49.7637 11.3026 49.5741 11.2897 49.3723C11.2897 49.3288 11.2897 49.2853 11.2897 49.2418C11.2897 46.9301 11.2897 44.6181 11.2897 42.3058C11.2813 42.1316 11.3212 41.9586 11.4046 41.8078C11.4896 41.6676 11.6123 41.5571 11.7572 41.4903C11.9021 41.4235 12.0626 41.4034 12.2184 41.4326C12.3748 41.4592 12.5194 41.5363 12.6321 41.6532C12.7448 41.7702 12.8199 41.9211 12.8469 42.085C12.8583 42.197 12.8635 42.309 12.877 42.4341Z" fill="#070909"/>
<path d="M40.8417 42.4243C40.9266 42.4243 40.9453 42.358 40.9877 42.3156C41.7757 41.499 42.7375 41.2392 43.8113 41.3468C44.191 41.3805 44.5621 41.4839 44.9078 41.6523C45.8397 42.1166 46.3574 42.9082 46.5645 43.9499C46.6132 44.2233 46.6358 44.5013 46.6318 44.7795V49.2125C46.6414 49.3512 46.6249 49.4905 46.5831 49.6224C46.5172 49.7927 46.3986 49.9348 46.2465 50.0257C46.0943 50.1166 45.9175 50.1511 45.7444 50.1237C45.3302 50.0519 45.0735 49.7475 45.0724 49.3212C45.0724 47.974 45.0724 46.6268 45.0724 45.2797C45.0839 44.9059 45.0402 44.5325 44.943 44.1728C44.8422 43.7976 44.6305 43.4657 44.3385 43.225C44.0466 42.9843 43.6894 42.8471 43.3184 42.8332C43.006 42.8031 42.691 42.8285 42.3866 42.9082C41.9726 43.0271 41.6035 43.2769 41.3296 43.6238C41.0556 43.9707 40.8899 44.3977 40.8552 44.8469C40.8438 44.9937 40.8376 45.1416 40.8376 45.2894C40.8376 46.5674 40.8376 47.845 40.8376 49.1223C40.8395 49.2353 40.8336 49.3483 40.82 49.4604C40.793 49.6562 40.6969 49.8341 40.5507 49.9588C40.4045 50.0835 40.219 50.1459 40.031 50.1335C39.8387 50.1302 39.6545 50.0523 39.5137 49.9147C39.373 49.7772 39.2858 49.5898 39.2689 49.3886C39.2637 49.3104 39.2689 49.2321 39.2689 49.1538C39.2689 46.9067 39.2689 44.6555 39.2689 42.4004C39.2632 42.2789 39.2702 42.1572 39.2896 42.0373C39.3345 41.85 39.4415 41.6856 39.5915 41.5738C39.7414 41.462 39.9244 41.41 40.1076 41.4273C40.2877 41.4332 40.4597 41.5066 40.5927 41.6343C40.7257 41.7619 40.8107 41.9354 40.8324 42.1232C40.8262 42.2254 40.8324 42.3265 40.8417 42.4243Z" fill="#070909"/>
<path d="M59.3807 41.3815C60.2771 41.3818 61.1599 41.6117 61.9527 42.0513C62.2788 42.2252 62.4466 42.5416 62.3958 42.8504C62.3769 42.9551 62.3372 43.0544 62.2794 43.1419C62.2217 43.2295 62.147 43.3033 62.0603 43.3586C61.9737 43.414 61.8769 43.4496 61.7763 43.4632C61.6757 43.4768 61.5735 43.4681 61.4764 43.4376C61.3512 43.3923 61.2306 43.3344 61.116 43.2647C60.4948 42.9483 59.8559 42.7417 59.1581 42.783C58.8587 42.79 58.5679 42.8899 58.3225 43.0701C58.2298 43.1364 58.1515 43.2226 58.093 43.3231C58.0344 43.4236 57.9969 43.536 57.9829 43.6529C57.9635 43.778 57.9779 43.9064 58.0244 44.0234C58.0708 44.1404 58.1476 44.2414 58.2459 44.3151C58.4388 44.4649 58.6521 44.5837 58.8785 44.6674C59.3413 44.8555 59.8228 44.9838 60.296 45.1371C60.7904 45.2799 61.2616 45.4998 61.6938 45.7895C62.1266 46.1005 62.4455 46.5038 62.5521 47.0508C62.6663 47.5781 62.6117 48.1302 62.3968 48.6216C62.1819 49.113 61.8187 49.5163 61.3635 49.7691C60.8118 50.0742 60.1944 50.224 59.5712 50.204C58.4555 50.1971 57.3663 49.8471 56.438 49.1971C56.3215 49.1291 56.2257 49.0276 56.1619 48.9046C56.0981 48.7816 56.0689 48.6421 56.0777 48.5023C56.1098 47.9587 56.7145 47.6477 57.1763 47.9511C57.495 48.1684 57.8327 48.3534 58.1848 48.5034C58.6861 48.7129 59.2235 48.8103 59.7627 48.7894C60.0703 48.7847 60.371 48.6934 60.6335 48.5252C60.7631 48.4462 60.872 48.3347 60.9506 48.2008C61.0292 48.0669 61.075 47.9146 61.0839 47.7575C61.0965 47.6228 61.0749 47.4871 61.0215 47.3639C60.968 47.2408 60.8846 47.1346 60.7795 47.0562C60.5788 46.9027 60.3566 46.7828 60.121 46.7007C59.6323 46.5093 59.1228 46.3929 58.6258 46.2309C58.1795 46.0988 57.753 45.9019 57.3585 45.6459C56.8719 45.3111 56.5302 44.8587 56.4649 44.2411C56.3614 43.3278 56.6379 42.5612 57.3482 41.9947C57.8187 41.6338 58.3777 41.4214 58.9592 41.3826C59.0959 41.3695 59.2399 41.3815 59.3807 41.3815Z" fill="#070909"/>
<path d="M16.7994 29.7178C16.7994 28.0579 16.7994 26.3975 16.7994 24.7368C16.7919 24.6154 16.7985 24.4934 16.819 24.3736C16.8676 24.1703 16.982 23.991 17.1426 23.8665C17.3033 23.742 17.5001 23.68 17.6995 23.6912C17.8989 23.7024 18.0883 23.786 18.2354 23.9278C18.3825 24.0696 18.478 24.2606 18.5057 24.4682C18.5147 24.5545 18.5185 24.6413 18.5171 24.7281V34.7641C18.5171 34.8076 18.5171 34.8511 18.5171 34.8946C18.4995 35.4567 18.1568 35.8112 17.6391 35.8014C17.1431 35.7938 16.8014 35.4241 16.8004 34.8761C16.7963 33.1592 16.7994 31.438 16.7994 29.7178Z" fill="#070909"/>
<path d="M9.30686 44.3258C9.30686 45.9688 9.30065 47.6106 9.30686 49.2536C9.3097 49.4538 9.24665 49.6489 9.12838 49.806C9.0101 49.9631 8.84384 50.0725 8.65765 50.1158C8.54808 50.1383 8.43525 50.1367 8.32635 50.1108C8.21744 50.085 8.11485 50.0356 8.02513 49.9659C7.9354 49.8961 7.86051 49.8075 7.80523 49.7056C7.74994 49.6037 7.71548 49.4909 7.70404 49.3743C7.70404 49.296 7.70404 49.2177 7.70404 49.1394V39.5188C7.69554 39.3972 7.70321 39.275 7.72681 39.1556C7.77741 38.9611 7.89314 38.7924 8.05273 38.6803C8.21232 38.5683 8.40506 38.5204 8.59553 38.5456C8.78771 38.5607 8.96733 38.6516 9.09832 38.8001C9.22931 38.9485 9.30195 39.1435 9.30168 39.3459C9.30893 40.3245 9.30168 41.3096 9.30168 42.2915L9.30686 44.3258Z" fill="#070909"/>
<path d="M65.4992 45.8037V49.1918C65.5068 49.3132 65.4977 49.4352 65.4723 49.5539C65.4219 49.73 65.3166 49.8832 65.1733 49.9889C65.03 50.0946 64.8571 50.1467 64.6822 50.1367C64.5029 50.1317 64.3308 50.0611 64.1958 49.937C64.0608 49.8129 63.9714 49.6432 63.943 49.4571C63.9312 49.3714 63.9257 49.2849 63.9264 49.1984C63.9264 46.9143 63.9264 44.6309 63.9264 42.3482C63.9203 42.2094 63.9396 42.0706 63.9833 41.9394C64.051 41.7646 64.1739 41.6195 64.3312 41.5284C64.4886 41.4374 64.671 41.4059 64.8479 41.4392C65.0259 41.4658 65.189 41.5582 65.3079 41.6996C65.4269 41.8411 65.494 42.0225 65.4971 42.2112C65.5064 42.6625 65.4971 43.1148 65.4971 43.566L65.4992 45.8037Z" fill="#070909"/>
<path d="M13.575 62.3212C13.6414 62.2628 13.693 62.1881 13.7252 62.1037C14.0772 61.4948 14.4303 60.8881 14.7741 60.2759C14.7983 60.2174 14.8402 60.1689 14.8934 60.138C14.9466 60.1071 15.008 60.0956 15.0681 60.1052C15.1882 60.1172 15.3114 60.1052 15.4378 60.1052C15.4274 60.1968 15.3914 60.2831 15.3342 60.3531C14.7923 61.2759 14.2494 62.1983 13.7055 63.1203C13.6599 63.1986 13.6392 63.3161 13.5367 63.3302C13.4135 63.3443 13.2893 63.3443 13.1661 63.3302C13.0749 63.3226 13.0915 63.2302 13.0874 63.1649C13.0656 62.879 13.048 62.593 13.0294 62.307C13.0076 61.97 12.9869 61.6318 12.9641 61.2936C12.9666 61.2409 12.954 61.1887 12.9279 61.1436C12.8471 61.1523 12.8358 61.2306 12.8037 61.2849C12.4537 61.8841 12.0975 62.481 11.762 63.0877C11.6585 63.2758 11.5477 63.378 11.3365 63.3378C11.2758 63.3323 11.2149 63.3323 11.1542 63.3378C11.0849 62.942 11.0838 62.5528 11.0507 62.1668C10.9948 61.5535 10.9554 60.9381 10.9078 60.3237C10.8912 60.1063 10.8881 60.1063 11.0931 60.1063C11.4742 60.1008 11.47 60.1009 11.4918 60.4966C11.5228 61.0686 11.5591 61.6405 11.5953 62.2124C11.5953 62.245 11.5953 62.2831 11.6419 62.3135C11.7175 62.269 11.7455 62.1765 11.7889 62.0961C12.1368 61.4948 12.4806 60.8924 12.8244 60.2922C12.8658 60.2215 12.8834 60.1128 12.9755 60.1008C13.0983 60.0862 13.2224 60.0862 13.3452 60.1008C13.4197 60.1095 13.4063 60.1944 13.4104 60.2509C13.4322 60.5456 13.4498 60.8402 13.4684 61.1349C13.4901 61.4818 13.5098 61.8286 13.5315 62.1744C13.5252 62.2007 13.5259 62.2283 13.5335 62.2542C13.5412 62.2801 13.5556 62.3033 13.575 62.3212Z" fill="#070909"/>
<path d="M24.8784 63.0618C24.7946 63.1162 24.7117 63.1706 24.6248 63.2238C23.841 63.6664 22.9681 63.2315 22.7972 62.3159C22.6399 61.4722 23.1244 60.5099 23.8751 60.175C24.5047 59.8945 25.0513 60.0391 25.5432 60.6241C25.5988 60.5514 25.632 60.4626 25.6384 60.3696C25.7575 59.9184 25.8776 59.4682 25.9801 59.0127C26.0132 58.8702 26.0723 58.83 26.1996 58.8398C26.327 58.8496 26.443 58.8398 26.59 58.8398C26.4688 59.3171 26.3549 59.7672 26.24 60.2163C25.9956 61.179 25.7506 62.1416 25.5049 63.1042C25.45 63.3217 25.449 63.3217 25.246 63.3217H25.0969C24.8991 63.3217 24.8991 63.3217 24.9323 63.1042C24.9468 63.0749 24.9582 63.0434 24.9271 63.0205C24.9271 63.0216 24.895 63.0488 24.8784 63.0618ZM23.3512 61.9473C23.3512 62.5997 23.7788 62.9759 24.3659 62.8172C24.8567 62.6878 25.2978 62.1322 25.3537 61.6026C25.4407 60.7861 24.7324 60.3838 24.1215 60.6534C23.666 60.86 23.3574 61.3721 23.3512 61.9473Z" fill="#070909"/>
<path d="M61.4963 63.301C61.4807 63.1988 61.5553 63.1216 61.5066 63.0237C61.3098 63.1786 61.0867 63.2927 60.8491 63.3597C60.548 63.4376 60.2298 63.3893 59.9619 63.2251C59.6941 63.0609 59.4976 62.7937 59.4141 62.4801C59.1573 61.5961 59.6739 60.375 60.6566 60.1086C61.2126 59.9575 61.7085 60.0619 62.072 60.5772C62.0823 60.5912 62.0942 60.604 62.1072 60.6153C62.1212 60.6211 62.1358 60.6251 62.1507 60.6273L62.4613 59.4377C62.4996 59.2866 62.5369 59.1355 62.5721 58.9843C62.5938 58.8908 62.63 58.831 62.7388 58.8397C62.8703 58.8495 63.0028 58.8397 63.1281 58.8397C63.1809 58.9234 63.1281 58.9854 63.1126 59.0485C62.7743 60.3902 62.4344 61.7313 62.0927 63.0716C62.0305 63.3195 62.0285 63.3206 61.782 63.3184C61.6865 63.3298 61.5899 63.3239 61.4963 63.301ZM59.9307 61.9679C59.9307 62.6584 60.4422 63.0368 61.0552 62.7791C61.2809 62.6908 61.4802 62.5413 61.6328 62.3456C61.7854 62.15 61.8859 61.9154 61.9239 61.6657C61.9642 61.5051 61.9592 61.3356 61.9096 61.1779C61.8599 61.0203 61.7678 60.8811 61.6443 60.7773C61.3627 60.5348 61.0417 60.5207 60.7125 60.6588C60.2476 60.8599 59.9328 61.3873 59.9307 61.9679Z" fill="#070909"/>
<path d="M3.30247 60.3377C3.54989 60.1461 3.85031 60.0449 4.15773 60.0496C4.75517 60.0735 5.14241 60.5183 5.0896 61.1369C5.07115 61.3265 5.0365 61.5139 4.98606 61.6969C4.86388 62.1742 4.7417 62.6516 4.62987 63.1311C4.5957 63.2768 4.53566 63.3355 4.39173 63.3181C4.2724 63.3115 4.15281 63.3115 4.03347 63.3181C4.07575 63.0644 4.13351 62.8138 4.20639 62.5678C4.29854 62.1808 4.40002 61.7969 4.4932 61.4109C4.55533 61.1532 4.5543 60.8988 4.33996 60.7172C4.12563 60.5356 3.8616 60.5346 3.61517 60.6487C3.44762 60.726 3.29938 60.843 3.18208 60.9906C3.06478 61.1381 2.9816 61.3121 2.93904 61.499C2.80133 62.0068 2.675 62.5189 2.5435 63.03C2.5255 63.0873 2.51099 63.1458 2.50002 63.205C2.4876 63.2942 2.43893 63.3192 2.36231 63.3138H1.93262C1.95441 63.1088 1.99818 62.9071 2.06308 62.7125C2.36853 61.4979 2.68433 60.2845 2.99496 59.071C3.05501 58.8351 3.05501 58.834 3.28694 58.834C3.36977 58.834 3.45261 58.834 3.53544 58.834C3.55864 58.8403 3.58119 58.8491 3.60275 58.8601C3.48747 59.3327 3.37218 59.8068 3.25691 60.2823C3.24345 60.3117 3.23103 60.3432 3.26313 60.3649C3.26106 60.378 3.28694 60.3508 3.30247 60.3377Z" fill="#070909"/>
<path d="M50.3094 60.34C50.5628 60.141 50.8732 60.0386 51.1895 60.0497C51.7869 60.0813 52.1866 60.5684 52.0996 61.1892C52.0303 61.6883 51.8698 62.1678 51.7579 62.6539C51.7165 62.8311 51.6669 63.0051 51.6275 63.1834C51.6263 63.2049 51.6206 63.226 51.611 63.2451C51.6014 63.2642 51.588 63.2809 51.5717 63.294C51.5554 63.3072 51.5366 63.3166 51.5166 63.3215C51.4966 63.3264 51.4758 63.3268 51.4556 63.3226C51.3215 63.3269 51.1872 63.3211 51.0539 63.3052C51.0472 63.2021 51.0653 63.0988 51.1067 63.0051C51.2258 62.5179 51.3521 62.033 51.4763 61.5481C51.4929 61.4806 51.5115 61.4132 51.5219 61.3447C51.6068 60.8011 51.2475 60.4618 50.7453 60.6097C50.3156 60.7358 50.0702 61.0642 49.945 61.4926C49.8311 61.8829 49.7379 62.2798 49.6416 62.6734C49.5991 62.8409 49.5484 63.0062 49.5152 63.1758C49.5144 63.1994 49.5086 63.2226 49.4981 63.2435C49.4876 63.2645 49.4727 63.2827 49.4546 63.2968C49.4365 63.3109 49.4157 63.3205 49.3935 63.325C49.3714 63.3295 49.3486 63.3286 49.3268 63.3226C49.2044 63.3263 49.082 63.3212 48.9603 63.3073C48.9482 63.2742 48.9429 63.2388 48.9447 63.2034C48.9465 63.168 48.9553 63.1334 48.9706 63.1018C49.3113 61.7699 49.6488 60.439 49.9926 59.1081C50.0754 58.7819 50.0153 58.8482 50.3115 58.8428C50.4101 58.8297 50.5104 58.8386 50.6055 58.8689C50.4896 59.343 50.3732 59.8174 50.2566 60.2922C50.2411 60.3216 50.2297 60.3531 50.2566 60.3759C50.2659 60.3803 50.2949 60.3531 50.3094 60.34Z" fill="#070909"/>
<path d="M7.27107 61.9474C6.93974 61.9474 6.60944 61.9474 6.27811 61.9474C6.13212 61.9474 6.12177 61.968 6.13833 62.1148C6.18907 62.5617 6.48312 62.8422 6.92421 62.8585C7.21651 62.8707 7.50332 62.7728 7.73287 62.5823C7.88197 62.4606 7.88922 62.4856 7.98448 62.6171C8.19156 62.9042 8.24748 62.8346 7.9265 63.0706C7.7228 63.2212 7.48982 63.3225 7.24437 63.3672C6.99891 63.412 6.74706 63.399 6.50693 63.3293C6.21162 63.2473 5.95484 63.0551 5.78451 62.7888C5.61417 62.5225 5.54194 62.2002 5.58128 61.8821C5.62368 61.357 5.85332 60.8681 6.22427 60.5132C6.40116 60.3351 6.61418 60.2015 6.84733 60.1224C7.08047 60.0433 7.32767 60.0208 7.57031 60.0565C8.20192 60.137 8.62126 60.7491 8.53739 61.457C8.4794 61.9463 8.4794 61.9463 8.01968 61.9463L7.27107 61.9474ZM6.26361 61.457H7.84263C7.90682 61.457 7.97309 61.4668 7.9907 61.3656C8.01252 61.2011 7.97991 61.0337 7.8983 60.8914C7.8167 60.7491 7.69104 60.6405 7.54235 60.5838C7.0205 60.436 6.37855 60.86 6.26361 61.4613V61.457Z" fill="#070909"/>
<path d="M54.7837 61.4091C54.8147 61.3373 54.8265 61.258 54.8179 61.1797C54.8179 60.872 54.6708 60.6904 54.3664 60.6295C54.0631 60.5793 53.7528 60.6047 53.4604 60.7035C53.39 60.7241 53.3207 60.7491 53.2534 60.773C53.206 60.6998 53.1785 60.6146 53.1736 60.5262C53.127 60.2653 53.125 60.2609 53.3579 60.1891C53.721 60.0643 54.1069 60.0312 54.4845 60.0924C55.1875 60.225 55.5023 60.6937 55.3439 61.4222C55.2155 62.0137 55.0519 62.5965 54.9059 63.1836C54.8821 63.2826 54.8355 63.3337 54.733 63.3228C54.6754 63.3196 54.6176 63.3196 54.56 63.3228C54.3416 63.3228 54.3416 63.3228 54.3219 63.1054C54.2287 63.0923 54.1738 63.1728 54.1024 63.2141C53.8224 63.3684 53.5024 63.4234 53.1902 63.3707C52.4478 63.2391 52.2583 62.478 52.5689 61.9169C52.7833 61.532 53.1322 61.3732 53.535 61.3189C53.8817 61.2807 54.232 61.3061 54.5704 61.3939C54.6389 61.4193 54.7126 61.4245 54.7837 61.4091ZM53.5412 62.8868C53.7895 62.884 54.0305 62.7981 54.2291 62.6417C54.4278 62.4853 54.5738 62.2664 54.646 62.0169C54.6688 61.9332 54.6812 61.8625 54.5746 61.8408C54.2442 61.7573 53.9024 61.7363 53.565 61.7788C53.4702 61.7927 53.3791 61.827 53.2975 61.8796C53.2159 61.9321 53.1455 62.0019 53.0908 62.0844C53.037 62.1543 53.0027 62.2385 52.9919 62.3277C52.981 62.4169 52.994 62.5075 53.0293 62.5894C53.0647 62.6713 53.121 62.7412 53.192 62.7914C53.263 62.8417 53.3459 62.8702 53.4314 62.8738C53.4718 62.8835 53.5133 62.8846 53.5402 62.8868H53.5412ZM54.3312 63.0488C54.3312 63.0488 54.3219 63.0619 54.324 63.0651C54.326 63.0684 54.3364 63.0836 54.3385 63.0825C54.3571 63.0727 54.3602 63.0597 54.3467 63.0499C54.3333 63.0401 54.3333 63.0488 54.3333 63.0488H54.3312Z" fill="#070909"/>
<path d="M39.8497 60.0521C40.7526 60.0608 41.32 60.7828 41.1957 61.7625C41.0798 62.6693 40.2483 63.4141 39.3786 63.3935C38.4933 63.3717 37.8979 62.6084 38.0481 61.6886C38.1048 61.3048 38.2694 60.9476 38.5206 60.6627C38.7718 60.3777 39.0983 60.178 39.4583 60.0891C39.5871 60.0618 39.7183 60.0494 39.8497 60.0521ZM38.6 61.9213C38.573 62.6432 39.1249 62.9379 39.6354 62.8303C40.1676 62.7215 40.619 62.1561 40.6397 61.5603C40.6729 60.6295 39.9056 60.4392 39.4045 60.6556C39.1685 60.7627 38.967 60.9391 38.8242 61.1637C38.6815 61.3882 38.6036 61.6513 38.6 61.9213Z" fill="#070909"/>
<path d="M17.1471 60.0517C18.0013 60.0213 18.7147 60.7519 18.5045 61.8338C18.3326 62.7232 17.5933 63.3811 16.7795 63.393C15.8746 63.4061 15.2491 62.6678 15.3693 61.7273C15.4223 61.3387 15.5848 60.9758 15.836 60.6851C16.0871 60.3944 16.4154 60.1894 16.7785 60.0963C16.8994 60.0674 17.023 60.0524 17.1471 60.0517ZM17.9816 61.4935C17.9816 60.8411 17.4753 60.441 16.8737 60.6117C16.6002 60.6989 16.3602 60.8754 16.1886 61.1154C16.017 61.3555 15.9226 61.6467 15.9191 61.9469C15.9274 62.5525 16.3519 62.9255 16.9172 62.8353C17.2144 62.7741 17.4825 62.6073 17.6763 62.3629C17.8702 62.1185 17.978 61.8115 17.9816 61.4935Z" fill="#070909"/>
<path d="M35.0917 60.1444C35.1135 60.1313 35.1207 60.1237 35.128 60.1237C35.2926 60.1237 35.4873 60.0628 35.6146 60.1346C35.742 60.2064 35.7119 60.4423 35.7389 60.6065C35.8372 61.1958 35.9314 61.7862 36.0267 62.3756C36.034 62.4158 36.0267 62.4647 36.0785 62.4843C36.1561 62.4451 36.182 62.3593 36.2245 62.2897C36.6324 61.6275 37.0445 60.9664 37.4421 60.2966C37.4704 60.23 37.5191 60.1753 37.5805 60.1412C37.6419 60.1071 37.7124 60.0956 37.7807 60.1085C37.9014 60.115 38.0224 60.115 38.1431 60.1085C38.1824 60.1944 38.1234 60.2346 38.0944 60.2814C37.4394 61.3238 36.7836 62.3651 36.1271 63.4053C35.9852 63.641 35.8072 63.8504 35.6001 64.025C35.4169 64.1761 35.1946 64.266 34.9622 64.2828C34.7297 64.2997 34.4978 64.2428 34.2965 64.1196C34.1547 64.0316 34.1547 64.0283 34.2479 63.8869C34.2624 63.8652 34.2769 63.8445 34.2924 63.8239C34.3504 63.751 34.3814 63.6412 34.4674 63.6129C34.5533 63.5847 34.6113 63.6771 34.6879 63.7065C34.7959 63.7523 34.9142 63.7646 35.0287 63.7421C35.1432 63.7195 35.2491 63.663 35.334 63.5792C35.4024 63.5162 35.4624 63.4444 35.5245 63.3748C35.5624 63.3359 35.5896 63.287 35.6033 63.2332C35.6169 63.1795 35.6166 63.1228 35.6022 63.0693C35.5069 62.5854 35.4283 62.0983 35.3444 61.6112C35.2605 61.1241 35.1777 60.6424 35.0917 60.1444Z" fill="#070909"/>
<path d="M57.7832 63.2977C57.9292 62.717 58.069 62.156 58.2109 61.5971C58.2514 61.465 58.2758 61.3279 58.2833 61.1893C58.29 61.1133 58.2817 61.0365 58.2589 60.964C58.236 60.8914 58.1991 60.8246 58.1505 60.7677C58.1019 60.7109 58.0426 60.6652 57.9764 60.6335C57.9101 60.6018 57.8384 60.5849 57.7656 60.5837C57.5574 60.5661 57.3503 60.6304 57.1848 60.7642C56.9332 60.9527 56.7543 61.2297 56.6805 61.5449C56.5511 62.0472 56.4258 62.5507 56.2995 63.053C56.2322 63.3205 56.2322 63.3216 55.9764 63.3216H55.9516C55.671 63.3216 55.671 63.3216 55.7445 63.0269C55.9733 62.1223 56.2042 61.2187 56.4299 60.3086C56.4869 60.0781 56.4838 60.1118 56.6753 60.1085H56.9238C56.9932 60.1085 57.0274 60.1259 57.018 60.2173C57.0098 60.3478 57.0823 60.3336 57.1578 60.2782C57.3911 60.1091 57.6724 60.029 57.9551 60.0509C58.1898 60.0515 58.4149 60.1487 58.582 60.3217C58.7491 60.4948 58.8449 60.7298 58.8487 60.9762C58.8557 61.1846 58.8305 61.3928 58.7741 61.5927C58.6478 62.1049 58.5132 62.6148 58.3889 63.1269C58.3558 63.2618 58.3113 63.3444 58.158 63.3227C58.0327 63.3248 57.9073 63.3164 57.7832 63.2977ZM57.047 60.3445C57.0419 60.3445 57.0346 60.3271 57.0305 60.3282C57.0189 60.3323 57.0078 60.3377 56.9973 60.3445C57.0025 60.3445 57.0098 60.3619 57.0139 60.3608C57.0253 60.3563 57.0364 60.3508 57.047 60.3445Z" fill="#070909"/>
<path d="M30.8863 60.3533C31.1297 60.1549 31.4293 60.0477 31.7374 60.0488C32.4829 60.0619 32.7729 60.7012 32.6766 61.2536C32.5875 61.7483 32.4426 62.2322 32.3245 62.716C32.2862 62.8759 32.2386 63.0335 32.2065 63.1945C32.2051 63.2137 32.2 63.2325 32.1914 63.2496C32.1828 63.2667 32.1709 63.2817 32.1565 63.2938C32.1422 63.3058 32.1256 63.3146 32.1078 63.3196C32.09 63.3246 32.0714 63.3257 32.0533 63.3228C31.9145 63.3228 31.7768 63.3228 31.6142 63.3228C31.723 62.8878 31.8213 62.4866 31.9249 62.0865C31.9735 61.8929 32.0191 61.6994 32.0729 61.5091C32.0959 61.4256 32.1088 61.3394 32.1112 61.2525C32.1319 60.7512 31.8068 60.474 31.3419 60.6077C30.877 60.7415 30.644 61.0861 30.5198 61.5363C30.3955 61.9864 30.2837 62.4562 30.1688 62.9172C30.0653 63.3369 30.0653 63.3369 29.6511 63.3228C29.6266 63.3264 29.6016 63.3235 29.5785 63.3144C29.5553 63.3053 29.5347 63.2902 29.5186 63.2706C29.5972 62.9618 29.6811 62.6377 29.7629 62.3137C29.9327 61.6428 30.1046 60.9731 30.2682 60.3011C30.3013 60.163 30.351 60.0901 30.5012 60.1108C30.6135 60.1189 30.7263 60.1189 30.8387 60.1108C30.8822 60.1815 30.8449 60.2413 30.8501 60.3C30.8273 60.3174 30.817 60.3435 30.8335 60.3652C30.8501 60.387 30.8698 60.3674 30.8863 60.3533Z" fill="#070909"/>
<path d="M43.549 63.0399C43.3474 63.2126 43.1066 63.3276 42.8501 63.3737C42.1036 63.4683 41.591 62.9279 41.7215 62.1711C41.8343 61.5187 42.0383 60.8782 42.1884 60.2291C42.2123 60.1291 42.264 60.1095 42.3489 60.1117C42.4804 60.1117 42.6119 60.1117 42.7631 60.1117C42.7403 60.2204 42.7248 60.3063 42.702 60.3933C42.5757 60.8956 42.4494 61.3991 42.3179 61.9003C42.283 62.0422 42.2701 62.1891 42.2796 62.3353C42.2824 62.4537 42.3249 62.5673 42.3995 62.6561C42.474 62.745 42.576 62.8035 42.6875 62.8213C42.8013 62.8456 42.9186 62.845 43.0322 62.8193C43.1457 62.7937 43.2529 62.7436 43.3471 62.6723C43.6132 62.4747 43.8005 62.1808 43.8731 61.847C44.0035 61.336 44.1371 60.8261 44.2696 60.3161C44.3235 60.1084 44.3245 60.1062 44.5337 60.1084C44.644 60.0982 44.7552 60.104 44.864 60.1258C44.8288 60.3552 44.7765 60.5813 44.7076 60.8021C44.5181 61.5633 44.3183 62.3244 44.1236 63.0855C44.0512 63.3671 44.0594 63.303 43.8451 63.3128H43.7416C43.5293 63.3193 43.5293 63.3193 43.549 63.0399Z" fill="#070909"/>
<path d="M1.39526 62.7083C1.39526 62.8986 1.31864 63.0475 1.29172 63.2041C1.28033 63.2606 1.2327 63.2802 1.18818 63.2976C0.929093 63.3971 0.644821 63.3971 0.385732 63.2976C0.269906 63.2598 0.169291 63.1827 0.099602 63.0784C0.0299136 62.9742 -0.00491714 62.8486 0.000559886 62.7213C-0.00232492 62.5824 0.0129989 62.4437 0.0461122 62.3092C0.179681 61.7993 0.304968 61.2871 0.43543 60.7761C0.450724 60.7354 0.455372 60.6911 0.448891 60.6478C0.330854 60.6032 0.201434 60.6652 0.0813255 60.6065C0.0927151 60.5543 0.0999585 60.4978 0.11549 60.4532C0.146552 60.3444 0.138269 60.215 0.219032 60.1389C0.299794 60.0628 0.40955 60.1085 0.505844 60.1117C0.602138 60.115 0.633205 60.0574 0.652878 59.9769C0.70672 59.7595 0.76573 59.542 0.812324 59.3245C0.813422 59.3009 0.81945 59.2778 0.829968 59.2568C0.840487 59.2359 0.855243 59.2176 0.873208 59.2033C0.891172 59.189 0.9119 59.179 0.93394 59.174C0.955979 59.1691 0.978798 59.1692 1.00078 59.1745C1.12296 59.1843 1.2472 59.1745 1.39112 59.1745C1.36006 59.5007 1.22649 59.7801 1.18404 60.1052H2.02687C2.07553 60.1433 2.06828 60.1694 2.06414 60.1933C1.98027 60.6282 1.98027 60.6282 1.54643 60.6348C1.37559 60.6348 1.16126 60.5597 1.04426 60.6761C0.927254 60.7924 0.940723 60.9936 0.897235 61.1599C0.806809 61.5035 0.718101 61.8468 0.631126 62.1896C0.602814 62.2892 0.582044 62.391 0.569003 62.4941C0.548295 62.7018 0.633201 62.8018 0.829931 62.8203C1.02412 62.8299 1.21776 62.7915 1.39526 62.7083Z" fill="#070909"/>
<path d="M18.7881 63.2967C19.048 62.2724 19.3058 61.2699 19.5553 60.2663C19.5812 60.1576 19.6144 60.0978 19.7345 60.1108C19.8546 60.1239 19.9954 60.1108 20.1269 60.1108C20.1548 60.2859 20.044 60.424 20.0699 60.5849C20.7523 60.0749 20.8827 60.0227 21.3332 60.0771C21.3332 60.2598 21.2545 60.425 21.2224 60.6001C21.2089 60.6686 21.1644 60.6751 21.1188 60.6784C20.3246 60.7295 19.9177 61.2525 19.693 61.9832C19.5771 62.3616 19.486 62.7443 19.399 63.1357C19.3659 63.2912 19.2955 63.3358 19.1608 63.3206C19.0361 63.3269 18.9111 63.3188 18.7881 63.2967Z" fill="#070909"/>
<path d="M47.4765 60.0702C47.5055 60.1333 47.4682 60.1789 47.4609 60.2279C47.4237 60.5041 47.3574 60.6943 47.0105 60.7237C46.556 60.7618 46.2485 61.1064 46.0217 61.5131C45.9082 61.7349 45.8239 61.972 45.7712 62.2177C45.6914 62.5352 45.6024 62.8516 45.5309 63.1724C45.504 63.292 45.4533 63.3322 45.3446 63.3224C45.27 63.3159 45.1955 63.3224 45.1209 63.3224C44.9314 63.3224 44.9283 63.317 44.979 63.1136C45.2006 62.2438 45.4226 61.3739 45.6448 60.5041C45.7484 60.1126 45.7484 60.1126 46.1242 60.1159H46.2795C46.2971 60.2866 46.1967 60.4247 46.2143 60.615C46.5819 60.2529 46.9691 59.9898 47.4765 60.0702Z" fill="#070909"/>
<path d="M22.7985 58.8788C22.6712 59.3811 22.5428 59.8889 22.4134 60.4011C22.1821 61.3043 21.9509 62.2071 21.7196 63.1096C21.6647 63.327 21.6637 63.327 21.4597 63.327C21.3533 63.3377 21.2459 63.3326 21.1408 63.3118C21.0984 63.227 21.1501 63.1574 21.1677 63.0856C21.5129 61.7381 21.858 60.392 22.2032 59.0473C22.2529 58.8494 22.2549 58.8494 22.4465 58.8484C22.55 58.8484 22.6453 58.8484 22.7447 58.8484C22.753 58.8462 22.7695 58.8614 22.7985 58.8788Z" fill="#070909"/>
<path d="M28.0635 63.3C28.1018 63.0686 28.1558 62.8404 28.225 62.6171C28.4207 61.8462 28.6236 61.0775 28.8121 60.3044C28.8473 60.1598 28.8949 60.0945 29.0419 60.1108C29.1564 60.1174 29.2712 60.1174 29.3857 60.1108C29.4333 60.1935 29.3857 60.2555 29.3691 60.3153C29.1337 61.246 28.8963 62.176 28.6568 63.1053C28.6019 63.3174 28.6009 63.3228 28.3927 63.3228C28.2825 63.3333 28.1714 63.3256 28.0635 63.3Z" fill="#070909"/>
<path d="M29.74 58.942C29.7135 59.1161 29.6751 59.288 29.6251 59.4563C29.6095 59.5259 29.5795 59.565 29.5101 59.565C29.3416 59.5731 29.1728 59.5691 29.0048 59.5531C28.9686 59.4824 29.0049 59.4356 29.0204 59.39C29.069 59.2366 29.0421 59.0094 29.1778 58.9485C29.3403 58.8735 29.5464 58.9083 29.74 58.942Z" fill="#070909"/>
</svg>
