<svg width="220" height="220" viewBox="0 0 220 220" fill="none" xmlns="http://www.w3.org/2000/svg">
<g clip-path="url(#clip0_258_7920)">
<path d="M39.0925 187.902L29.2491 187.773C26.3047 187.758 23.6474 186.275 22.1356 183.801C20.6371 181.35 20.4788 178.266 21.7057 175.696C22.0609 174.901 22.5534 174.196 23.2054 173.544C23.3472 173.402 23.4979 173.268 23.6551 173.141L23.6661 173.132C23.8849 172.958 24.1102 172.777 24.3279 172.611C24.8128 172.229 25.2284 171.958 25.6693 171.738C25.7231 171.711 25.7781 171.684 25.8342 171.659C31.3259 169.138 34.0669 167.532 38.2151 165.1C41.7377 163.035 46.1212 160.466 53.7129 156.449C53.725 156.443 53.7371 156.436 53.7492 156.431C54.034 156.283 54.1516 156.038 54.2 155.859C54.2495 155.679 54.2715 155.407 54.1066 155.133L52.796 153.105C50.4938 149.579 48.4829 145.78 46.8194 141.812C45.9926 139.911 45.2934 138.024 44.7403 136.197C43.9927 134.022 43.333 131.642 42.7272 128.932C42.5271 128.164 42.3809 127.432 42.2501 126.781L42.2479 126.767C41.7751 124.406 41.4431 122.314 41.2331 120.375C41.2265 120.337 41.2177 120.299 41.21 120.262C41.166 120.042 41.1055 119.741 41.0594 119.368C41.033 119.159 41.0187 118.949 41.0176 118.738C40.8406 116.902 40.6416 114.532 40.5888 111.996C40.5426 111.216 40.5426 110.478 40.5426 109.824C40.5426 99.1977 42.6591 88.9354 46.8326 79.3207C46.8348 79.3163 46.8359 79.313 46.8381 79.3086C48.9259 74.5282 51.4437 70.0106 54.3209 65.8799C57.2928 61.5932 60.5119 57.7506 63.8917 54.4577C70.904 47.54 79.3367 41.8877 88.958 37.6592C88.98 37.6493 89.0031 37.6394 89.0251 37.6306C97.3578 34.1003 106.146 32.0531 115.145 31.5463C116.545 31.4187 118.01 31.3594 119.743 31.3594H120.347C131.359 31.3594 141.901 33.4703 151.679 37.635C151.699 37.6438 151.718 37.6515 151.738 37.6603C161.401 41.9086 169.792 47.5763 176.677 54.505C180.644 58.474 183.866 62.4452 186.521 66.6418C189.095 70.5548 191.344 74.8503 193.208 79.4109C196.602 87.5347 198.557 96.2918 199.022 105.44C199.024 105.474 199.025 105.507 199.026 105.541C199.07 106.903 199.115 108.309 199.115 109.826C199.115 112.04 199.025 114.244 198.848 116.377C198.83 116.735 198.788 117.031 198.755 117.229C198.754 117.244 198.752 117.259 198.751 117.275C198.108 125.178 196.246 132.897 193.217 140.221C192.288 142.519 191.242 144.776 190.022 147.12C188.974 149.125 187.833 151.06 186.531 153.04C184.948 155.568 183.13 158.058 181.129 160.445C179.669 162.241 178.152 163.845 176.728 165.312C176.722 165.319 176.715 165.325 176.708 165.332C169.705 172.475 161.29 178.188 151.698 182.312C149.487 183.259 147.539 184.005 145.738 184.593C144.462 185.03 143.24 185.357 142.059 185.675C141.949 185.705 141.839 185.734 141.728 185.764C141.373 185.918 141.003 186.034 140.622 186.11C140.43 186.149 140.236 186.184 140.045 186.216C139.405 186.398 138.798 186.536 138.231 186.657C137.067 186.906 135.689 187.193 134.294 187.434C134.226 187.446 134.156 187.456 134.087 187.466C133.852 187.498 133.579 187.543 133.291 187.59C132.946 187.647 132.555 187.713 132.141 187.768C130.79 187.949 129.474 188.082 128.2 188.208C127.472 188.312 126.769 188.363 126.143 188.407C126.137 188.407 126.13 188.407 126.124 188.408C123.833 188.564 121.887 188.637 120.001 188.637C119.985 188.637 39.1002 187.901 39.0925 187.901V187.902Z" fill="white"/>
<path d="M120.347 36.8578C130.764 36.8578 140.491 38.8467 149.525 42.6937C158.474 46.6275 166.255 51.8147 172.782 58.385C176.197 61.7999 179.31 65.5172 181.903 69.6236C184.324 73.298 186.399 77.2747 188.128 81.5109C191.327 89.1619 193.1 97.2022 193.532 105.719C193.575 107.059 193.619 108.399 193.619 109.825C193.619 111.9 193.532 114.018 193.359 116.05C193.359 116.31 193.273 116.525 193.273 116.828C192.668 124.264 190.938 131.353 188.128 138.14C187.22 140.389 186.226 142.506 185.145 144.582C184.152 146.484 183.071 148.299 181.903 150.071C180.39 152.492 178.705 154.784 176.889 156.945C175.591 158.545 174.208 160.014 172.782 161.484C166.255 168.141 158.474 173.415 149.525 177.262C147.71 178.04 145.851 178.775 143.992 179.381C142.609 179.856 141.226 180.202 139.799 180.591C139.712 180.634 139.626 180.678 139.539 180.721C139.323 180.764 139.064 180.807 138.805 180.851C138.243 181.023 137.681 181.153 137.075 181.283C135.865 181.542 134.611 181.802 133.358 182.017C132.709 182.104 132.062 182.234 131.413 182.319C130.117 182.492 128.82 182.622 127.522 182.752C126.96 182.838 126.356 182.881 125.75 182.924C123.848 183.054 121.946 183.141 120.001 183.141L39.1648 182.406L29.294 182.277C26.873 182.277 25.7922 179.77 26.7004 177.998C26.7872 177.781 26.917 177.608 27.0896 177.436C27.3062 177.263 27.5217 177.089 27.6943 176.961C27.9109 176.788 28.0406 176.701 28.1264 176.658C38.6745 171.816 39.8564 170.001 56.2822 161.312C59.6113 159.583 60.735 155.347 58.746 152.191L57.4058 150.117C55.2872 146.874 53.4291 143.373 51.8723 139.655C51.1378 137.97 50.4892 136.24 49.9702 134.511C49.1918 132.263 48.5871 129.972 48.0682 127.637C47.8956 126.989 47.7658 126.341 47.6361 125.692C47.2469 123.747 46.9017 121.716 46.6851 119.684C46.6422 119.337 46.5553 119.035 46.5125 118.69V118.473C46.2959 116.269 46.1233 114.064 46.0804 111.773C46.0375 111.125 46.0375 110.477 46.0375 109.828C46.0375 99.8431 48.0264 90.3757 51.8734 81.5142C53.8183 77.0614 56.1535 72.8681 58.8329 69.0211C61.4694 65.217 64.4093 61.6295 67.7374 58.3872C74.3945 51.8169 82.2182 46.6286 91.1666 42.6959C98.8177 39.4536 106.902 37.5087 115.547 37.0326C116.93 36.9029 118.313 36.86 119.74 36.86H120.346M120.346 25.8655H119.74C117.876 25.8655 116.279 25.9292 114.739 26.0667C109.912 26.3437 105.114 27.0353 100.476 28.1227C95.8789 29.2001 91.3041 30.6976 86.8777 32.5732C86.8326 32.5919 86.7875 32.6117 86.7425 32.6315C81.6751 34.859 76.8782 37.4768 72.4859 40.4112C68.0067 43.4039 63.8189 46.8111 60.0379 50.5393C56.4141 54.0719 52.9717 58.1783 49.8064 62.7443C46.7247 67.1696 44.0299 72.0039 41.798 77.1131C41.7947 77.1208 41.7914 77.1284 41.7881 77.1361C37.3123 87.4457 35.043 98.4446 35.043 109.828C35.043 110.499 35.043 111.317 35.0936 112.219C35.1507 114.804 35.3464 117.194 35.5257 119.074C35.5366 119.401 35.563 119.729 35.6037 120.055C35.6653 120.547 35.74 120.948 35.7939 121.221C36.0226 123.251 36.3711 125.424 36.856 127.848L36.8582 127.86C36.9912 128.526 37.1539 129.341 37.3815 130.226C38.0181 133.062 38.7152 135.574 39.5079 137.893C40.1148 139.88 40.8723 141.923 41.7617 143.973C43.2097 147.423 44.904 150.756 46.8104 153.914C41.665 156.708 38.2743 158.696 35.4344 160.36C31.428 162.709 28.7816 164.26 23.5394 166.665C23.4273 166.717 23.3163 166.77 23.2063 166.825C22.2322 167.312 21.4736 167.864 20.9579 168.27C20.704 168.464 20.4599 168.659 20.2411 168.834L20.2213 168.85C19.9058 169.102 19.6045 169.371 19.3198 169.657C18.2192 170.757 17.3473 172.006 16.7218 173.378C15.7454 175.441 15.2903 177.731 15.4024 180.029C15.5168 182.378 16.2226 184.674 17.4441 186.672C19.9541 190.779 24.342 193.24 29.195 193.273L39.0186 193.402C39.0329 193.402 39.0483 193.402 39.0637 193.402L119.9 194.136C119.933 194.136 119.967 194.136 120 194.136C122.013 194.136 124.076 194.059 126.496 193.894C126.508 193.894 126.522 193.892 126.534 193.892C127.187 193.845 127.983 193.789 128.854 193.669C130.139 193.54 131.466 193.405 132.865 193.218C133.368 193.151 133.825 193.075 134.194 193.014C134.437 192.973 134.665 192.935 134.814 192.916C134.952 192.897 135.09 192.876 135.227 192.852C136.722 192.594 138.166 192.294 139.381 192.033C139.936 191.914 140.57 191.771 141.255 191.586C141.398 191.56 141.547 191.532 141.7 191.501C142.305 191.38 142.9 191.207 143.476 190.986C143.476 190.986 143.478 190.986 143.48 190.986C144.681 190.664 146.04 190.299 147.479 189.809C149.429 189.171 151.515 188.373 153.858 187.369C153.863 187.367 153.866 187.366 153.87 187.365C164.123 182.957 173.127 176.84 180.634 169.183C180.648 169.17 180.661 169.157 180.673 169.144C182.176 167.595 183.784 165.895 185.37 163.947C187.509 161.394 189.455 158.725 191.158 156.012C192.548 153.895 193.77 151.822 194.89 149.678C194.892 149.672 194.895 149.668 194.898 149.662C196.197 147.168 197.311 144.761 198.305 142.307C201.529 134.507 203.518 126.287 204.22 117.874C204.268 117.549 204.312 117.17 204.336 116.739C204.521 114.484 204.615 112.16 204.615 109.828C204.615 108.226 204.567 106.775 204.522 105.371C204.52 105.303 204.517 105.231 204.513 105.164C204.266 100.296 203.623 95.4981 202.6 90.9057C201.568 86.2682 200.12 81.6989 198.293 77.322C196.304 72.4547 193.898 67.8612 191.144 63.6668C188.273 59.137 184.812 54.869 180.566 50.6218C176.838 46.8716 172.678 43.4424 168.2 40.4299C163.828 37.4889 159.034 34.8645 153.952 32.6304C153.913 32.6128 153.874 32.5963 153.835 32.5798C143.371 28.1227 132.104 25.8633 120.347 25.8633L120.346 25.8655Z" fill="white"/>
<path d="M117.057 109.015C117.062 110.111 117.071 111.207 117.071 112.303C117.073 117.397 117.072 122.492 117.072 127.585C117.072 128.634 116.01 129.709 114.954 129.801C113.252 129.948 112.199 128.514 112.204 127.195C112.224 121.157 112.212 115.118 112.217 109.078C112.217 108.889 112.129 108.667 112.337 108.518C112.768 108.547 113.199 108.576 113.628 108.606C114.132 108.656 114.636 108.707 115.139 108.757C115.778 108.843 116.417 108.929 117.055 109.016L117.057 109.015Z" fill="#B32337"/>
<path d="M125.156 110.44C125.163 111.67 125.174 112.899 125.175 114.129C125.177 118.528 125.176 122.927 125.175 127.326C125.175 128.698 124.136 129.716 122.846 129.811C121.429 129.914 120.29 128.455 120.294 127.306C120.32 121.559 120.305 115.812 120.308 110.065C120.308 109.88 120.331 109.696 120.344 109.512C120.918 109.735 121.521 109.813 122.126 109.891C122.567 109.971 123.008 110.052 123.45 110.132C124.016 110.248 124.574 110.417 125.156 110.44Z" fill="#B32337"/>
<path d="M108.962 108.423C109.15 108.584 109.074 108.803 109.067 108.993C108.961 111.802 107.866 114.103 105.504 115.7C102.625 117.643 98.6211 117.304 96.0242 114.994C94.5652 113.696 93.7329 112.09 93.3976 110.199C93.3481 109.921 93.3877 109.628 93.3855 109.341C94.5762 109.256 95.7416 108.991 96.9224 108.833C96.8916 110.186 97.3556 111.328 98.3605 112.245C100.696 114.376 104.044 113.345 105.138 110.679C105.489 109.824 105.445 108.947 105.385 108.061C106.401 108.172 107.42 108.09 108.437 108.101C108.705 108.105 108.882 108.163 108.965 108.424L108.962 108.423Z" fill="#B32337"/>
<path d="M141.131 113.358C141.144 113.541 141.168 113.726 141.17 113.91C141.172 116.201 141.172 118.493 141.171 120.784C141.171 122.132 140.356 123.127 139.037 123.398C137.847 123.642 136.312 122.435 136.308 121.217C136.298 118.369 136.311 115.521 136.315 112.674C136.746 112.764 137.179 112.854 137.611 112.944C138.088 113.018 138.565 113.092 139.042 113.166C139.736 113.258 140.424 113.415 141.132 113.358H141.131Z" fill="#B32337"/>
<path d="M133.236 112.245C133.27 113.335 133.399 114.434 133.166 115.51C132.918 116.659 131.704 117.475 130.547 117.337C129.378 117.199 128.404 116.101 128.409 114.913C128.413 113.751 128.428 112.59 128.438 111.428C128.967 111.52 129.496 111.614 130.024 111.706C130.458 111.784 130.891 111.862 131.326 111.939C131.962 112.04 132.579 112.266 133.235 112.244L133.236 112.245Z" fill="#B32337"/>
<path d="M115.162 88.5231C114.62 88.412 114.1 88.456 113.613 88.7386C112.732 89.1828 112.298 89.9062 112.297 90.8847C112.294 96.5952 112.295 102.305 112.297 108.015C112.297 108.182 112.323 108.349 112.338 108.515C112.769 108.545 113.2 108.574 113.63 108.603C114.133 108.654 114.637 108.705 115.14 108.755C115.779 108.841 116.418 108.927 117.057 109.014C117.06 108.979 117.066 108.946 117.066 108.912C117.069 102.856 117.075 96.7986 117.066 90.7407C117.065 89.6005 116.323 88.7716 115.162 88.5231Z" fill="#EA1E44"/>
<path d="M141.12 98.3264C141.12 97.8041 141.129 97.2786 141.074 96.7608C140.962 95.7218 140.065 94.8609 139.043 94.7598C138.458 94.7378 137.87 94.6993 137.397 95.149C136.654 95.603 136.317 96.3001 136.316 97.1357C136.306 102.314 136.315 107.494 136.317 112.672C136.749 112.762 137.18 112.852 137.612 112.941C138.089 113.015 138.566 113.089 139.043 113.163C139.737 113.255 140.425 113.412 141.133 113.355C141.13 108.345 141.128 103.335 141.121 98.3253L141.12 98.3264Z" fill="#EA1E44"/>
<path d="M125.154 90.9621C125.154 89.7582 124.623 88.9853 123.551 88.6059C123.08 88.4443 122.608 88.3959 122.134 88.5862C121.111 88.8269 120.381 89.7351 120.367 90.8169C120.352 91.8944 120.358 92.973 120.357 94.0504C120.352 99.2046 120.349 104.358 120.345 109.512C120.919 109.735 121.522 109.813 122.127 109.891C122.568 109.972 123.009 110.052 123.451 110.132C124.017 110.249 124.574 110.417 125.157 110.44C125.157 110.322 125.155 110.204 125.155 110.086C125.155 103.711 125.155 97.3367 125.155 90.9621H125.154Z" fill="#EA1E44"/>
<path d="M103.41 101.626C101.841 101.157 100.287 101.207 98.7473 101.759C95.7359 102.714 93.2127 105.781 93.3853 109.341C94.576 109.255 95.7414 108.99 96.9222 108.833C97.0971 107.665 97.6237 106.678 98.4494 105.841C98.567 105.721 98.6814 105.604 98.8485 105.556C100.287 104.666 101.772 104.61 103.3 105.303C104.336 105.965 105.113 106.821 105.385 108.06C106.401 108.171 107.42 108.089 108.437 108.099C108.705 108.103 108.882 108.161 108.965 108.423C109.049 107.75 108.881 107.109 108.659 106.492C107.751 103.971 106.018 102.323 103.411 101.625L103.41 101.626Z" fill="#EA1E44"/>
<path d="M133.225 111.688C133.225 108.926 133.229 106.164 133.223 103.403C133.219 102.144 132.567 101.292 131.448 101.044C130.927 100.861 130.421 100.906 129.93 101.15C128.993 101.531 128.454 102.252 128.441 103.235C128.404 105.965 128.435 108.696 128.438 111.426C128.967 111.519 129.496 111.612 130.023 111.704C130.458 111.783 130.891 111.861 131.325 111.938C131.962 112.039 132.578 112.264 133.235 112.242C133.231 112.057 133.225 111.872 133.225 111.687V111.688Z" fill="#EA1E44"/>
<path d="M193.532 105.719C193.1 97.2041 191.328 89.1638 188.128 81.5116C186.399 77.2754 184.324 73.2987 181.903 69.6243C179.31 65.5179 176.197 61.8006 172.782 58.3847C166.255 51.8143 158.474 46.626 149.526 42.6933C140.491 38.8463 130.764 36.8574 120.347 36.8574H119.741C118.314 36.8574 116.931 36.9003 115.548 37.03C106.902 37.505 98.8189 39.451 91.1678 42.6933C82.2194 46.6271 74.3957 51.8143 67.7385 58.3847C64.4094 61.6269 61.4705 65.2144 58.834 69.0185C56.1536 72.8655 53.8195 77.0588 51.8745 81.5116C48.0275 90.3732 46.0386 99.8405 46.0386 109.826C46.0386 110.474 46.0386 111.122 46.0815 111.771C46.1244 114.062 46.2981 116.266 46.5136 118.471V118.687C46.5565 119.034 46.6433 119.336 46.6862 119.681C46.9028 121.713 47.248 123.745 47.6372 125.69C47.767 126.338 47.8967 126.987 48.0693 127.635C48.5883 129.969 49.193 132.26 49.9714 134.508C50.4903 136.238 51.139 137.966 51.8734 139.653C53.4302 143.37 55.2883 146.872 57.407 150.114L58.7472 152.189C60.7361 155.344 59.6114 159.58 56.2833 161.31C39.8564 169.999 38.6745 171.814 28.1275 176.656C28.0406 176.699 27.9109 176.786 27.6954 176.958C27.5228 177.088 27.3062 177.261 27.0907 177.433C26.9181 177.606 26.7884 177.779 26.7015 177.995C25.7934 179.767 26.8741 182.274 29.2951 182.274L39.166 182.404L120.002 183.138C121.947 183.138 123.849 183.051 125.751 182.922C126.357 182.879 126.961 182.835 127.523 182.749C128.821 182.619 130.117 182.49 131.414 182.317C132.063 182.23 132.711 182.1 133.359 182.015C134.613 181.798 135.866 181.54 137.076 181.28C137.682 181.15 138.244 181.021 138.806 180.848C139.065 180.805 139.325 180.762 139.54 180.718C139.627 180.675 139.713 180.631 139.8 180.589C141.227 180.199 142.61 179.854 143.993 179.378C145.852 178.772 147.711 178.038 149.527 177.259C158.475 173.412 166.256 168.138 172.783 161.481C174.21 160.011 175.593 158.541 176.89 156.943C178.705 154.781 180.391 152.49 181.904 150.069C183.072 148.297 184.153 146.481 185.147 144.579C186.227 142.505 187.221 140.386 188.129 138.138C190.94 131.351 192.668 124.262 193.274 116.826C193.274 116.524 193.361 116.307 193.361 116.048C193.533 114.016 193.62 111.897 193.62 109.822C193.62 108.395 193.577 107.056 193.533 105.716L193.532 105.719ZM164.354 117.693C164.137 119.12 163.835 120.46 163.446 121.8C162.884 123.832 162.149 125.734 161.371 127.636L161.328 127.679C160.896 128.673 160.42 129.624 159.902 130.532C157.654 134.811 154.888 138.615 151.473 141.987C149.181 144.278 146.718 146.266 143.994 147.995C141.833 149.378 139.499 150.589 137.035 151.627C131.415 154.005 125.537 155.171 119.354 155.171C116.891 155.171 114.512 154.999 112.178 154.653C108.591 154.047 105.176 153.053 101.89 151.627C96.4001 149.336 91.6449 146.093 87.5385 141.987C87.4956 141.944 87.4527 141.9 87.4088 141.857C87.0196 141.468 86.5875 140.993 86.328 140.604C86.1114 140.387 85.8959 140.129 85.6793 139.869C84.7712 138.918 83.9939 137.924 83.2583 136.929C81.2705 134.336 79.6269 131.57 78.2877 128.63C78.1151 128.327 77.9854 128.024 77.8556 127.679C77.207 126.166 76.6891 124.609 76.2559 123.053C76.1262 122.578 75.9965 122.145 75.8667 121.67C75.5644 120.46 75.3049 119.249 75.0883 117.996C74.7431 115.964 74.5265 113.889 74.4396 111.771C74.3968 111.252 74.3968 110.69 74.3968 110.171C74.3968 103.946 75.5644 98.0671 77.8545 92.5336C79.9292 87.6059 82.7394 83.1531 86.2411 79.4358C86.6304 78.9169 87.1053 78.4848 87.5374 78.0087C91.6438 73.9452 96.399 70.7029 101.889 68.3259C106.903 66.2072 112.263 65.0407 117.969 64.911C118.444 64.8681 118.877 64.8681 119.352 64.8681C123.761 64.8681 128.041 65.4728 132.148 66.6404C133.79 67.1154 135.433 67.6783 137.032 68.3259C142.566 70.7029 147.364 73.9452 151.47 78.0087C155.62 82.1152 158.862 86.9572 161.326 92.5336C162.494 95.214 163.445 98.0231 164.006 100.876C164.698 103.902 165 106.972 165 110.17C165 112.721 164.784 115.227 164.352 117.691L164.354 117.693Z" fill="#393737"/>
</g>
<defs>
<clipPath id="clip0_258_7920">
<rect width="189.225" height="168.272" fill="white" transform="translate(15.3872 25.8633)"/>
</clipPath>
</defs>
</svg>
