<svg width="212" height="39" viewBox="0 0 212 39" fill="none" xmlns="http://www.w3.org/2000/svg">
<path d="M42.9355 18.1576C42.8273 16.0327 42.3845 14.0268 41.5856 12.1182C41.1658 11.0814 40.6457 10.088 40.0328 9.15208C39.3798 8.13594 38.6157 7.19551 37.7546 6.34813C36.1243 4.7088 34.1823 3.41442 31.9464 2.43309C29.6883 1.47339 27.2591 0.977051 24.6568 0.977051H24.5057C23.0067 0.985758 21.5141 1.1751 20.0604 1.54098C21.3633 3.57023 22.4173 5.74856 23.1997 8.0291C23.4801 7.99665 23.7718 7.98584 24.063 7.97503C24.1821 7.96421 24.2898 7.96422 24.4089 7.96422C25.897 7.95055 27.3728 8.23348 28.7502 8.79645C30.1275 9.35941 31.3786 10.1911 32.4303 11.2429C33.4668 12.2675 34.2765 13.4753 34.8919 14.8654C35.1896 15.5342 35.4141 16.2332 35.5614 16.9503C35.732 17.711 35.8157 18.4886 35.811 19.2681C35.8116 19.8972 35.7572 20.5252 35.6486 21.1448C35.5962 21.491 35.5206 21.8333 35.4223 22.1694C35.2786 22.6646 35.1054 23.1508 34.9038 23.6255L34.893 23.6363C34.7873 23.8798 34.6685 24.1173 34.5368 24.3478C33.9882 25.4041 33.2778 26.3684 32.4314 27.2058C31.8654 27.7733 31.238 28.2762 30.5608 28.7051C30.0083 29.0559 29.4268 29.3591 28.8228 29.6113C27.426 30.2014 25.9238 30.5022 24.4072 30.4953C23.7998 30.4985 23.1932 30.4516 22.5935 30.3553C21.5625 32.8762 20.2048 35.2511 18.5552 37.4192L24.5691 37.4733C25.0562 37.4733 25.5298 37.4516 26.005 37.4192C26.156 37.4084 26.307 37.3976 26.4478 37.3759C26.7725 37.344 27.0973 37.3116 27.4193 37.2678C27.5817 37.2462 27.7441 37.2137 27.9065 37.1921C28.2198 37.138 28.5327 37.0737 28.8352 37.0088C28.9863 36.9764 29.1264 36.9439 29.2683 36.9007C29.3327 36.8899 29.3976 36.8791 29.4517 36.8682L29.5161 36.8358C29.8728 36.7385 30.2198 36.6525 30.5635 36.5336C31.0279 36.3827 31.4923 36.1994 31.9458 36.0053C34.1807 35.0456 36.1238 33.7296 37.7541 32.0687C38.1102 31.7021 38.4577 31.3355 38.7825 30.9365C39.2389 30.3955 39.6567 29.8232 40.0328 29.2236C40.3263 28.7811 40.5973 28.324 40.8446 27.8541C41.1153 27.3367 41.3626 26.8079 41.5894 26.2472C42.2939 24.553 42.7275 22.7588 42.8743 20.9302C42.8743 20.855 42.896 20.801 42.896 20.7361C42.9393 20.2295 42.9609 19.7007 42.9609 19.1833C42.9555 18.8264 42.9463 18.4917 42.9355 18.1576Z" fill="#383637"/>
<path d="M108.533 0.405273H108.405C107.957 0.405273 107.593 0.768377 107.593 1.21629V37.2151C107.593 37.663 107.957 38.0261 108.405 38.0261H108.533C108.982 38.0261 109.345 37.663 109.345 37.2151V1.21629C109.345 0.768377 108.982 0.405273 108.533 0.405273Z" fill="#383637"/>
<path d="M23.7077 18.581C23.6475 18.5809 23.5875 18.5734 23.5291 18.5588L18.6524 17.3077C18.5388 17.2809 18.4347 17.2236 18.3512 17.142C18.2678 17.0605 18.2082 16.9577 18.1788 16.8449C18.153 16.7391 18.1572 16.6283 18.1907 16.5247C18.2242 16.4211 18.2859 16.3289 18.3688 16.2582L21.9119 13.078C22.0031 12.9992 22.1126 12.9447 22.2305 12.9194C22.3484 12.894 22.4707 12.8988 22.5863 12.9331C22.6917 12.9611 22.7883 13.0155 22.8668 13.0912C22.9453 13.1669 23.0032 13.2614 23.035 13.3656L23.7835 15.8608L24.361 17.7905C24.3911 17.8909 24.3937 17.9975 24.3686 18.0993C24.3435 18.201 24.2915 18.2942 24.2181 18.369C24.1518 18.437 24.0724 18.4908 23.9847 18.5272C23.8969 18.5636 23.8027 18.5819 23.7077 18.581ZM23.5946 18.2966C23.6697 18.3165 23.7488 18.3162 23.8238 18.2958C23.8988 18.2754 23.967 18.2355 24.0217 18.1803C24.0621 18.1401 24.0909 18.0896 24.1049 18.0343C24.1189 17.9789 24.1176 17.9209 24.1012 17.8662L23.5237 15.9365L22.7746 13.4397C22.7557 13.3792 22.7214 13.3247 22.6751 13.2814C22.6288 13.2381 22.5721 13.2075 22.5105 13.1926C22.4389 13.171 22.3631 13.1676 22.2899 13.1828C22.2167 13.198 22.1485 13.2313 22.0916 13.2797L18.5485 16.4599C18.502 16.4978 18.4672 16.5481 18.448 16.6049C18.4289 16.6617 18.4262 16.7228 18.4402 16.7811C18.4576 16.8463 18.4927 16.9056 18.5416 16.9522C18.5905 16.9989 18.6513 17.0311 18.7174 17.0455L23.5946 18.2966Z" fill="#ED1E2F"/>
<path d="M25.2925 18.5332C25.1941 18.5335 25.0968 18.5131 25.0069 18.4732C24.9169 18.4333 24.8365 18.3749 24.7708 18.3018C24.7012 18.2247 24.6535 18.1305 24.6326 18.0289C24.6116 17.9273 24.6182 17.822 24.6517 17.7238L26.0698 13.3946C26.1062 13.2909 26.1682 13.1981 26.25 13.1247C26.3319 13.0512 26.4309 12.9996 26.538 12.9745C26.653 12.9439 26.7738 12.9428 26.8894 12.9711C27.005 12.9995 27.1116 13.0564 27.1994 13.1367L30.7132 16.4402C30.7948 16.5143 30.8543 16.6096 30.8849 16.7155C30.9154 16.8214 30.916 16.9337 30.8864 17.0398C30.8517 17.1534 30.7865 17.2554 30.6979 17.3345C30.6092 17.4136 30.5005 17.4669 30.3836 17.4886L27.1967 18.1504L25.4435 18.518C25.3938 18.5281 25.3432 18.5332 25.2925 18.5332ZM26.7193 13.2194C26.6802 13.2195 26.6413 13.2244 26.6034 13.234C26.5402 13.2476 26.4814 13.2771 26.4328 13.3198C26.3842 13.3625 26.3474 13.4169 26.3258 13.4778L24.9077 17.8081C24.8889 17.8613 24.885 17.9187 24.8965 17.9739C24.9079 18.0292 24.9343 18.0803 24.9726 18.1217C25.0248 18.178 25.0909 18.2196 25.1642 18.2423C25.2376 18.2649 25.3156 18.2679 25.3905 18.2509L27.1398 17.8838L30.3278 17.222C30.3964 17.2108 30.4605 17.1807 30.513 17.1351C30.5655 17.0896 30.6042 17.0304 30.625 16.9641C30.641 16.9056 30.6402 16.8438 30.6228 16.7857C30.6054 16.7276 30.572 16.6755 30.5265 16.6354L27.0137 13.3324C26.9333 13.2591 26.8282 13.2187 26.7193 13.2194Z" fill="#ED1E2F"/>
<path d="M22.4019 24.4436C22.231 24.4442 22.0659 24.3821 21.938 24.269L18.37 21.105C18.2869 21.0338 18.225 20.941 18.1912 20.837C18.1574 20.7329 18.153 20.6215 18.1784 20.5151C18.2075 20.4021 18.2673 20.2993 18.3513 20.2181C18.4353 20.137 18.5401 20.0807 18.6542 20.0555L21.8092 19.2272L23.5217 18.7822C23.6435 18.7506 23.7714 18.7517 23.8926 18.7854C24.0138 18.8191 24.1239 18.8842 24.2118 18.9742C24.285 19.049 24.3369 19.1421 24.362 19.2437C24.3871 19.3453 24.3846 19.4518 24.3547 19.5521L23.9249 21.0087L23.053 23.9825C23.0213 24.0865 22.9637 24.1808 22.8855 24.2565C22.8073 24.3322 22.7111 24.3867 22.6059 24.415C22.5396 24.4341 22.4709 24.4438 22.4019 24.4436ZM23.7036 19.0304C23.6651 19.0306 23.6267 19.0353 23.5894 19.0445L21.8779 19.4911L18.7213 20.3194C18.655 20.333 18.5937 20.3647 18.5443 20.411C18.4949 20.4573 18.4593 20.5163 18.4415 20.5816C18.427 20.6404 18.4295 20.702 18.4487 20.7594C18.4679 20.8168 18.5029 20.8676 18.5497 20.906L22.1177 24.07C22.1739 24.1182 22.2413 24.1515 22.3138 24.1668C22.3862 24.1821 22.4614 24.179 22.5323 24.1576C22.5935 24.1425 22.6498 24.1118 22.6958 24.0686C22.7418 24.0255 22.7759 23.9712 22.7948 23.9111L23.6668 20.9374L24.0971 19.4775C24.1135 19.4229 24.1148 19.3648 24.1008 19.3095C24.0868 19.2541 24.058 19.2037 24.0175 19.1634C23.9769 19.1212 23.9282 19.0876 23.8742 19.0647C23.8202 19.0419 23.7622 19.0302 23.7036 19.0304Z" fill="#ED1E2F"/>
<path d="M31.0576 24.318C31.0899 24.3512 31.1148 24.3908 31.1309 24.4342C31.1469 24.4776 31.1537 24.5238 31.1508 24.57C31.1479 24.6162 31.1353 24.6613 31.114 24.7023C31.0926 24.7434 31.0629 24.7795 31.0267 24.8084L30.4205 25.3307C30.3473 25.3946 30.2526 25.4285 30.1554 25.4255C30.0582 25.4225 29.9657 25.3828 29.8966 25.3145L28.6084 23.979L27.9513 25.0063C27.7181 25.4323 27.1292 25.1685 26.9852 24.7997L25.2662 20.3694L24.9414 19.5368C24.8332 19.2692 25.1368 19.0107 25.4107 19.1335L26.2734 19.5206L30.781 21.5362C31.1599 21.7076 31.4078 22.2494 30.9115 22.4624L29.7672 22.9852L31.0576 24.318Z" fill="#383637"/>
<path d="M100.439 1.89102H95.1119C94.9157 1.89279 94.7273 1.96861 94.5847 2.10328C94.442 2.23795 94.3556 2.42151 94.3428 2.61715L94.2448 4.05589L94.2032 4.64253C94.1911 4.79428 94.1349 4.93919 94.0413 5.05936C93.9477 5.17952 93.821 5.26968 93.6767 5.31868C93.5324 5.36768 93.3769 5.37338 93.2294 5.33509C93.0819 5.29679 92.9489 5.21617 92.8468 5.10318L92.8051 5.06155C92.1897 4.39111 91.393 3.74879 90.3862 3.1481C89.3936 2.53335 88.205 2.017 86.8069 1.61149C86.625 1.55743 86.4432 1.51417 86.2618 1.472C85.031 1.13678 83.6887 0.98539 82.2349 0.98539C81.0899 0.982967 79.9476 1.09527 78.825 1.32061C77.5767 1.56472 76.3613 1.95377 75.2035 2.47982C74.4866 2.79456 73.7949 3.16347 73.1342 3.58334C71.7798 4.40014 70.5346 5.38517 69.4283 6.51489C67.7547 8.21657 66.4136 10.2152 65.4738 12.4083C64.718 14.1463 64.2506 15.9956 64.0898 17.8837C64.0482 18.4563 64.02 19.0289 64.02 19.6014V19.6155C64.02 19.8107 64.02 19.994 64.0341 20.1881C64.0811 22.3322 64.5415 24.4471 65.3899 26.4172C66.2761 28.5413 67.5624 30.4757 69.1787 32.1154C70.2946 33.2421 71.5602 34.2103 72.9399 34.9929C73.1353 35.1042 73.3453 35.2302 73.5548 35.3281C74.0024 35.5795 74.4749 35.8028 74.9528 36.012C77.2041 36.9899 79.6603 37.4789 82.3215 37.4789C84.0409 37.4789 85.5649 37.2834 86.8935 36.8923C88.2358 36.5008 89.3833 36.0542 90.3467 35.5233C90.4121 35.4946 90.4733 35.4571 90.5286 35.4119C91.2598 35.0153 91.9405 34.5323 92.5561 33.9731C92.6102 33.9191 92.6682 33.8753 92.7239 33.8196C92.7239 33.8055 92.738 33.8055 92.738 33.7915C93.2251 33.3168 94.0521 33.652 94.0521 34.3365V35.8736C94.0547 36.0789 94.1384 36.2749 94.285 36.4188C94.4316 36.5628 94.6293 36.6429 94.8348 36.6419H100.439C100.525 36.6428 100.61 36.6285 100.691 36.5998C100.84 36.5451 100.97 36.4464 101.062 36.3168C101.154 36.1872 101.205 36.0327 101.208 35.8736V2.67609C101.21 2.4702 101.13 2.27196 100.986 2.12481C100.842 1.97766 100.645 1.89359 100.439 1.89102ZM93.2246 23.637C93.029 24.0975 92.8048 24.5453 92.5534 24.9779C92.0872 25.7955 91.5134 26.5471 90.8474 27.2125C89.8004 28.2512 88.5545 29.0682 87.1841 29.6148C86.9751 29.7038 86.7603 29.7785 86.5411 29.8386C85.8992 30.0763 85.2336 30.2449 84.5558 30.3414C83.9869 30.4306 83.4121 30.4773 82.8362 30.4809C82.7482 30.4926 82.6593 30.4973 82.5705 30.495C81.1724 30.495 79.8718 30.2852 78.6837 29.8662C78.4501 29.7972 78.2212 29.7132 77.9985 29.6148C76.6594 29.0751 75.4423 28.2726 74.4192 27.2547C73.4124 26.249 72.6292 25.0617 72.042 23.6792C71.6055 22.6483 71.3366 21.5545 71.2452 20.4389C71.2312 20.2713 71.2171 20.0897 71.203 19.908C71.18 19.6667 71.1708 19.4242 71.1754 19.1819C71.1705 18.2166 71.2832 17.2543 71.511 16.3163C71.6437 15.7763 71.8213 15.2484 72.042 14.738C72.6292 13.3863 73.4124 12.1969 74.4192 11.2047C75.3256 10.2965 76.392 9.56335 77.5649 9.04201C77.7036 8.96094 77.8484 8.8908 77.998 8.83223C78.2208 8.73418 78.4497 8.65038 78.6832 8.58136C79.6436 8.25158 80.6458 8.05865 81.6601 8.00824C81.9535 7.98066 82.2614 7.96661 82.5689 7.96661C84.2327 7.96661 85.7704 8.25965 87.1825 8.83169C88.4133 9.34858 89.5175 10.0212 90.4544 10.8571C90.5914 10.966 90.722 11.0826 90.8457 11.2063C91.8728 12.2084 92.682 13.4112 93.2229 14.7397C93.5652 15.5823 93.8 16.4646 93.9217 17.3657C93.9759 17.7312 94.0086 18.0995 94.0197 18.4687C94.0431 18.7055 94.0525 18.9434 94.0478 19.1813C94.0521 20.7888 93.7702 22.2826 93.2251 23.637H93.2246Z" fill="#C2C7CF"/>
<path style="mix-blend-mode:multiply" opacity="0.52" d="M101.211 2.6762V35.8737C101.208 36.0328 101.157 36.1873 101.065 36.3169C100.972 36.4466 100.843 36.5452 100.693 36.5999C100.613 36.6286 100.527 36.6429 100.442 36.642H94.8347C94.6295 36.6425 94.4325 36.562 94.2863 36.4182C94.1402 36.2743 94.0568 36.0787 94.0542 35.8737V34.3361C94.0542 33.6516 93.2294 33.3163 92.7401 33.7911C92.7401 33.8051 92.726 33.8051 92.726 33.8192C92.6719 33.8732 92.6139 33.917 92.5582 33.9727C91.9426 34.5319 91.2619 35.0149 90.5307 35.4115C88.2441 34.1045 86.2199 32.3855 84.5606 30.3415C85.2384 30.245 85.9039 30.0764 86.5459 29.8387C86.7651 29.7787 86.9799 29.7039 87.1889 29.6149C88.5593 29.0683 89.8052 28.2513 90.8522 27.2126C91.5182 26.5472 92.092 25.7957 92.5582 24.978C92.8096 24.5455 93.0338 24.0976 93.2294 23.6372C93.7744 22.2828 94.0542 20.7883 94.0542 19.182C94.0589 18.9441 94.0495 18.7061 94.0261 18.4694C94.015 18.1001 93.9823 17.7318 93.9281 17.3664C93.8064 16.4652 93.5716 15.5829 93.2294 14.7403C92.6884 13.4119 91.8792 12.2091 90.8522 11.207C90.7284 11.0833 90.5978 10.9667 90.4608 10.8577C89.5239 10.0197 88.4198 9.34923 87.1889 8.83235C85.7768 8.25977 84.2391 7.96726 82.5753 7.96726C82.2678 7.96726 81.9599 7.98132 81.6665 8.0089C82.7681 5.55661 84.3298 3.33786 86.2672 1.47266C86.449 1.51483 86.6309 1.55646 86.8128 1.61215C88.2108 2.01766 89.3994 2.534 90.3921 3.14875C91.3988 3.74945 92.1956 4.39231 92.811 5.06221L92.8526 5.10384C92.9548 5.21683 93.0878 5.29745 93.2353 5.33574C93.3828 5.37404 93.5383 5.36834 93.6826 5.31933C93.8269 5.27033 93.9536 5.18018 94.0472 5.06002C94.1407 4.93985 94.197 4.79494 94.209 4.64318L94.2507 4.05655L94.3487 2.61781C94.3615 2.42217 94.4479 2.2386 94.5905 2.10393C94.7332 1.96926 94.9215 1.89344 95.1178 1.89168H100.441C100.647 1.89411 100.844 1.97804 100.988 2.12509C101.132 2.27214 101.212 2.47032 101.211 2.6762Z" fill="#9BA0A8"/>
<path d="M64.8248 30.7828C64.5174 30.3919 64.1959 29.9869 63.8603 29.582C63.5476 29.1951 63.1081 28.9311 62.6195 28.8365C62.1308 28.7419 61.6244 28.8229 61.1897 29.0651C60.6094 29.3754 60.0063 29.6415 59.3857 29.8609C58.1554 30.28 56.8272 30.4898 55.3875 30.4898C54.2828 30.4898 53.2343 30.3638 52.2552 30.0848C51.7617 29.9708 51.2798 29.8117 50.8155 29.6095C49.8722 29.2279 48.9872 28.7157 48.1866 28.0881C47.8397 27.8132 47.5083 27.5194 47.1939 27.2078C46.1705 26.1866 45.3624 24.9708 44.8173 23.6323C44.4359 22.7098 44.1954 21.7353 44.1039 20.7414V20.6873C44.024 20.1885 43.9867 19.6839 43.9924 19.1788C43.9924 18.8857 44.0059 18.5922 44.0341 18.3137C44.1039 17.0431 44.3556 15.8417 44.8173 14.7382C45.3764 13.3865 46.1596 12.197 47.1939 11.2049C47.518 10.8934 47.8588 10.5997 48.2147 10.3252C49.0136 9.71871 49.8866 9.21651 50.8128 8.83079C51.2775 8.63325 51.7594 8.47887 52.2525 8.36959C53.2316 8.09006 54.2801 7.96462 55.3848 7.96462C56.8245 7.96462 58.1527 8.17386 59.383 8.59289C60.0186 8.80277 60.6321 9.07441 61.2146 9.4039C61.6415 9.64496 62.1393 9.7294 62.6219 9.64261C63.1046 9.55583 63.5416 9.30328 63.8576 8.92865L65.661 6.79189C66.5141 5.78624 66.2483 4.23612 65.1019 3.57973C64.0552 2.98291 62.9609 2.47365 61.83 2.05719C61.2667 1.85437 60.6933 1.68058 60.1121 1.53652C59.2983 1.33401 58.4712 1.18947 57.6369 1.10398C56.8898 1.01926 56.1383 0.97738 55.3864 0.978539C52.8273 0.978539 50.4366 1.46515 48.1877 2.4308C45.9366 3.40888 43.9935 4.70759 42.3297 6.34151C41.4488 7.19186 40.6603 8.13282 39.9774 9.1487C39.3566 10.0873 38.8186 11.0779 38.3693 12.1094C37.6618 13.7349 37.2052 15.4582 37.0151 17.2205C36.9474 17.8699 36.9149 18.5226 36.9176 19.1756C36.9149 19.8006 36.9474 20.4254 37.0151 21.0468C37.0294 21.3136 37.0574 21.5794 37.099 21.8433C37.3194 23.361 37.7476 24.8414 38.3715 26.2427C38.8178 27.2798 39.3559 28.275 39.9795 29.2165C40.6609 30.2455 41.4482 31.2005 42.3286 32.0658C43.9924 33.7279 45.9355 35.0395 48.1866 36.0041C50.4377 36.9822 52.8284 37.471 55.3853 37.471C56.1328 37.4719 56.8797 37.4299 57.6223 37.345C58.4485 37.262 59.2666 37.1127 60.0688 36.8984C60.6231 36.7556 61.1693 36.583 61.705 36.3815C62.8411 35.967 63.9362 35.448 64.9764 34.8314C65.237 34.677 65.4616 34.4688 65.6352 34.2207C65.8088 33.9726 65.9273 33.6904 65.9829 33.3928C66.0385 33.0953 66.0299 32.7893 65.9576 32.4954C65.8853 32.2015 65.7509 31.9263 65.5636 31.6884C65.3141 31.3862 65.0765 31.0764 64.8248 30.7828Z" fill="#ED1C3C"/>
<g opacity="0.54">
<path d="M65.5701 31.6904C65.7574 31.9283 65.8917 32.2034 65.9641 32.4974C66.0364 32.7913 66.045 33.0973 65.9894 33.3948C65.9338 33.6924 65.8153 33.9746 65.6417 34.2227C65.4681 34.4708 65.2435 34.679 64.9828 34.8334C63.9427 35.45 62.8476 35.9689 61.7115 36.3835C61.1758 36.585 60.6296 36.7576 60.0753 36.9004C57.5866 36.3458 55.2425 35.2747 53.195 33.7565C51.1476 32.2383 49.4427 30.307 48.1909 28.0879C48.9915 28.7157 49.8765 29.2281 50.8198 29.6099C51.2841 29.812 51.7661 29.9711 52.2595 30.0852C53.2387 30.3641 54.2871 30.4901 55.3918 30.4901C56.8315 30.4901 58.1598 30.2803 59.39 29.8613C60.0106 29.6419 60.6137 29.3758 61.1941 29.0654C61.6288 28.8232 62.1351 28.7423 62.6238 28.8369C63.1124 28.9315 63.5519 29.1955 63.8646 29.5823C64.2002 29.9873 64.5217 30.3933 64.8291 30.7832C65.0808 31.0762 65.3184 31.386 65.5701 31.6904Z" fill="url(#paint0_linear_152_36576)" style="mix-blend-mode:multiply"/>
</g>
<g opacity="0.54">
<path d="M50.8192 8.82716C49.8931 9.21289 49.02 9.71509 48.2212 10.3216C49.4759 8.10558 51.1834 6.17813 53.2327 4.66452C55.2819 3.15091 57.6271 2.08502 60.1158 1.53613C60.6975 1.6789 61.2715 1.85143 61.8354 2.05302C62.9662 2.46948 64.0606 2.97874 65.1073 3.57557C66.2537 4.23195 66.5194 5.78207 65.6664 6.78773L63.863 8.92448C63.547 9.29911 63.1099 9.55166 62.6273 9.63844C62.1447 9.72523 61.6469 9.64079 61.22 9.39973C60.6375 9.07024 60.024 8.7986 59.3884 8.58872C58.1581 8.16969 56.8299 7.96045 55.3901 7.96045C54.2854 7.96045 53.237 8.08589 52.2579 8.36542C51.7652 8.47493 51.2836 8.6295 50.8192 8.82716Z" fill="url(#paint1_linear_152_36576)" style="mix-blend-mode:multiply"/>
</g>
<path d="M20.0366 29.6239C18.6949 29.066 17.4768 28.2487 16.4524 27.219L16.4199 27.1865C16.3206 27.0906 16.23 26.986 16.1493 26.874C16.0952 26.8199 16.0411 26.7551 15.9869 26.6907C15.7701 26.4592 15.5681 26.2141 15.3824 25.957C14.891 25.3162 14.4744 24.6214 14.1407 23.8862C14.0979 23.8105 14.0617 23.7313 14.0325 23.6494C13.8735 23.274 13.7399 22.8883 13.6325 22.4951C13.6005 22.3767 13.5681 22.2685 13.5356 22.1501C13.4598 21.8479 13.3954 21.5462 13.3413 21.231C13.2539 20.7174 13.1997 20.1987 13.1789 19.6782C13.1681 19.5489 13.1681 19.4078 13.1681 19.2791C13.1618 17.7696 13.4562 16.2739 14.0341 14.8791C14.5521 13.6496 15.2535 12.5385 16.1282 11.6113C16.2256 11.4815 16.3447 11.3739 16.453 11.255C17.4854 10.2328 18.7011 9.41364 20.0366 8.84029C21.0406 8.41509 22.1039 8.14595 23.1894 8.04225C22.4072 5.76026 21.3532 3.58048 20.0502 1.5498C19.1317 1.77666 18.2327 2.07606 17.3617 2.44517C15.1242 3.42757 13.1702 4.72195 11.5102 6.36129C10.6852 7.17218 9.94043 8.06066 9.28619 9.01439C8.60597 9.99386 8.02367 11.0377 7.54768 12.1308C6.57843 14.3598 6.08213 16.7652 6.09008 19.1953C6.09008 19.3575 6.09008 19.5197 6.1009 19.6819C6.11173 20.2534 6.15503 20.8038 6.20915 21.3537V21.4078C6.21998 21.4937 6.24163 21.57 6.25245 21.6554C6.30658 22.1626 6.39264 22.6692 6.48952 23.1547C6.522 23.3169 6.55447 23.4791 6.59778 23.6413C6.72285 24.2205 6.88116 24.792 7.07192 25.3531C7.20443 25.79 7.36294 26.2186 7.5466 26.6367C7.92695 27.5468 8.38966 28.4204 8.92897 29.2465L9.26346 29.7645C9.38114 29.952 9.45876 30.1617 9.49144 30.3806C9.52412 30.5995 9.51117 30.8227 9.45338 31.0364C9.39559 31.25 9.29423 31.4494 9.15564 31.6221C9.01706 31.7947 8.84425 31.9369 8.64805 32.0396C4.54533 34.2078 3.27122 34.6603 0.637464 35.8682C-0.085654 36.1926 0.141132 37.2707 0.929201 37.2707L18.5487 37.4329C20.1982 35.2647 21.5559 32.8898 22.587 30.3689C21.7083 30.2314 20.8511 29.981 20.0366 29.6239Z" fill="#2D2C2E"/>
<path d="M117.501 4.47739C118.019 4.47069 118.534 4.56243 119.017 4.74773C119.454 4.91605 119.849 5.17602 120.177 5.51009C120.507 5.85516 120.759 6.26608 120.918 6.7158C121.099 7.22646 121.188 7.76497 121.18 8.30647C121.188 8.85047 121.099 9.39155 120.918 9.90471C120.758 10.356 120.506 10.7691 120.177 11.1174C119.851 11.4554 119.455 11.7181 119.017 11.8874C118.037 12.2457 116.961 12.2457 115.981 11.8874C115.541 11.7185 115.142 11.4558 114.814 11.1174C114.483 10.7695 114.228 10.3565 114.065 9.90471C113.882 9.39209 113.792 8.85077 113.8 8.30647C113.792 7.76467 113.882 7.22591 114.065 6.7158C114.227 6.26562 114.482 5.85473 114.814 5.51009C115.144 5.17563 115.542 4.91568 115.981 4.74773C116.466 4.56255 116.982 4.47082 117.501 4.47739ZM117.501 10.7752C118.122 10.7752 118.581 10.567 118.879 10.1507C119.178 9.73439 119.327 9.12415 119.327 8.31998C119.327 7.51654 119.178 6.90377 118.879 6.48168C118.581 6.05959 118.122 5.84909 117.501 5.85017C116.871 5.85017 116.406 6.06194 116.105 6.48547C115.804 6.909 115.654 7.52032 115.655 8.31944C115.655 9.11856 115.805 9.72754 116.105 10.1464C116.405 10.5652 116.871 10.7748 117.501 10.7752Z" fill="#383637"/>
<path d="M122.455 12.0465V4.5938H123.554C123.787 4.5938 123.94 4.70284 124.012 4.92091L124.129 5.47294C124.256 5.33069 124.394 5.1972 124.539 5.07338C124.681 4.95341 124.835 4.84866 124.998 4.76087C125.164 4.67242 125.34 4.60313 125.521 4.55433C125.722 4.50157 125.928 4.47575 126.136 4.47756C126.605 4.47756 126.991 4.6048 127.296 4.85927C127.609 5.12962 127.844 5.47972 127.975 5.8725C128.084 5.63736 128.231 5.42234 128.412 5.23667C128.58 5.06453 128.774 4.91871 128.986 4.80413C129.196 4.69232 129.42 4.60921 129.652 4.55704C129.884 4.50416 130.122 4.47733 130.36 4.47702C130.735 4.47048 131.107 4.53468 131.458 4.66625C131.766 4.7845 132.042 4.97341 132.264 5.21774C132.49 5.47487 132.66 5.77682 132.762 6.10391C132.882 6.49187 132.939 6.89621 132.933 7.30205V12.0465H131.137V7.30313C131.137 6.82914 131.033 6.47211 130.824 6.23205C130.615 5.99199 130.31 5.87214 129.908 5.8725C129.732 5.87086 129.558 5.9028 129.395 5.96658C129.24 6.02765 129.099 6.11964 128.981 6.23692C128.857 6.36415 128.761 6.51641 128.701 6.68352C128.63 6.88152 128.595 7.09071 128.599 7.30097V12.0465H126.796V7.30313C126.796 6.80463 126.695 6.44147 126.494 6.21367C126.293 5.98586 125.996 5.87214 125.604 5.8725C125.35 5.87175 125.1 5.93816 124.88 6.06498C124.642 6.20357 124.429 6.38166 124.251 6.5916V12.0465H122.455Z" fill="#383637"/>
<path d="M134.563 12.0457V4.59299H135.661C135.894 4.59299 136.047 4.70203 136.12 4.9201L136.243 5.50836C136.391 5.35585 136.55 5.21503 136.719 5.08717C136.886 4.96294 137.063 4.85434 137.25 4.76276C137.441 4.66926 137.642 4.59867 137.85 4.55244C138.079 4.50207 138.313 4.47759 138.548 4.47945C138.92 4.47268 139.288 4.5432 139.631 4.68653C139.935 4.81698 140.205 5.0159 140.42 5.26776C140.638 5.53059 140.801 5.8345 140.9 6.16149C141.012 6.53219 141.067 6.91781 141.062 7.30503V12.0457H139.266V7.30232C139.266 6.84779 139.161 6.49563 138.95 6.24584C138.739 5.99605 138.422 5.87133 138 5.87169C137.697 5.87016 137.397 5.94234 137.128 6.08201C136.843 6.23258 136.583 6.42627 136.357 6.65621V12.0457H134.563Z" fill="#383637"/>
<path d="M144.878 2.4223C144.878 2.57273 144.846 2.7215 144.783 2.85808C144.66 3.12782 144.44 3.34162 144.167 3.45715C144.024 3.51808 143.871 3.54901 143.716 3.54798C143.565 3.54869 143.415 3.51775 143.276 3.45715C143.006 3.34071 142.791 3.12671 142.672 2.85808C142.612 2.72087 142.581 2.57232 142.582 2.4223C142.581 2.26755 142.612 2.11423 142.672 1.97191C142.73 1.83625 142.813 1.71288 142.917 1.60858C143.02 1.5057 143.142 1.42317 143.276 1.36527C143.415 1.30467 143.565 1.27373 143.716 1.27444C143.871 1.27342 144.024 1.30434 144.167 1.36527C144.303 1.42306 144.428 1.50555 144.534 1.60858C144.64 1.71287 144.725 1.83613 144.785 1.97191C144.847 2.11378 144.879 2.26731 144.878 2.4223ZM144.607 4.59365V12.0463H142.814V4.59365H144.607Z" fill="#383637"/>
<path d="M119.554 18.0415C119.509 18.101 119.457 18.1546 119.398 18.201C119.332 18.2441 119.254 18.2646 119.176 18.2594C119.079 18.2589 118.985 18.2297 118.905 18.1756C118.818 18.1216 118.714 18.0572 118.593 17.9869C118.455 17.9096 118.31 17.8463 118.16 17.7982C117.958 17.7376 117.748 17.7093 117.538 17.7144C117.252 17.7084 116.969 17.7668 116.709 17.8853C116.473 17.9969 116.268 18.1654 116.114 18.3757C115.947 18.6084 115.827 18.8712 115.761 19.1494C115.679 19.4857 115.641 19.8308 115.645 20.1767C115.64 20.5342 115.683 20.8907 115.772 21.2369C115.843 21.5183 115.968 21.7833 116.139 22.0177C116.291 22.222 116.491 22.3866 116.721 22.4973C116.962 22.6086 117.226 22.6641 117.492 22.6595C117.777 22.6595 118.009 22.6243 118.186 22.554C118.344 22.4942 118.494 22.4162 118.633 22.3215C118.754 22.2372 118.86 22.1593 118.949 22.0896C119.035 22.0208 119.141 21.9836 119.251 21.9842C119.315 21.9809 119.379 21.9947 119.436 22.024C119.493 22.0534 119.541 22.0972 119.576 22.1512L120.092 22.8049C119.904 23.0279 119.686 23.2245 119.446 23.3894C119.22 23.5432 118.977 23.6702 118.722 23.7678C118.472 23.8621 118.212 23.929 117.947 23.9674C117.685 24.006 117.42 24.0255 117.155 24.0258C116.708 24.0285 116.265 23.9408 115.853 23.7678C115.448 23.597 115.084 23.3404 114.788 23.0158C114.471 22.6636 114.227 22.2529 114.068 21.8068C113.891 21.3299 113.803 20.7864 113.803 20.1761C113.798 19.6593 113.878 19.1452 114.039 18.6541C114.185 18.2068 114.421 17.794 114.733 17.4414C115.048 17.0932 115.436 16.8191 115.87 16.6385C116.321 16.4449 116.84 16.3481 117.426 16.3481C117.984 16.3481 118.472 16.4383 118.891 16.6185C119.317 16.7991 119.703 17.0604 120.03 17.3879L119.554 18.0415Z" fill="#383637"/>
<path d="M124.306 16.3494C124.824 16.343 125.339 16.4347 125.822 16.6198C126.259 16.7882 126.654 17.0481 126.982 17.3821C127.311 17.7273 127.564 18.1382 127.723 18.5878C128.073 19.6225 128.073 20.7432 127.723 21.7778C127.563 22.2293 127.311 22.6425 126.982 22.9911C126.657 23.3276 126.262 23.5894 125.825 23.7583C124.845 24.1166 123.77 24.1166 122.789 23.7583C122.349 23.5891 121.951 23.3264 121.622 22.9884C121.291 22.6402 121.036 22.2271 120.873 21.7751C120.519 20.7412 120.519 19.6191 120.873 18.5851C121.035 18.1364 121.289 17.7267 121.62 17.3827C121.95 17.0485 122.348 16.7886 122.787 16.6203C123.272 16.4352 123.787 16.3433 124.306 16.3494ZM124.306 22.6467C124.927 22.6467 125.386 22.4385 125.685 22.0222C125.983 21.6059 126.132 20.9957 126.132 20.1915C126.132 19.388 125.983 18.7753 125.685 18.3532C125.386 17.9311 124.927 17.7204 124.306 17.7211C123.676 17.7211 123.211 17.9329 122.911 18.3564C122.61 18.78 122.46 19.3925 122.46 20.1942C122.46 20.9933 122.61 21.6023 122.911 22.0211C123.211 22.44 123.676 22.6485 124.306 22.6467Z" fill="#383637"/>
<path d="M129.26 23.9179V16.4636H130.357C130.59 16.4636 130.743 16.5717 130.816 16.788L130.932 17.34C131.06 17.1979 131.197 17.0644 131.343 16.9405C131.484 16.8208 131.638 16.7162 131.801 16.6285C131.967 16.5397 132.143 16.4702 132.324 16.4214C132.525 16.3689 132.731 16.3432 132.939 16.3452C133.408 16.3452 133.794 16.4723 134.099 16.7264C134.413 16.9966 134.648 17.3467 134.778 17.7396C134.887 17.5046 135.034 17.2898 135.215 17.1043C135.383 16.932 135.577 16.7862 135.789 16.6718C135.999 16.5599 136.223 16.477 136.455 16.4252C136.687 16.3721 136.925 16.3452 137.163 16.3452C137.538 16.3385 137.91 16.4025 138.261 16.5339C138.57 16.6521 138.847 16.8412 139.068 17.0859C139.295 17.3431 139.465 17.645 139.567 17.9721C139.686 18.3602 139.744 18.7648 139.737 19.1708V23.9136H137.942V19.1751C137.942 18.7004 137.837 18.3432 137.629 18.1035C137.42 17.8638 137.115 17.7439 136.713 17.7439C136.537 17.7421 136.363 17.7742 136.2 17.8386C136.045 17.8991 135.904 17.9911 135.786 18.1089C135.661 18.2359 135.566 18.3883 135.506 18.5555C135.435 18.7534 135.4 18.9627 135.404 19.1729V23.9158H133.601V19.1751C133.601 18.6762 133.5 18.3131 133.299 18.0856C133.097 17.8582 132.8 17.7443 132.408 17.7439C132.154 17.7432 131.905 17.8096 131.685 17.9364C131.447 18.0752 131.234 18.2532 131.056 18.463V23.9179H129.26Z" fill="#383637"/>
<path d="M141.371 23.9179V16.4636H142.469C142.702 16.4636 142.854 16.5717 142.927 16.788L143.044 17.34C143.171 17.1977 143.308 17.0642 143.454 16.9405C143.596 16.8208 143.749 16.7162 143.912 16.6285C144.078 16.5397 144.254 16.4702 144.436 16.4214C144.636 16.3689 144.843 16.3432 145.05 16.3452C145.519 16.3452 145.906 16.4723 146.21 16.7264C146.524 16.9966 146.759 17.3467 146.89 17.7396C146.998 17.5046 147.146 17.2898 147.326 17.1043C147.495 16.932 147.688 16.7862 147.901 16.6718C148.11 16.5599 148.334 16.4769 148.566 16.4252C148.799 16.372 149.036 16.3452 149.275 16.3452C149.65 16.3386 150.022 16.4026 150.373 16.5339C150.681 16.6521 150.958 16.8412 151.18 17.0859C151.406 17.3431 151.576 17.645 151.678 17.9721C151.798 18.3602 151.855 18.7648 151.849 19.1708V23.9136H150.053V19.1751C150.053 18.7004 149.949 18.3432 149.741 18.1035C149.532 17.8638 149.227 17.7439 148.824 17.7439C148.649 17.7421 148.475 17.7743 148.312 17.8385C148.156 17.8991 148.015 17.9911 147.897 18.1089C147.773 18.2359 147.677 18.3882 147.617 18.5555C147.546 18.7534 147.512 18.9626 147.515 19.1729V23.9157H145.712V19.1751C145.712 18.6762 145.611 18.3131 145.41 18.0856C145.21 17.8582 144.913 17.7443 144.52 17.7439C144.266 17.7432 144.016 17.8096 143.796 17.9364C143.558 18.0751 143.345 18.2532 143.167 18.463V23.9179H141.371Z" fill="#383637"/>
<path d="M155.13 16.4639V21.1997C155.13 21.6549 155.235 22.0071 155.446 22.2561C155.657 22.5052 155.974 22.6299 156.395 22.6303C156.698 22.632 156.998 22.561 157.268 22.4232C157.553 22.275 157.813 22.0827 158.038 21.8533V16.4639H159.834V23.9182H158.734C158.502 23.9182 158.349 23.81 158.276 23.5938L158.153 22.999C158.002 23.1504 157.841 23.2923 157.673 23.424C157.509 23.5507 157.332 23.6594 157.145 23.7484C156.952 23.8404 156.75 23.9111 156.542 23.9593C156.314 24.0114 156.081 24.037 155.847 24.0355C155.477 24.0429 155.109 23.9723 154.768 23.8284C154.463 23.6969 154.193 23.4969 153.979 23.244C153.759 22.9804 153.595 22.6753 153.495 22.347C153.383 21.9761 153.328 21.5903 153.333 21.2029V16.4639H155.13Z" fill="#383637"/>
<path d="M161.626 23.9177V16.4634H162.724C162.956 16.4634 163.109 16.5715 163.182 16.7878L163.305 17.3761C163.453 17.2237 163.612 17.0829 163.782 16.9549C163.948 16.8303 164.126 16.7217 164.313 16.6305C164.504 16.5369 164.705 16.4662 164.912 16.4196C165.142 16.3697 165.376 16.3454 165.611 16.3472C165.982 16.3401 166.351 16.4106 166.693 16.5542C166.998 16.684 167.268 16.8828 167.482 17.1349C167.7 17.3979 167.864 17.7018 167.962 18.0287C168.075 18.3995 168.129 18.7853 168.125 19.1727V23.9156H166.331V19.1749C166.331 18.7196 166.225 18.3673 166.014 18.1179C165.803 17.8684 165.487 17.7437 165.065 17.7437C164.761 17.7422 164.462 17.8146 164.193 17.9546C163.908 18.105 163.648 18.2985 163.422 18.5282V23.9177H161.626Z" fill="#383637"/>
<path d="M171.939 14.2939C171.939 14.4444 171.907 14.5931 171.844 14.7297C171.721 14.9995 171.5 15.2132 171.226 15.3282C171.084 15.3892 170.931 15.4201 170.776 15.4191C170.624 15.4198 170.474 15.3888 170.336 15.3282C170.202 15.2703 170.08 15.1878 169.976 15.0849C169.874 14.9824 169.791 14.8618 169.732 14.7292C169.671 14.592 169.64 14.4434 169.642 14.2934C169.64 14.1386 169.671 13.9853 169.732 13.843C169.847 13.5703 170.063 13.3528 170.336 13.2364C170.474 13.1758 170.624 13.1448 170.776 13.1455C170.931 13.1445 171.084 13.1754 171.226 13.2364C171.363 13.2942 171.487 13.3766 171.594 13.4797C171.7 13.5838 171.785 13.7071 171.845 13.843C171.908 13.9849 171.94 14.1386 171.939 14.2939ZM171.668 16.4637V23.918H169.872V16.4637H171.668Z" fill="#383637"/>
<path d="M178.817 18.0419C178.772 18.1014 178.719 18.155 178.661 18.2014C178.595 18.2446 178.517 18.2651 178.439 18.2598C178.342 18.2591 178.248 18.2299 178.168 18.176C178.081 18.1219 177.977 18.0576 177.856 17.9873C177.718 17.91 177.573 17.8468 177.423 17.7986C177.222 17.738 177.012 17.7097 176.802 17.7148C176.516 17.7088 176.232 17.7672 175.972 17.8857C175.737 17.9976 175.534 18.1661 175.38 18.3761C175.213 18.6087 175.093 18.8715 175.027 19.1498C174.946 19.486 174.907 19.8311 174.911 20.1771C174.906 20.5346 174.949 20.8911 175.038 21.2373C175.109 21.5186 175.234 21.7836 175.405 22.0181C175.558 22.2224 175.757 22.3869 175.987 22.4976C176.228 22.6089 176.492 22.6644 176.758 22.6598C177.043 22.6598 177.275 22.6247 177.452 22.5544C177.61 22.4946 177.76 22.4166 177.899 22.3219C178.02 22.2376 178.126 22.1597 178.216 22.09C178.301 22.0211 178.408 21.9839 178.517 21.9845C178.582 21.981 178.646 21.9946 178.704 22.0239C178.761 22.0533 178.81 22.0973 178.845 22.1516L179.361 22.8053C179.172 23.0286 178.953 23.2252 178.711 23.3898C178.485 23.5436 178.243 23.6706 177.987 23.7682C177.737 23.8625 177.478 23.9294 177.213 23.9677C176.951 24.0064 176.686 24.0259 176.421 24.0261C175.974 24.0288 175.531 23.9411 175.119 23.7682C174.714 23.5977 174.351 23.3415 174.054 23.0172C173.738 22.665 173.493 22.2543 173.334 21.8083C173.157 21.3314 173.069 20.7878 173.069 20.1776C173.064 19.6608 173.144 19.1466 173.306 18.6556C173.452 18.2081 173.688 17.7954 174 17.4429C174.315 17.0945 174.703 16.8203 175.137 16.64C175.587 16.4464 176.106 16.3496 176.693 16.3496C177.25 16.3496 177.739 16.4397 178.158 16.6199C178.581 16.8014 178.965 17.0628 179.289 17.3899L178.817 18.0419Z" fill="#383637"/>
<path d="M186.221 23.9177H185.414C185.277 23.9243 185.139 23.8982 185.014 23.8415C184.917 23.7907 184.845 23.6878 184.798 23.5328L184.635 23.0024C184.459 23.1622 184.273 23.3115 184.079 23.4495C183.902 23.5755 183.714 23.6841 183.516 23.7739C183.318 23.8627 183.111 23.9286 182.898 23.9702C182.658 24.015 182.414 24.036 182.17 24.0329C181.874 24.0357 181.58 23.9926 181.297 23.9053C181.044 23.8277 180.81 23.6974 180.61 23.523C180.415 23.3481 180.262 23.1313 180.163 22.8888C180.05 22.6088 179.995 22.3089 180.001 22.007C180.003 21.7147 180.08 21.4277 180.223 21.1727C180.371 20.8981 180.617 20.6503 180.961 20.4293C181.304 20.2083 181.763 20.0249 182.335 19.8789C182.907 19.7347 183.617 19.6626 184.465 19.6626V19.2209C184.465 18.7181 184.36 18.3459 184.149 18.1044C183.938 17.8629 183.632 17.7421 183.229 17.7421C182.983 17.7356 182.737 17.77 182.501 17.8438C182.326 17.9035 182.157 17.9801 181.997 18.0725C181.852 18.1572 181.72 18.2336 181.6 18.3017C181.478 18.3696 181.34 18.4047 181.2 18.4034C181.089 18.4064 180.979 18.3732 180.887 18.3088C180.801 18.2471 180.729 18.1678 180.676 18.0763L180.352 17.5026C181.21 16.7183 182.245 16.3259 183.456 16.3256C183.856 16.3193 184.253 16.3929 184.623 16.5418C184.952 16.6756 185.249 16.8784 185.492 17.1366C185.734 17.3995 185.919 17.71 186.034 18.0482C186.16 18.4225 186.223 18.8155 186.219 19.2106L186.221 23.9177ZM182.731 22.7991C182.902 22.8006 183.072 22.7839 183.24 22.7493C183.392 22.7168 183.54 22.6664 183.68 22.599C183.821 22.5305 183.955 22.4479 184.08 22.3525C184.218 22.2463 184.347 22.1303 184.468 22.0054V20.758C184.029 20.7513 183.59 20.7845 183.156 20.857C182.864 20.9046 182.58 20.9894 182.309 21.1095C182.096 21.2117 181.945 21.3311 181.855 21.4679C181.766 21.5998 181.719 21.7552 181.72 21.914C181.72 22.2308 181.813 22.4576 182 22.5942C182.187 22.7308 182.431 22.7991 182.731 22.7991Z" fill="#383637"/>
<path d="M190.303 24.0333C189.658 24.0333 189.161 23.8505 188.812 23.485C188.463 23.1195 188.288 22.6149 188.289 21.9711V17.8079H187.531C187.481 17.8099 187.432 17.8012 187.387 17.7826C187.341 17.7639 187.3 17.7357 187.266 17.6999C187.232 17.664 187.207 17.6213 187.191 17.5746C187.175 17.528 187.169 17.4785 187.174 17.4294V16.7201L188.374 16.5238L188.753 14.4903C188.768 14.4009 188.815 14.3204 188.887 14.2649C188.964 14.2096 189.058 14.1814 189.152 14.1848H190.083V16.5314H192.046V17.8095H190.083V21.8479C190.083 22.0803 190.141 22.262 190.258 22.3929C190.316 22.4577 190.388 22.5088 190.468 22.5428C190.549 22.5767 190.636 22.5925 190.723 22.5891C190.818 22.5915 190.913 22.578 191.003 22.5491C191.071 22.5258 191.136 22.4978 191.199 22.4653C191.254 22.4367 191.305 22.4085 191.349 22.382C191.388 22.3568 191.433 22.3429 191.48 22.342C191.527 22.3401 191.573 22.3542 191.61 22.382C191.651 22.4169 191.688 22.4571 191.718 22.5015L192.256 23.3736C191.99 23.594 191.684 23.7615 191.355 23.8673C191.015 23.9782 190.66 24.0343 190.303 24.0333Z" fill="#383637"/>
<path d="M195.535 14.2939C195.536 14.4443 195.504 14.5931 195.441 14.7297C195.317 14.9992 195.097 15.2127 194.823 15.3282C194.681 15.3891 194.527 15.4201 194.372 15.4191C194.221 15.4199 194.071 15.3889 193.932 15.3282C193.662 15.2123 193.447 14.9981 193.329 14.7292C193.268 14.592 193.237 14.4435 193.238 14.2934C193.237 14.1386 193.268 13.9853 193.329 13.843C193.386 13.7075 193.469 13.5841 193.572 13.4797C193.676 13.3768 193.798 13.2942 193.932 13.2364C194.071 13.1757 194.221 13.1447 194.372 13.1455C194.527 13.1446 194.681 13.1755 194.823 13.2364C194.959 13.2943 195.084 13.3768 195.19 13.4797C195.296 13.5839 195.381 13.7072 195.441 13.843C195.504 13.9849 195.537 14.1386 195.535 14.2939ZM195.268 16.4637V23.918H193.472V16.4637H195.268Z" fill="#383637"/>
<path d="M200.346 16.3494C200.864 16.3429 201.378 16.4347 201.862 16.6198C202.299 16.788 202.694 17.048 203.022 17.3821C203.351 17.7274 203.604 18.1383 203.764 18.5878C204.113 19.6226 204.113 20.7431 203.764 21.7778C203.603 22.2293 203.351 22.6424 203.022 22.9911C202.696 23.3291 202.3 23.5919 201.862 23.761C200.882 24.1193 199.806 24.1193 198.826 23.761C198.386 23.592 197.988 23.3293 197.66 22.9911C197.328 22.6429 197.073 22.2298 196.91 21.7778C196.557 20.7439 196.557 19.6218 196.91 18.5878C197.072 18.1377 197.328 17.7269 197.66 17.3821C197.99 17.0479 198.388 16.788 198.826 16.6198C199.312 16.4348 199.827 16.343 200.346 16.3494ZM200.346 22.6467C200.967 22.6467 201.427 22.4385 201.724 22.0222C202.022 21.6059 202.171 20.9966 202.172 20.1942C202.172 19.3907 202.023 18.778 201.724 18.3559C201.426 17.9338 200.967 17.7231 200.346 17.7238C199.716 17.7238 199.251 17.9356 198.95 18.3591C198.65 18.7827 198.5 19.3944 198.5 20.1942C198.5 20.9933 198.65 21.6023 198.95 22.0211C199.251 22.44 199.716 22.6485 200.346 22.6467Z" fill="#383637"/>
<path d="M205.302 23.9177V16.4634H206.4C206.633 16.4634 206.785 16.5715 206.858 16.7878L206.981 17.3761C207.129 17.2237 207.288 17.0829 207.458 16.9549C207.624 16.8303 207.802 16.7217 207.989 16.6305C208.18 16.537 208.381 16.4662 208.588 16.4196C208.818 16.3697 209.052 16.3454 209.286 16.3471C209.658 16.3402 210.026 16.4108 210.369 16.5542C210.673 16.6842 210.943 16.883 211.158 17.1349C211.376 17.3979 211.539 17.7018 211.638 18.0286C211.75 18.3995 211.805 18.7853 211.8 19.1727V23.9155H210.004V19.1749C210.004 18.7196 209.899 18.3673 209.688 18.1179C209.477 17.8684 209.161 17.7437 208.739 17.7437C208.435 17.7422 208.136 17.8145 207.866 17.9546C207.581 18.1051 207.321 18.2986 207.095 18.5282V23.9177H205.302Z" fill="#383637"/>
<path d="M120.16 36.0723H119.353C119.215 36.0789 119.078 36.0528 118.953 35.9961C118.856 35.9453 118.784 35.8423 118.737 35.6874L118.574 35.1575C118.398 35.3168 118.212 35.4657 118.018 35.6035C117.842 35.7296 117.653 35.8382 117.455 35.928C117.257 36.0164 117.05 36.0821 116.837 36.1237C116.597 36.1694 116.354 36.1913 116.11 36.1891C115.814 36.1921 115.52 36.1492 115.238 36.062C114.984 35.984 114.75 35.8536 114.55 35.6792C114.355 35.5044 114.202 35.2875 114.103 35.045C113.991 34.7647 113.937 34.4648 113.943 34.1632C113.946 33.871 114.022 33.5841 114.165 33.3289C114.312 33.0543 114.558 32.8064 114.903 32.5855C115.248 32.3645 115.706 32.1811 116.277 32.0351C116.849 31.8891 117.559 31.817 118.408 31.8188V31.3798C118.408 30.8752 118.302 30.503 118.092 30.2633C117.881 30.0236 117.574 29.9028 117.171 29.901C116.925 29.8946 116.68 29.9289 116.445 30.0027C116.269 30.0622 116.1 30.139 115.939 30.2319C115.795 30.3163 115.663 30.3925 115.543 30.4606C115.421 30.5286 115.283 30.5636 115.143 30.5623C115.031 30.5652 114.921 30.532 114.83 30.4677C114.744 30.4062 114.672 30.3269 114.619 30.2352L114.295 29.6588C115.153 28.8745 116.188 28.4823 117.4 28.4823C117.799 28.4761 118.196 28.5496 118.567 28.6986C118.895 28.8326 119.19 29.0355 119.433 29.2933C119.675 29.5558 119.86 29.8664 119.974 30.2049C120.101 30.5789 120.164 30.9718 120.16 31.3668L120.16 36.0723ZM116.67 34.9547C116.841 34.956 117.011 34.9392 117.179 34.9045C117.331 34.872 117.479 34.8216 117.619 34.7541C117.76 34.6857 117.894 34.6031 118.018 34.5076C118.156 34.4016 118.287 34.2858 118.408 34.161V32.9131C117.968 32.9063 117.529 32.9392 117.095 33.0115C116.803 33.0595 116.519 33.1443 116.248 33.264C116.035 33.3668 115.883 33.4863 115.794 33.6225C115.706 33.7545 115.659 33.9098 115.659 34.0686C115.659 34.3858 115.752 34.6127 115.939 34.7493C116.126 34.8859 116.369 34.9544 116.67 34.9547Z" fill="#383637"/>
<path d="M126.222 30.0726C126.185 30.1378 126.132 30.1934 126.07 30.2348C126.007 30.2684 125.937 30.2846 125.866 30.2819C125.768 30.2795 125.672 30.2547 125.586 30.2094C125.487 30.1611 125.372 30.1071 125.24 30.0472C125.096 29.9821 124.946 29.9279 124.793 29.885C124.599 29.8333 124.399 29.8089 124.198 29.8126C123.844 29.8126 123.565 29.8877 123.362 30.038C123.266 30.1031 123.188 30.191 123.135 30.2937C123.081 30.3964 123.055 30.5106 123.056 30.6263C123.054 30.7004 123.067 30.7742 123.094 30.8434C123.121 30.9125 123.161 30.9757 123.213 31.0291C123.332 31.1492 123.473 31.2465 123.627 31.3162C123.816 31.405 124.012 31.4792 124.213 31.5379C124.429 31.6035 124.652 31.6756 124.882 31.7541C125.111 31.8327 125.334 31.921 125.551 32.0191C125.763 32.1153 125.961 32.2429 126.136 32.3975C126.309 32.5513 126.449 32.7376 126.55 32.9458C126.661 33.1871 126.714 33.4505 126.707 33.7157C126.71 34.0562 126.643 34.3938 126.51 34.7073C126.38 35.0086 126.184 35.2768 125.936 35.4918C125.662 35.7243 125.344 35.8997 125.002 36.0076C124.344 36.2054 123.649 36.2453 122.973 36.1239C122.733 36.079 122.498 36.0146 122.269 35.9314C122.052 35.8531 121.843 35.7557 121.644 35.6405C121.463 35.5371 121.294 35.4155 121.138 35.2777L121.553 34.5949C121.6 34.5182 121.665 34.4536 121.742 34.4062C121.826 34.3596 121.922 34.337 122.018 34.3407C122.131 34.3409 122.24 34.3736 122.334 34.4348C122.434 34.4983 122.549 34.566 122.68 34.6381C122.828 34.7185 122.982 34.7867 123.141 34.8419C123.359 34.9107 123.586 34.9425 123.814 34.936C124 34.94 124.185 34.9142 124.363 34.8598C124.501 34.8172 124.629 34.7496 124.742 34.6603C124.836 34.5835 124.911 34.485 124.958 34.3732C125.004 34.2664 125.028 34.1514 125.028 34.0353C125.034 33.8776 124.977 33.7239 124.871 33.607C124.752 33.4853 124.612 33.3867 124.457 33.3162C124.266 33.2273 124.069 33.1533 123.868 33.095C123.647 33.0298 123.421 32.9577 123.191 32.8787C122.961 32.8018 122.735 32.7115 122.515 32.6084C122.299 32.5075 122.101 32.3738 121.926 32.2121C121.75 32.046 121.609 31.8459 121.512 31.6238C121.401 31.3572 121.347 31.0701 121.355 30.7815C121.354 30.4814 121.416 30.1845 121.537 29.9099C121.659 29.6322 121.842 29.3853 122.072 29.187C122.331 28.9678 122.629 28.8002 122.951 28.6934C123.344 28.5632 123.756 28.5005 124.169 28.5079C124.649 28.5018 125.126 28.588 125.573 28.762C125.965 28.9129 126.323 29.1401 126.627 29.4303L126.222 30.0726Z" fill="#383637"/>
<path d="M132.448 30.0731C132.411 30.1385 132.359 30.1941 132.296 30.2353C132.233 30.2689 132.163 30.2851 132.092 30.2824C131.995 30.28 131.899 30.2552 131.812 30.2099C131.713 30.1618 131.596 30.1072 131.467 30.0477C131.322 29.9826 131.173 29.9284 131.02 29.8855C130.826 29.8337 130.626 29.8093 130.425 29.813C130.071 29.813 129.792 29.8882 129.588 30.0385C129.493 30.1036 129.415 30.1914 129.361 30.2941C129.308 30.3968 129.281 30.5111 129.283 30.6268C129.281 30.7009 129.294 30.7747 129.321 30.8438C129.347 30.9129 129.388 30.9761 129.439 31.0296C129.559 31.1495 129.699 31.2468 129.854 31.3167C130.043 31.4055 130.239 31.4796 130.439 31.5383C130.656 31.6038 130.88 31.6751 131.108 31.7546C131.337 31.8341 131.559 31.9206 131.777 32.0195C131.99 32.1158 132.187 32.2434 132.362 32.398C132.55 32.5603 132.699 32.7625 132.798 32.9897C132.897 33.217 132.944 33.4636 132.936 33.7113C132.939 34.0518 132.873 34.3894 132.74 34.7029C132.61 35.0044 132.413 35.2726 132.165 35.4874C131.891 35.72 131.573 35.8954 131.231 36.0033C130.573 36.201 129.878 36.2409 129.202 36.1195C128.963 36.0747 128.727 36.0103 128.498 35.927C128.282 35.8489 128.072 35.7515 127.873 35.6361C127.693 35.5327 127.523 35.4111 127.368 35.2733L127.782 34.5905C127.83 34.5138 127.894 34.4492 127.971 34.4018C128.055 34.3551 128.151 34.3325 128.247 34.3363C128.36 34.3366 128.47 34.3693 128.564 34.4304C128.663 34.4939 128.778 34.5616 128.909 34.6337C129.057 34.7141 129.212 34.7823 129.371 34.8376C129.588 34.9063 129.816 34.9381 130.044 34.9316C130.229 34.9356 130.415 34.9099 130.592 34.8554C130.73 34.8128 130.858 34.7452 130.971 34.6559C131.066 34.5789 131.14 34.4805 131.188 34.3688C131.233 34.2619 131.257 34.147 131.257 34.0309C131.263 33.8731 131.207 33.7193 131.1 33.6026C130.981 33.4809 130.841 33.3823 130.686 33.3118C130.496 33.2229 130.299 33.1489 130.097 33.0906C129.876 33.0254 129.651 32.9533 129.421 32.8744C129.19 32.7974 128.965 32.7071 128.745 32.604C128.529 32.5033 128.33 32.3696 128.156 32.2077C127.979 32.0419 127.838 31.8417 127.741 31.6194C127.63 31.3528 127.577 31.0657 127.585 30.7771C127.584 30.477 127.646 30.1801 127.767 29.9055C127.889 29.6279 128.071 29.3809 128.301 29.1826C128.56 28.9634 128.859 28.7958 129.181 28.689C129.573 28.5588 129.985 28.4961 130.399 28.5035C130.879 28.4974 131.355 28.5837 131.802 28.7576C132.194 28.9087 132.553 29.1358 132.857 29.4259L132.448 30.0731Z" fill="#383637"/>
<path d="M136.43 26.4481C136.43 26.5986 136.398 26.7474 136.335 26.8839C136.274 27.0168 136.189 27.1374 136.084 27.2397C135.978 27.343 135.853 27.4256 135.717 27.483C135.574 27.5442 135.421 27.5751 135.266 27.5738C135.115 27.5748 134.965 27.5439 134.826 27.483C134.692 27.4256 134.57 27.343 134.466 27.2397C134.364 27.1374 134.281 27.0167 134.223 26.8839C134.162 26.7468 134.131 26.5982 134.132 26.4481C134.131 26.2933 134.162 26.1399 134.223 25.9977C134.28 25.8622 134.362 25.739 134.466 25.6349C134.57 25.5318 134.692 25.449 134.826 25.3911C134.965 25.3309 135.115 25.3001 135.266 25.3008C135.421 25.2999 135.574 25.3306 135.717 25.3911C135.853 25.4491 135.978 25.5317 136.084 25.6349C136.19 25.739 136.275 25.8621 136.335 25.9977C136.398 26.1395 136.43 26.293 136.43 26.4481ZM136.159 28.62V36.0722H134.362V28.62H136.159Z" fill="#383637"/>
<path d="M142.484 30.0731C142.446 30.1385 142.394 30.1941 142.331 30.2353C142.269 30.2689 142.198 30.2851 142.127 30.2824C142.03 30.28 141.934 30.2552 141.848 30.2099C141.748 30.1618 141.631 30.1072 141.502 30.0477C141.358 29.9826 141.208 29.9284 141.055 29.8855C140.861 29.8337 140.661 29.8093 140.46 29.813C140.106 29.813 139.827 29.8882 139.624 30.0385C139.528 30.1036 139.45 30.1915 139.397 30.2941C139.343 30.3968 139.316 30.5111 139.318 30.6268C139.316 30.7009 139.329 30.7746 139.356 30.8437C139.383 30.9129 139.423 30.976 139.474 31.0296C139.594 31.1495 139.734 31.2468 139.889 31.3167C140.078 31.4053 140.274 31.4794 140.474 31.5383C140.69 31.6038 140.915 31.6751 141.143 31.7546C141.371 31.8341 141.594 31.9206 141.812 32.0195C142.025 32.1158 142.222 32.2434 142.398 32.398C142.585 32.5603 142.734 32.7625 142.833 32.9897C142.932 33.217 142.979 33.4636 142.971 33.7113C142.975 34.0518 142.908 34.3894 142.775 34.7029C142.645 35.0044 142.448 35.2726 142.2 35.4874C141.926 35.72 141.609 35.8954 141.266 36.0033C140.608 36.201 139.913 36.2409 139.237 36.1195C138.998 36.0747 138.762 36.0103 138.534 35.927C138.317 35.8488 138.108 35.7514 137.908 35.6361C137.728 35.5327 137.559 35.4111 137.403 35.2733L137.817 34.5905C137.865 34.5138 137.93 34.4492 138.006 34.4018C138.091 34.3551 138.186 34.3325 138.282 34.3363C138.395 34.3366 138.505 34.3693 138.599 34.4304C138.698 34.4939 138.813 34.5616 138.944 34.6337C139.092 34.7141 139.247 34.7823 139.406 34.8376C139.623 34.9063 139.851 34.9381 140.079 34.9316C140.265 34.9356 140.45 34.9099 140.628 34.8554C140.765 34.813 140.894 34.7453 141.007 34.6559C141.101 34.5791 141.175 34.4806 141.223 34.3688C141.269 34.2619 141.292 34.147 141.292 34.0309C141.298 33.8731 141.242 33.7193 141.135 33.6026C141.017 33.4809 140.876 33.3823 140.721 33.3118C140.531 33.2229 140.334 33.1489 140.132 33.0906C139.912 33.0254 139.686 32.9533 139.456 32.8744C139.225 32.7974 139 32.7071 138.78 32.604C138.564 32.5031 138.365 32.3694 138.19 32.2077C138.014 32.0417 137.873 31.8416 137.776 31.6194C137.665 31.3528 137.612 31.0657 137.62 30.7771C137.619 30.477 137.681 30.1801 137.802 29.9055C137.924 29.628 138.106 29.3811 138.336 29.1826C138.595 28.9633 138.894 28.7957 139.216 28.689C139.609 28.5588 140.02 28.4961 140.434 28.5035C140.914 28.4974 141.39 28.5837 141.837 28.7576C142.23 28.9087 142.588 29.1358 142.892 29.4259L142.484 30.0731Z" fill="#383637"/>
<path d="M146.726 36.1881C146.081 36.1881 145.585 36.0054 145.235 35.6399C144.886 35.2744 144.711 34.7698 144.711 34.126V29.9628H143.954C143.904 29.9648 143.855 29.9561 143.81 29.9375C143.764 29.9188 143.723 29.8906 143.689 29.8547C143.655 29.8188 143.63 29.7761 143.614 29.7295C143.598 29.6828 143.592 29.6333 143.597 29.5843V28.8739L144.797 28.6776L145.176 26.6441C145.191 26.5547 145.239 26.4743 145.311 26.4187C145.388 26.3635 145.482 26.3356 145.576 26.3392H146.507V28.6852H148.47V29.9633H146.507V34.0022C146.507 34.2347 146.565 34.4162 146.682 34.5467C146.74 34.6116 146.812 34.6629 146.892 34.6969C146.973 34.7308 147.06 34.7465 147.147 34.7429C147.242 34.7453 147.336 34.7318 147.427 34.7029C147.494 34.6796 147.56 34.6518 147.623 34.6196C147.677 34.5904 147.729 34.5623 147.772 34.5358C147.811 34.5106 147.857 34.4968 147.903 34.4958C147.95 34.4939 147.996 34.508 148.034 34.5358C148.075 34.5709 148.112 34.6113 148.142 34.6559L148.68 35.5274C148.414 35.7477 148.108 35.9153 147.779 36.0211C147.439 36.1324 147.084 36.1888 146.726 36.1881Z" fill="#383637"/>
<path d="M155.62 36.0721H154.813C154.675 36.0787 154.538 36.0525 154.413 35.9958C154.316 35.945 154.244 35.8421 154.197 35.6871L154.034 35.1572C153.858 35.3165 153.673 35.4655 153.479 35.6033C153.302 35.7292 153.114 35.8378 152.916 35.9277C152.718 36.0161 152.511 36.0818 152.298 36.1234C152.058 36.1691 151.815 36.191 151.571 36.1888C151.275 36.1918 150.981 36.149 150.698 36.0618C150.445 35.9838 150.211 35.8534 150.011 35.679C149.816 35.5041 149.663 35.2872 149.564 35.0448C149.452 34.7644 149.398 34.4646 149.404 34.1629C149.407 33.8707 149.483 33.5838 149.626 33.3287C149.773 33.054 150.019 32.8062 150.364 32.5852C150.709 32.3643 151.166 32.1808 151.737 32.0348C152.309 31.8888 153.019 31.8167 153.868 31.8186V31.3795C153.868 30.8749 153.762 30.5027 153.551 30.263C153.341 30.0233 153.034 29.9026 152.631 29.9008C152.385 29.8943 152.139 29.9287 151.904 30.0024C151.729 30.062 151.559 30.1388 151.399 30.2317C151.255 30.316 151.122 30.3922 151.003 30.4604C150.88 30.5283 150.743 30.5634 150.603 30.562C150.491 30.565 150.381 30.5318 150.29 30.4674C150.204 30.406 150.132 30.3267 150.079 30.2349L149.754 29.6613C150.613 28.8769 151.648 28.4847 152.86 28.4847C153.259 28.4785 153.656 28.552 154.027 28.701C154.356 28.8347 154.652 29.0376 154.895 29.2958C155.138 29.5582 155.322 29.8689 155.437 30.2073C155.564 30.5814 155.627 30.9742 155.622 31.3692L155.62 36.0721ZM152.13 34.9545C152.301 34.9558 152.471 34.9389 152.639 34.9042C152.791 34.8718 152.939 34.8213 153.079 34.7539C153.22 34.6854 153.354 34.6028 153.478 34.5073C153.616 34.4014 153.746 34.2856 153.868 34.1608V32.9129C153.428 32.906 152.989 32.939 152.555 33.0113C152.263 33.0592 151.978 33.1441 151.708 33.2638C151.495 33.3665 151.343 33.486 151.253 33.6222C151.165 33.7544 151.119 33.9096 151.119 34.0683C151.119 34.3855 151.212 34.6124 151.399 34.749C151.585 34.8856 151.829 34.9541 152.13 34.9545Z" fill="#383637"/>
<path d="M157.256 36.0723V28.6201H158.354C158.587 28.6201 158.739 28.7282 158.812 28.9445L158.936 29.5333C159.083 29.3805 159.243 29.2395 159.412 29.1116C159.579 28.9872 159.756 28.8786 159.943 28.7872C160.134 28.6936 160.335 28.6229 160.543 28.5763C160.772 28.5264 161.006 28.5021 161.241 28.5039C161.612 28.4971 161.981 28.5676 162.323 28.7109C162.628 28.8408 162.899 29.0398 163.114 29.2922C163.332 29.5549 163.495 29.8586 163.593 30.1854C163.706 30.5562 163.761 30.942 163.756 31.3294V36.0723H161.96V31.3321C161.96 30.8769 161.855 30.5246 161.644 30.2751C161.433 30.0257 161.117 29.901 160.695 29.901C160.391 29.8993 160.092 29.9717 159.822 30.1118C159.539 30.2616 159.279 30.4544 159.054 30.6833V36.0728L157.256 36.0723Z" fill="#383637"/>
<path d="M167.844 36.1881C167.199 36.1881 166.702 36.0054 166.353 35.6399C166.004 35.2744 165.829 34.7698 165.83 34.126V29.9628H165.072C165.023 29.9649 164.973 29.9564 164.928 29.9378C164.882 29.9193 164.841 29.891 164.807 29.8551C164.773 29.8192 164.748 29.7764 164.732 29.7297C164.716 29.6829 164.711 29.6334 164.716 29.5843V28.8739L165.915 28.6776L166.294 26.6441C166.309 26.5549 166.357 26.4745 166.428 26.4187C166.506 26.3635 166.599 26.3356 166.694 26.3392H167.624V28.6852H169.588V29.9633H167.624V34.0022C167.624 34.2347 167.683 34.4162 167.799 34.5467C167.858 34.6117 167.93 34.663 168.01 34.6969C168.09 34.7309 168.177 34.7466 168.265 34.7429C168.36 34.7453 168.454 34.7317 168.545 34.7029C168.612 34.6796 168.677 34.6518 168.741 34.6196C168.795 34.5904 168.846 34.5623 168.89 34.5358C168.929 34.5106 168.974 34.4968 169.021 34.4958C169.068 34.4939 169.114 34.508 169.151 34.5358C169.193 34.5707 169.229 34.6111 169.26 34.6559L169.798 35.5274C169.531 35.7478 169.225 35.9154 168.896 36.0211C168.556 36.1324 168.201 36.1888 167.844 36.1881Z" fill="#383637"/>
<defs>
<linearGradient id="paint0_linear_152_36576" x1="48.79" y1="28.591" x2="66.0256" y2="28.591" gradientUnits="userSpaceOnUse">
<stop stop-color="#A5132F"/>
<stop offset="1" stop-color="#CE1356"/>
</linearGradient>
<linearGradient id="paint1_linear_152_36576" x1="48.2212" y1="10.3216" x2="66.1683" y2="10.3216" gradientUnits="userSpaceOnUse">
<stop stop-color="#A5132F"/>
<stop offset="1" stop-color="#CE1356"/>
</linearGradient>
</defs>
</svg>
