<svg width="140" height="199" viewBox="0 0 140 199" fill="none" xmlns="http://www.w3.org/2000/svg">
<g filter="url(#filter0_dd_152_36569)">
<mask id="path-1-inside-1_152_36569" fill="white">
<path d="M120 30C120 24.4772 115.523 20 110 20H20V179H110C115.523 179 120 174.523 120 169V30Z"/>
</mask>
<path d="M120 30C120 24.4772 115.523 20 110 20H20V179H110C115.523 179 120 174.523 120 169V30Z" fill="#FD1C63"/>
<path d="M120 20H20H120ZM20 179H120H20ZM110 179C116.075 179 121 174.075 121 168V31C121 24.9249 116.075 20 110 20C114.971 20 119 24.4772 119 30V169C119 174.523 114.971 179 110 179ZM20 20V179V20Z" fill="white" mask="url(#path-1-inside-1_152_36569)"/>
</g>
<path d="M62.2707 130.595L32.8598 130.328L29.2868 130.28C27.5221 130.268 25.9285 129.373 25.0142 127.882C24.5757 127.16 24.3222 126.342 24.2762 125.499C24.2301 124.656 24.393 123.815 24.7503 123.05C24.9816 122.544 25.3023 122.085 25.697 121.694L25.8526 121.539L26.0301 121.397C26.11 121.333 26.1996 121.261 26.2927 121.19C26.5467 120.988 26.8208 120.812 27.1107 120.665L27.1703 120.635L27.2307 120.607C29.1369 119.733 30.0992 119.168 31.5561 118.314C32.5884 117.709 33.8218 116.986 35.6928 115.97C34.9939 114.812 34.3804 113.603 33.857 112.355C33.5422 111.635 33.2685 110.896 33.0374 110.144C32.7292 109.23 32.4711 108.299 32.2641 107.356C32.1818 107.036 32.1222 106.739 32.0738 106.497V106.493C31.8975 105.61 31.7708 104.82 31.6876 104.082C31.668 103.982 31.6409 103.836 31.6185 103.657L31.5873 103.41V103.275C31.5229 102.595 31.4533 101.737 31.433 100.808C31.4146 100.481 31.4146 100.183 31.4146 99.9388C31.4146 95.7993 32.2398 91.7997 33.8673 88.0508L33.8709 88.0424C34.6681 86.2109 35.6428 84.4619 36.7811 82.8206C37.9333 81.1586 39.1863 79.6622 40.5048 78.378C43.2291 75.6897 46.4938 73.5008 50.2136 71.8656L50.2384 71.8548L50.2627 71.8441C53.4786 70.4786 56.906 69.6783 60.3941 69.4784C60.9538 69.4285 61.5347 69.4053 62.2132 69.4053H62.4331C66.7081 69.4053 70.8053 70.2269 74.6102 71.8473L74.6314 71.856L74.6525 71.8656C78.3959 73.5108 81.653 75.7129 84.3333 78.4104C85.8761 79.9536 87.1319 81.5048 88.1766 83.1508C89.2003 84.7181 90.0705 86.3804 90.7753 88.1147C92.0966 91.2795 92.8578 94.6866 93.0382 98.2412L93.0402 98.278V98.3152C93.0565 98.8258 93.0733 99.3547 93.0733 99.9372C93.0733 100.786 93.0394 101.63 92.9722 102.45C92.9634 102.607 92.9474 102.745 92.9302 102.863C92.6765 105.917 91.9511 108.914 90.7797 111.747C90.4199 112.639 90.0133 113.514 89.5403 114.422L89.5375 114.428C89.1241 115.218 88.671 115.987 88.1802 116.732C87.5451 117.74 86.842 118.704 86.0756 119.617C85.4995 120.325 84.9162 120.943 84.3677 121.506L84.3533 121.521C81.6251 124.305 78.3507 126.529 74.6226 128.132H74.6186C73.7666 128.498 73.0074 128.788 72.2997 129.02C71.8124 129.186 71.3502 129.313 70.936 129.424L70.7225 129.53L70.198 129.636C70.1424 129.647 70.0888 129.657 70.0381 129.666C69.7894 129.734 69.5583 129.786 69.3584 129.829C68.9154 129.924 68.3901 130.033 67.8476 130.127L67.7724 130.14L67.6968 130.15C67.6433 130.157 67.5597 130.171 67.4713 130.186C67.3378 130.208 67.1715 130.235 66.9896 130.26C66.481 130.328 65.9793 130.38 65.5299 130.424C65.2133 130.467 64.9242 130.488 64.6867 130.504H64.6731C63.7936 130.563 63.0428 130.591 62.3107 130.591L62.2707 130.595Z" fill="white"/>
<path d="M89.0461 98.444C88.889 95.3476 88.2465 92.4238 87.0811 89.6412C86.4691 88.1301 85.7111 86.6823 84.8178 85.3186C83.8747 83.8253 82.7428 82.4732 81.4995 81.2314C79.1258 78.8422 76.2965 76.9559 73.0425 75.5255C69.7569 74.1262 66.2203 73.4033 62.4318 73.4033H62.2119C61.6922 73.4033 61.19 73.4189 60.6871 73.4661C57.6355 73.6306 54.6361 74.3275 51.8247 75.5255C48.5707 76.9559 45.7257 78.8438 43.3049 81.2314C42.0944 82.4104 41.0261 83.715 40.0666 85.0983C39.076 86.5266 38.2281 88.0487 37.535 89.6428C36.1357 92.8652 35.4129 96.3079 35.4129 99.9388C35.4129 100.175 35.4129 100.411 35.4289 100.646C35.4445 101.479 35.5088 102.281 35.586 103.083V103.163C35.6016 103.289 35.6332 103.399 35.6488 103.525C35.7287 104.263 35.8531 105.004 35.9946 105.71C36.0418 105.945 36.089 106.181 36.1517 106.417C36.3343 107.263 36.5652 108.097 36.8434 108.916C37.0367 109.553 37.2677 110.177 37.535 110.787C38.0888 112.113 38.7623 113.386 39.5472 114.591L40.0346 115.345C40.7574 116.493 40.3488 118.033 39.1386 118.663C33.1652 121.822 32.7354 122.483 28.8997 124.244C28.844 124.275 28.7913 124.312 28.7426 124.354C28.6799 124.401 28.6011 124.464 28.5223 124.527C28.4615 124.584 28.4134 124.654 28.3812 124.731C28.051 125.375 28.444 126.287 29.3239 126.287L32.9137 126.334L62.3086 126.602C63.0159 126.602 63.7079 126.57 64.3992 126.522C64.6191 126.506 64.839 126.49 65.0437 126.458C65.5154 126.411 65.9868 126.364 66.4586 126.301C66.6941 126.27 66.9299 126.221 67.1658 126.191C67.6216 126.111 68.0774 126.018 68.5175 125.924C68.7378 125.877 68.9421 125.83 69.1464 125.767C69.2408 125.751 69.3351 125.736 69.4135 125.72C69.4451 125.704 69.4767 125.688 69.5078 125.672C70.0276 125.531 70.5297 125.405 71.0327 125.233C71.7087 125.013 72.3844 124.746 73.0449 124.463C76.2984 123.063 79.1282 121.144 81.5018 118.725C82.0216 118.191 82.5233 117.656 82.9951 117.075C83.6605 116.285 84.2698 115.45 84.8186 114.575C85.2448 113.93 85.6382 113.264 85.9972 112.579C86.3902 111.824 86.752 111.054 87.0819 110.237C88.1074 107.767 88.7386 105.152 88.9525 102.487C88.9525 102.377 88.9841 102.298 88.9841 102.204C89.0469 101.465 89.0785 100.695 89.0785 99.9404C89.0785 99.4187 89.0625 98.9314 89.0461 98.444ZM78.4366 102.798C78.3599 103.303 78.2496 103.802 78.1063 104.291C77.9021 105.03 77.6346 105.722 77.3519 106.414L77.3359 106.43C77.1817 106.785 77.0082 107.131 76.8162 107.467C75.9998 109.023 74.9939 110.406 73.7521 111.632C72.9294 112.458 72.0176 113.191 71.0335 113.817C70.229 114.328 69.3823 114.769 68.5028 115.136C66.4594 116.001 64.3212 116.425 62.0736 116.425C61.2003 116.426 60.3281 116.364 59.4641 116.237C58.1769 116.024 56.9206 115.654 55.7231 115.136C53.7699 114.323 51.9966 113.132 50.5053 111.632C50.4898 111.616 50.4742 111.6 50.4582 111.585C50.3139 111.445 50.1823 111.292 50.0652 111.128C49.9852 111.049 49.908 110.956 49.8293 110.861C49.5125 110.524 49.2176 110.167 48.9461 109.793C48.231 108.859 47.6244 107.846 47.1382 106.775C47.0765 106.664 47.024 106.548 46.9811 106.429C46.75 105.882 46.5556 105.32 46.3994 104.747C46.3522 104.574 46.305 104.417 46.2583 104.244C46.1479 103.804 46.0536 103.364 45.9752 102.908C45.8484 102.159 45.7696 101.403 45.7393 100.645C45.7237 100.456 45.7237 100.251 45.7237 100.063C45.7237 97.7991 46.1479 95.6614 46.9811 93.6492C47.7355 91.8573 48.7574 90.2381 50.0308 88.8864C50.1723 88.6977 50.345 88.5406 50.5021 88.3666C52.0059 86.8758 53.7768 85.6812 55.7223 84.8452C57.5751 84.0644 59.5596 83.6438 61.5698 83.6058C61.7425 83.5902 61.8997 83.5902 62.0728 83.5902C63.6461 83.5882 65.2121 83.8051 66.7256 84.2347C67.3278 84.4076 67.9207 84.6114 68.5019 84.8452C70.5141 85.71 72.2601 86.889 73.7521 88.3666C75.261 89.8599 76.44 91.6202 77.3359 93.648C77.7605 94.6227 78.1063 95.6446 78.3106 96.6821C78.5621 97.7823 78.6705 98.8982 78.6705 100.062C78.6721 100.979 78.5938 101.895 78.4366 102.798Z" fill="#383637"/>
<path d="M60.9027 107.643C60.9397 107.536 61.0034 107.439 61.0878 107.363C61.2793 107.211 61.3081 107.209 61.9953 107.291C64.4121 107.581 66.5319 106.98 68.4917 105.448C68.7979 105.208 68.8151 105.202 69.0182 105.217C69.3552 105.242 69.498 105.399 69.6311 105.896C69.783 106.463 69.759 106.551 69.3185 107.049C68.4421 108.039 67.3498 108.672 65.813 109.081C64.3098 109.481 63.0572 109.476 61.827 109.068C61.1765 108.852 61.1505 108.828 60.9874 108.282C60.8667 107.88 60.8559 107.797 60.9027 107.643Z" fill="#ED183E"/>
<path d="M72.9501 95.0689C72.5739 94.6926 72.1273 94.3942 71.6358 94.1905C71.1443 93.9869 70.6174 93.882 70.0853 93.882C69.5533 93.882 69.0264 93.9869 68.5349 94.1905C68.0434 94.3942 67.5967 94.6926 67.2206 95.0689C66.6337 95.6538 66.2413 96.4052 66.0967 97.221H60.027C60.0122 97.2038 59.9966 97.1867 59.9802 97.1703L56.8785 94.069C56.6761 93.8666 56.4016 93.7529 56.1153 93.7529C55.8291 93.7529 55.5545 93.8666 55.3521 94.069L52.2509 97.1703C52.1506 97.2705 52.071 97.3895 52.0168 97.5205C51.9625 97.6515 51.9346 97.7919 51.9346 97.9337C51.9346 98.0755 51.9625 98.2159 52.0168 98.3468C52.071 98.4778 52.1506 98.5969 52.2509 98.6971L55.3525 101.798C55.5549 102.001 55.8295 102.114 56.1157 102.114C56.402 102.114 56.6765 102.001 56.8789 101.798L59.9806 98.6971C59.997 98.6803 60.0126 98.6635 60.0274 98.6463H66.0971C66.2417 99.4621 66.6341 100.214 67.221 100.798C67.9808 101.558 69.0113 101.985 70.0857 101.985C71.1602 101.985 72.1907 101.558 72.9505 100.798C73.7102 100.039 74.1369 99.0081 74.1369 97.9336C74.1368 96.8591 73.7099 95.8287 72.9501 95.0689Z" fill="#ED183E"/>
<path d="M86.2845 130.582C86.0382 130.582 85.7924 130.562 85.5493 130.522C83.9977 130.269 82.7131 129.262 82.111 127.827C81.9641 127.474 81.8596 127.104 81.7996 126.727L81.7448 126.73L81.6013 122.746C81.5297 122.746 81.4578 122.746 81.385 122.746H81.3406C78.622 122.739 77.3026 121.292 76.7597 120.43C76.2116 119.554 75.961 118.525 76.0453 117.495C76.0968 116.802 76.2911 116.096 76.623 115.397C77.8827 112.743 79.1865 110.066 80.4475 107.478C80.7279 106.903 81.0077 106.328 81.287 105.753C81.2922 105.743 81.2982 105.73 81.3038 105.717C81.5086 105.26 81.7758 104.834 82.0978 104.45C82.5166 103.959 83.0369 103.564 83.6229 103.293C84.2088 103.022 84.8466 102.881 85.4921 102.88C85.7179 102.881 85.9433 102.897 86.1666 102.93C87.7542 103.165 89.0668 104.177 89.6776 105.635C90.0251 106.464 90.0479 107.202 90.0591 107.554C90.0591 107.57 90.0591 107.586 90.0591 107.602C90.0786 108.065 90.1014 108.542 90.1234 109.004C90.1506 109.566 90.1778 110.136 90.2006 110.712C90.3187 110.712 90.4363 110.712 90.5536 110.712C91.3068 110.715 92.0089 110.838 92.6402 111.077C93.6365 111.455 94.4541 112.114 95.0046 112.984C95.5466 113.845 95.7966 114.859 95.7178 115.873C95.6699 116.551 95.4839 117.241 95.1649 117.923C93.9507 120.518 92.6905 123.132 91.4715 125.659C91.1285 126.371 90.7858 127.082 90.4433 127.793C90.2371 128.241 89.9701 128.659 89.6501 129.034C89.2325 129.518 88.716 129.907 88.1354 130.174C87.5548 130.441 86.9236 130.58 86.2845 130.582Z" fill="white"/>
<path d="M85.5944 122.535L85.5452 121.187C85.4513 118.605 85.4513 118.605 82.9242 118.697C82.4 118.716 81.8759 118.75 81.3517 118.748C80.1603 118.745 79.7346 118.165 80.2347 117.111C81.7603 113.897 83.326 110.702 84.8828 107.502C85.0259 107.208 85.1578 106.823 85.5808 106.885C86.081 106.959 86.0514 107.407 86.0666 107.771C86.1465 109.68 86.2725 111.59 86.2609 113.498C86.2541 114.614 86.6767 114.941 87.731 114.818C88.6581 114.709 89.6012 114.708 90.5368 114.713C91.6162 114.718 92.0024 115.255 91.5455 116.232C90.0062 119.522 88.4174 122.789 86.8422 126.063C86.7131 126.331 86.5623 126.637 86.1929 126.577C85.7567 126.506 85.7388 126.127 85.7232 125.791C85.674 124.706 85.6408 123.62 85.6012 122.535H85.5944Z" fill="#ED183E"/>
<path d="M105.455 35.8239C104.279 35.8239 103.272 35.6037 102.434 35.1634C101.6 34.7266 100.961 34.13 100.517 33.3736C100.073 32.6207 99.8509 31.7667 99.8509 30.8114C99.8509 29.8562 100.073 29.0004 100.517 28.244C100.964 27.4911 101.605 26.8945 102.44 26.4542C103.278 26.0174 104.283 25.799 105.455 25.799C106.63 25.799 107.635 26.0174 108.469 26.4542C109.308 26.8945 109.949 27.4911 110.392 28.244C110.836 29.0004 111.058 29.8562 111.058 30.8114C111.058 31.7667 110.836 32.6207 110.392 33.3736C109.949 34.13 109.308 34.7266 108.469 35.1634C107.635 35.6037 106.63 35.8239 105.455 35.8239ZM105.455 33.837C106.282 33.837 106.98 33.7074 107.548 33.4482C108.12 33.1925 108.551 32.8374 108.842 32.3828C109.137 31.9283 109.284 31.4045 109.284 30.8114C109.284 30.2184 109.137 29.6946 108.842 29.2401C108.551 28.7855 108.12 28.4286 107.548 28.1694C106.98 27.9137 106.282 27.7859 105.455 27.7859C104.627 27.7859 103.928 27.9137 103.356 28.1694C102.788 28.4286 102.356 28.7855 102.061 29.2401C101.77 29.6946 101.625 30.2184 101.625 30.8114C101.625 31.4045 101.77 31.9283 102.061 32.3828C102.356 32.8374 102.788 33.1925 103.356 33.4482C103.928 33.7074 104.627 33.837 105.455 33.837ZM107.228 47.0299V45.0377C107.555 44.9809 107.844 44.8762 108.097 44.7235C108.352 44.5708 108.569 44.3808 108.746 44.1535C108.924 43.9262 109.057 43.667 109.146 43.3758C109.238 43.0882 109.284 42.7774 109.284 42.4436C109.284 41.8506 109.135 41.325 108.837 40.8669C108.542 40.4088 108.109 40.0502 107.537 39.7909C106.969 39.5317 106.275 39.4021 105.455 39.4021C104.62 39.4021 103.917 39.5317 103.345 39.7909C102.777 40.0537 102.347 40.4124 102.056 40.8669C101.768 41.325 101.625 41.8488 101.625 42.4383C101.625 42.765 101.667 43.0704 101.752 43.3545C101.841 43.6421 101.971 43.8996 102.141 44.1269C102.312 44.3577 102.521 44.5512 102.77 44.7075C103.018 44.8673 103.303 44.9774 103.622 45.0377L103.612 47.0299C103.093 46.9553 102.607 46.7938 102.152 46.5452C101.697 46.3002 101.296 45.9788 100.948 45.5811C100.604 45.1833 100.334 44.7181 100.138 44.1855C99.9467 43.6528 99.8509 43.0615 99.8509 42.4117C99.8509 41.4529 100.073 40.597 100.517 39.8442C100.961 39.0914 101.602 38.4983 102.44 38.0651C103.278 37.6318 104.283 37.4152 105.455 37.4152C106.63 37.4152 107.635 37.6336 108.469 38.0704C109.308 38.5072 109.949 39.102 110.392 39.8548C110.836 40.6077 111.058 41.46 111.058 42.4117C111.058 43.0189 110.973 43.5835 110.803 44.1056C110.632 44.6276 110.382 45.0928 110.051 45.5012C109.725 45.9095 109.324 46.2451 108.848 46.5079C108.375 46.7742 107.836 46.9482 107.228 47.0299ZM100 50.1088V47.9994L110.909 51.8399V54.2796L100 58.1254V56.0161L108.672 53.1024V53.0171L100 50.1088ZM104.277 50.178V55.9308H102.69V50.178H104.277ZM100 64.6839V62.5746L110.909 66.4151V68.8548L100 72.7006V70.5913L108.672 67.6776V67.5923L100 64.6839ZM104.277 64.7532V70.506H102.69V64.7532H104.277ZM110.909 76.1137H100V74.1375H110.909V76.1137ZM107.228 91.3121V89.32C107.555 89.2631 107.844 89.1584 108.097 89.0057C108.352 88.853 108.569 88.663 108.746 88.4357C108.924 88.2085 109.057 87.9492 109.146 87.658C109.238 87.3704 109.284 87.0597 109.284 86.7259C109.284 86.1328 109.135 85.6072 108.837 85.1491C108.542 84.6911 108.109 84.3324 107.537 84.0732C106.969 83.8139 106.275 83.6843 105.455 83.6843C104.62 83.6843 103.917 83.8139 103.345 84.0732C102.777 84.3359 102.347 84.6946 102.056 85.1491C101.768 85.6072 101.625 86.131 101.625 86.7205C101.625 87.0472 101.667 87.3526 101.752 87.6367C101.841 87.9244 101.971 88.1818 102.141 88.4091C102.312 88.6399 102.521 88.8335 102.77 88.9897C103.018 89.1495 103.303 89.2596 103.622 89.32L103.612 91.3121C103.093 91.2376 102.607 91.076 102.152 90.8274C101.697 90.5824 101.296 90.261 100.948 89.8633C100.604 89.4656 100.334 89.0004 100.138 88.4677C99.9467 87.935 99.8509 87.3438 99.8509 86.6939C99.8509 85.7351 100.073 84.8793 100.517 84.1264C100.961 83.3736 101.602 82.7805 102.44 82.3473C103.278 81.9141 104.283 81.6974 105.455 81.6974C106.63 81.6974 107.635 81.9158 108.469 82.3526C109.308 82.7894 109.949 83.3842 110.392 84.1371C110.836 84.8899 111.058 85.7422 111.058 86.6939C111.058 87.3011 110.973 87.8658 110.803 88.3878C110.632 88.9098 110.382 89.375 110.051 89.7834C109.725 90.1918 109.324 90.5273 108.848 90.7901C108.375 91.0565 107.836 91.2305 107.228 91.3121ZM99.8402 96.6056C99.8402 95.8066 100.016 95.1141 100.368 94.5281C100.719 93.9422 101.211 93.4877 101.843 93.1645C102.475 92.8449 103.214 92.6851 104.059 92.6851C104.904 92.6851 105.645 92.8449 106.28 93.1645C106.916 93.4877 107.409 93.9422 107.761 94.5281C108.113 95.1141 108.288 95.8066 108.288 96.6056C108.288 97.4046 108.113 98.097 107.761 98.683C107.409 99.2689 106.916 99.7217 106.28 100.041C105.645 100.364 104.904 100.526 104.059 100.526C103.214 100.526 102.475 100.364 101.843 100.041C101.211 99.7217 100.719 99.2689 100.368 98.683C100.016 98.097 99.8402 97.4046 99.8402 96.6056ZM101.385 96.6162C101.385 97.0494 101.504 97.4117 101.742 97.7029C101.983 97.9941 102.306 98.2107 102.711 98.3527C103.116 98.4983 103.567 98.5711 104.064 98.5711C104.565 98.5711 105.018 98.4983 105.423 98.3527C105.831 98.2107 106.156 97.9941 106.397 97.7029C106.639 97.4117 106.76 97.0494 106.76 96.6162C106.76 96.1723 106.639 95.803 106.397 95.5083C106.156 95.2171 105.831 94.9987 105.423 94.8531C105.018 94.711 104.565 94.64 104.064 94.64C103.567 94.64 103.116 94.711 102.711 94.8531C102.306 94.9987 101.983 95.2171 101.742 95.5083C101.504 95.803 101.385 96.1723 101.385 96.6162ZM96.9318 102.163H108.182V104.059H106.829V104.171C107.028 104.27 107.239 104.411 107.463 104.592C107.69 104.773 107.884 105.018 108.043 105.327C108.207 105.636 108.288 106.03 108.288 106.509C108.288 107.141 108.127 107.711 107.804 108.219C107.484 108.73 107.01 109.135 106.381 109.434C105.756 109.735 104.989 109.886 104.08 109.886C103.182 109.886 102.418 109.739 101.79 109.444C101.161 109.15 100.682 108.748 100.352 108.24C100.021 107.733 99.8562 107.157 99.8562 106.515C99.8562 106.046 99.9343 105.657 100.091 105.348C100.247 105.039 100.435 104.79 100.655 104.602C100.879 104.418 101.09 104.274 101.289 104.171V104.091H96.9318V102.163ZM104.091 104.054C103.562 104.054 103.098 104.128 102.701 104.277C102.303 104.43 101.992 104.648 101.768 104.933C101.548 105.22 101.438 105.568 101.438 105.977C101.438 106.403 101.552 106.76 101.779 107.047C102.01 107.335 102.324 107.551 102.722 107.697C103.123 107.846 103.58 107.921 104.091 107.921C104.599 107.921 105.05 107.848 105.444 107.702C105.838 107.557 106.147 107.34 106.371 107.053C106.594 106.765 106.706 106.406 106.706 105.977C106.706 105.565 106.598 105.215 106.381 104.927C106.165 104.64 105.861 104.421 105.471 104.272C105.08 104.126 104.62 104.054 104.091 104.054ZM96.9318 112.458C96.9318 112.195 96.9531 111.952 96.9957 111.728C97.0348 111.508 97.081 111.332 97.1342 111.201L98.6364 111.648C98.5547 111.929 98.5156 112.179 98.5192 112.399C98.5227 112.619 98.592 112.813 98.7269 112.98C98.8583 113.15 99.0785 113.294 99.3874 113.411L99.8295 113.576L108.182 110.609V112.655L102.003 114.541V114.626L108.182 116.517V118.568L99.0092 115.292C98.576 115.139 98.2049 114.937 97.896 114.684C97.5835 114.432 97.3455 114.123 97.1822 113.758C97.0153 113.395 96.9318 112.962 96.9318 112.458ZM100 121.59L108.182 119.279V121.244L102.429 122.682V122.757L108.182 124.227V126.171L102.461 127.642V127.722L108.182 129.138V131.109L100 128.792V126.784L105.529 125.25V125.138L100 123.604V121.59ZM100 132.456H108.182V134.325H106.818V134.411C107.29 134.56 107.654 134.815 107.91 135.178C108.169 135.543 108.299 135.961 108.299 136.429C108.299 136.536 108.294 136.655 108.283 136.786C108.276 136.921 108.263 137.033 108.246 137.122H106.472C106.5 137.04 106.525 136.911 106.547 136.733C106.571 136.559 106.584 136.39 106.584 136.227C106.584 135.875 106.507 135.559 106.355 135.279C106.206 135.002 105.998 134.783 105.732 134.624C105.465 134.464 105.158 134.384 104.81 134.384H100V132.456ZM100 138.403H108.182V140.331H100V138.403ZM109.343 139.372C109.343 139.067 109.444 138.804 109.647 138.584C109.853 138.364 110.099 138.254 110.387 138.254C110.678 138.254 110.925 138.364 111.127 138.584C111.333 138.804 111.436 139.067 111.436 139.372C111.436 139.681 111.333 139.944 111.127 140.161C110.925 140.381 110.678 140.491 110.387 140.491C110.099 140.491 109.853 140.381 109.647 140.161C109.444 139.944 109.343 139.681 109.343 139.372ZM108.182 146.4H106.69V141.696H108.182V146.4ZM110.142 142.857V144.786H102.461C102.202 144.786 102.003 144.825 101.864 144.903C101.729 144.984 101.637 145.091 101.587 145.222C101.538 145.354 101.513 145.499 101.513 145.659C101.513 145.78 101.522 145.89 101.539 145.989C101.557 146.092 101.573 146.171 101.587 146.224L100.08 146.549C100.044 146.446 100.005 146.298 99.9627 146.107C99.9201 145.918 99.8952 145.688 99.8881 145.414C99.8739 144.931 99.9467 144.496 100.107 144.109C100.27 143.722 100.522 143.415 100.863 143.188C101.204 142.964 101.63 142.854 102.141 142.857H110.142ZM100 148.012H108.182V149.941H100V148.012ZM109.343 148.982C109.343 148.676 109.444 148.414 109.647 148.193C109.853 147.973 110.099 147.863 110.387 147.863C110.678 147.863 110.925 147.973 111.127 148.193C111.333 148.414 111.436 148.676 111.436 148.982C111.436 149.291 111.333 149.553 111.127 149.77C110.925 149.99 110.678 150.1 110.387 150.1C110.099 150.1 109.853 149.99 109.647 149.77C109.444 149.553 109.343 149.291 109.343 148.982ZM104.794 153.852H100V151.923H108.182V153.766H106.792V153.862C107.25 154.051 107.614 154.351 107.884 154.763C108.153 155.178 108.288 155.691 108.288 156.302C108.288 156.867 108.168 157.358 107.926 157.777C107.685 158.2 107.335 158.527 106.877 158.758C106.419 158.992 105.863 159.107 105.21 159.104H100V157.176H104.911C105.458 157.176 105.886 157.033 106.195 156.749C106.504 156.469 106.658 156.08 106.658 155.583C106.658 155.245 106.584 154.945 106.435 154.683C106.289 154.423 106.078 154.219 105.801 154.07C105.524 153.924 105.188 153.852 104.794 153.852ZM96.7614 164.622C96.7614 163.93 96.8555 163.335 97.0437 162.838C97.2283 162.341 97.4769 161.941 97.7894 161.639C98.1019 161.337 98.4482 161.128 98.8281 161.011L99.2489 162.747C99.0891 162.825 98.9311 162.939 98.7749 163.088C98.6151 163.237 98.4837 163.438 98.3807 163.69C98.2741 163.946 98.2209 164.267 98.2209 164.654C98.2209 165.201 98.354 165.654 98.6204 166.013C98.8832 166.371 99.3164 166.551 99.9201 166.551H101.47V166.455C101.271 166.355 101.067 166.21 100.858 166.018C100.648 165.83 100.472 165.579 100.33 165.267C100.188 164.958 100.117 164.569 100.117 164.1C100.117 163.472 100.265 162.902 100.559 162.39C100.858 161.883 101.301 161.478 101.891 161.176C102.484 160.878 103.226 160.728 104.118 160.728C105.016 160.728 105.774 160.878 106.392 161.176C107.013 161.478 107.484 161.884 107.804 162.396C108.127 162.907 108.288 163.477 108.288 164.106C108.288 164.585 108.207 164.979 108.043 165.288C107.884 165.601 107.69 165.849 107.463 166.034C107.239 166.218 107.028 166.359 106.829 166.455V166.561H108.182V168.463H99.8668C99.1673 168.463 98.5884 168.296 98.1303 167.962C97.6722 167.628 97.3295 167.172 97.1023 166.593C96.875 166.014 96.7614 165.357 96.7614 164.622ZM101.63 164.638C101.63 165.047 101.729 165.395 101.928 165.682C102.127 165.97 102.413 166.188 102.786 166.337C103.159 166.487 103.606 166.561 104.128 166.561C104.643 166.561 105.094 166.487 105.481 166.337C105.868 166.192 106.168 165.975 106.381 165.688C106.598 165.403 106.706 165.054 106.706 164.638C106.706 164.209 106.594 163.85 106.371 163.562C106.147 163.275 105.84 163.058 105.449 162.912C105.062 162.767 104.622 162.694 104.128 162.694C103.627 162.694 103.189 162.767 102.812 162.912C102.44 163.062 102.148 163.28 101.939 163.568C101.733 163.859 101.63 164.216 101.63 164.638Z" fill="white"/>
<defs>
<filter id="filter0_dd_152_36569" x="0" y="0" width="140" height="199" filterUnits="userSpaceOnUse" color-interpolation-filters="sRGB">
<feFlood flood-opacity="0" result="BackgroundImageFix"/>
<feColorMatrix in="SourceAlpha" type="matrix" values="0 0 0 0 0 0 0 0 0 0 0 0 0 0 0 0 0 0 127 0" result="hardAlpha"/>
<feOffset/>
<feGaussianBlur stdDeviation="7.3"/>
<feComposite in2="hardAlpha" operator="out"/>
<feColorMatrix type="matrix" values="0 0 0 0 0 0 0 0 0 0 0 0 0 0 0 0 0 0 0.25 0"/>
<feBlend mode="normal" in2="BackgroundImageFix" result="effect1_dropShadow_152_36569"/>
<feColorMatrix in="SourceAlpha" type="matrix" values="0 0 0 0 0 0 0 0 0 0 0 0 0 0 0 0 0 0 127 0" result="hardAlpha"/>
<feOffset/>
<feGaussianBlur stdDeviation="10"/>
<feComposite in2="hardAlpha" operator="out"/>
<feColorMatrix type="matrix" values="0 0 0 0 0 0 0 0 0 0 0 0 0 0 0 0 0 0 0.25 0"/>
<feBlend mode="normal" in2="effect1_dropShadow_152_36569" result="effect2_dropShadow_152_36569"/>
<feBlend mode="normal" in="SourceGraphic" in2="effect2_dropShadow_152_36569" result="shape"/>
</filter>
</defs>
</svg>
