<svg width="140" height="199" viewBox="0 0 140 199" fill="none" xmlns="http://www.w3.org/2000/svg">
<g filter="url(#filter0_dd_152_36565)">
<mask id="path-1-inside-1_152_36565" fill="white">
<path d="M20 30C20 24.4772 24.4772 20 30 20H120V179H30C24.4772 179 20 174.523 20 169V30Z"/>
</mask>
<path d="M20 30C20 24.4772 24.4772 20 30 20H120V179H30C24.4772 179 20 174.523 20 169V30Z" fill="#FD1C63"/>
<path d="M20 20H120H20ZM120 179H20H120ZM30 179C23.9249 179 19 174.075 19 168V31C19 24.9249 23.9249 20 30 20C25.0294 20 21 24.4772 21 30V169C21 174.523 25.0294 179 30 179ZM120 20V179V20Z" fill="white" mask="url(#path-1-inside-1_152_36565)"/>
</g>
<path d="M82.2707 130.595L52.8598 130.328L49.2868 130.28C47.5221 130.268 45.9285 129.373 45.0142 127.882C44.5757 127.16 44.3222 126.342 44.2762 125.499C44.2301 124.656 44.393 123.815 44.7503 123.05C44.9816 122.544 45.3023 122.085 45.697 121.694L45.8526 121.539L46.0301 121.397C46.11 121.333 46.1996 121.261 46.2927 121.19C46.5467 120.988 46.8208 120.812 47.1107 120.665L47.1703 120.635L47.2307 120.607C49.1369 119.733 50.0992 119.168 51.5561 118.314C52.5884 117.709 53.8218 116.986 55.6928 115.97C54.9939 114.812 54.3804 113.603 53.857 112.355C53.5422 111.635 53.2685 110.896 53.0374 110.144C52.7292 109.23 52.4711 108.299 52.2641 107.356C52.1818 107.036 52.1222 106.739 52.0738 106.497V106.493C51.8975 105.61 51.7708 104.82 51.6876 104.082C51.668 103.982 51.6409 103.836 51.6185 103.657L51.5873 103.41V103.275C51.5229 102.595 51.4533 101.737 51.433 100.808C51.4146 100.481 51.4146 100.183 51.4146 99.9388C51.4146 95.7993 52.2398 91.7997 53.8673 88.0508L53.8709 88.0424C54.6681 86.2109 55.6428 84.4619 56.7811 82.8206C57.9333 81.1586 59.1863 79.6622 60.5048 78.378C63.2291 75.6897 66.4938 73.5008 70.2136 71.8656L70.2384 71.8548L70.2627 71.8441C73.4786 70.4786 76.906 69.6783 80.3941 69.4784C80.9538 69.4285 81.5347 69.4053 82.2132 69.4053H82.4331C86.7081 69.4053 90.8053 70.2269 94.6102 71.8473L94.6314 71.856L94.6525 71.8656C98.3959 73.5108 101.653 75.7129 104.333 78.4104C105.876 79.9536 107.132 81.5048 108.177 83.1508C109.2 84.7181 110.071 86.3804 110.775 88.1147C112.097 91.2795 112.858 94.6866 113.038 98.2412L113.04 98.278V98.3152C113.057 98.8258 113.073 99.3547 113.073 99.9372C113.073 100.786 113.039 101.63 112.972 102.45C112.963 102.607 112.947 102.745 112.93 102.863C112.677 105.917 111.951 108.914 110.78 111.747C110.42 112.639 110.013 113.514 109.54 114.422L109.538 114.428C109.124 115.218 108.671 115.987 108.18 116.732C107.545 117.74 106.842 118.704 106.076 119.617C105.5 120.325 104.916 120.943 104.368 121.506L104.353 121.521C101.625 124.305 98.3507 126.529 94.6226 128.132H94.6186C93.7666 128.498 93.0074 128.788 92.2997 129.02C91.8124 129.186 91.3502 129.313 90.936 129.424L90.7225 129.53L90.198 129.636C90.1424 129.647 90.0888 129.657 90.0381 129.666C89.7894 129.734 89.5583 129.786 89.3584 129.829C88.9154 129.924 88.3901 130.033 87.8476 130.127L87.7724 130.14L87.6968 130.15C87.6433 130.157 87.5597 130.171 87.4713 130.186C87.3378 130.208 87.1715 130.235 86.9896 130.26C86.481 130.328 85.9793 130.38 85.5299 130.424C85.2133 130.467 84.9242 130.488 84.6867 130.504H84.6731C83.7936 130.563 83.0428 130.591 82.3107 130.591L82.2707 130.595Z" fill="white"/>
<path d="M109.046 98.444C108.889 95.3476 108.246 92.4238 107.081 89.6412C106.469 88.1301 105.711 86.6823 104.818 85.3186C103.875 83.8253 102.743 82.4732 101.499 81.2314C99.1258 78.8422 96.2965 76.9559 93.0425 75.5255C89.7569 74.1262 86.2203 73.4033 82.4318 73.4033H82.2119C81.6922 73.4033 81.19 73.4189 80.6871 73.4661C77.6355 73.6306 74.6361 74.3275 71.8247 75.5255C68.5707 76.9559 65.7257 78.8438 63.3049 81.2314C62.0944 82.4104 61.0261 83.715 60.0666 85.0983C59.076 86.5266 58.2281 88.0487 57.535 89.6428C56.1357 92.8652 55.4129 96.3079 55.4129 99.9388C55.4129 100.175 55.4129 100.411 55.4289 100.646C55.4445 101.479 55.5088 102.281 55.586 103.083V103.163C55.6016 103.289 55.6332 103.399 55.6488 103.525C55.7287 104.263 55.8531 105.004 55.9946 105.71C56.0418 105.945 56.089 106.181 56.1517 106.417C56.3343 107.263 56.5652 108.097 56.8434 108.916C57.0367 109.553 57.2677 110.177 57.535 110.787C58.0888 112.113 58.7623 113.386 59.5472 114.591L60.0346 115.345C60.7574 116.493 60.3488 118.033 59.1386 118.663C53.1652 121.822 52.7354 122.483 48.8997 124.244C48.844 124.275 48.7913 124.312 48.7426 124.354C48.6799 124.401 48.6011 124.464 48.5223 124.527C48.4615 124.584 48.4134 124.654 48.3812 124.731C48.051 125.375 48.444 126.287 49.3239 126.287L52.9137 126.334L82.3086 126.602C83.0159 126.602 83.7079 126.57 84.3992 126.522C84.6191 126.506 84.839 126.49 85.0437 126.458C85.5154 126.411 85.9868 126.364 86.4586 126.301C86.6941 126.27 86.9299 126.221 87.1658 126.191C87.6216 126.111 88.0774 126.018 88.5175 125.924C88.7378 125.877 88.9421 125.83 89.1464 125.767C89.2408 125.751 89.3351 125.736 89.4135 125.72C89.4451 125.704 89.4767 125.688 89.5078 125.672C90.0276 125.531 90.5297 125.405 91.0327 125.233C91.7087 125.013 92.3844 124.746 93.0449 124.463C96.2984 123.063 99.1282 121.144 101.502 118.725C102.022 118.191 102.523 117.656 102.995 117.075C103.661 116.285 104.27 115.45 104.819 114.575C105.245 113.93 105.638 113.264 105.997 112.579C106.39 111.824 106.752 111.054 107.082 110.237C108.107 107.767 108.739 105.152 108.953 102.487C108.953 102.377 108.984 102.298 108.984 102.204C109.047 101.465 109.078 100.695 109.078 99.9404C109.078 99.4187 109.062 98.9314 109.046 98.444ZM98.4366 102.798C98.3599 103.303 98.2496 103.802 98.1063 104.291C97.9021 105.03 97.6346 105.722 97.3519 106.414L97.3359 106.43C97.1817 106.785 97.0082 107.131 96.8162 107.467C95.9998 109.023 94.9939 110.406 93.7521 111.632C92.9294 112.458 92.0176 113.191 91.0335 113.817C90.229 114.328 89.3823 114.769 88.5028 115.136C86.4594 116.001 84.3212 116.425 82.0736 116.425C81.2003 116.426 80.3281 116.364 79.4641 116.237C78.1769 116.024 76.9206 115.654 75.7231 115.136C73.7699 114.323 71.9966 113.132 70.5053 111.632C70.4898 111.616 70.4742 111.6 70.4582 111.585C70.3139 111.445 70.1823 111.292 70.0652 111.128C69.9852 111.049 69.908 110.956 69.8293 110.861C69.5125 110.524 69.2176 110.167 68.9461 109.793C68.231 108.859 67.6244 107.846 67.1382 106.775C67.0765 106.664 67.024 106.548 66.9811 106.429C66.75 105.882 66.5556 105.32 66.3994 104.747C66.3522 104.574 66.305 104.417 66.2583 104.244C66.1479 103.804 66.0536 103.364 65.9752 102.908C65.8484 102.159 65.7696 101.403 65.7393 100.645C65.7237 100.456 65.7237 100.251 65.7237 100.063C65.7237 97.7991 66.1479 95.6614 66.9811 93.6492C67.7355 91.8573 68.7574 90.2381 70.0308 88.8864C70.1723 88.6977 70.345 88.5406 70.5021 88.3666C72.0059 86.8758 73.7768 85.6812 75.7223 84.8452C77.5751 84.0644 79.5596 83.6438 81.5698 83.6058C81.7425 83.5902 81.8997 83.5902 82.0728 83.5902C83.6461 83.5882 85.2121 83.8051 86.7256 84.2347C87.3278 84.4076 87.9207 84.6114 88.5019 84.8452C90.5141 85.71 92.2601 86.889 93.7521 88.3666C95.261 89.8599 96.44 91.6202 97.3359 93.648C97.7605 94.6227 98.1063 95.6446 98.3106 96.6821C98.5621 97.7823 98.6705 98.8982 98.6705 100.062C98.6721 100.979 98.5938 101.895 98.4366 102.798Z" fill="#383637"/>
<path d="M80.9027 107.643C80.9397 107.536 81.0034 107.439 81.0878 107.363C81.2793 107.211 81.3081 107.209 81.9953 107.291C84.4121 107.581 86.5319 106.98 88.4917 105.448C88.7979 105.208 88.8151 105.202 89.0182 105.217C89.3552 105.242 89.498 105.399 89.6311 105.896C89.783 106.463 89.759 106.551 89.3185 107.049C88.4421 108.039 87.3498 108.672 85.813 109.081C84.3098 109.481 83.0572 109.476 81.827 109.068C81.1765 108.852 81.1505 108.828 80.9874 108.282C80.8667 107.88 80.8559 107.797 80.9027 107.643Z" fill="#ED183E"/>
<path d="M92.9501 95.0689C92.5739 94.6926 92.1273 94.3942 91.6358 94.1905C91.1443 93.9869 90.6174 93.882 90.0853 93.882C89.5533 93.882 89.0264 93.9869 88.5349 94.1905C88.0434 94.3942 87.5967 94.6926 87.2206 95.0689C86.6337 95.6538 86.2413 96.4052 86.0967 97.221H80.027C80.0122 97.2038 79.9966 97.1867 79.9802 97.1703L76.8785 94.069C76.6761 93.8666 76.4016 93.7529 76.1153 93.7529C75.8291 93.7529 75.5545 93.8666 75.3521 94.069L72.2509 97.1703C72.1506 97.2705 72.071 97.3895 72.0168 97.5205C71.9625 97.6515 71.9346 97.7919 71.9346 97.9337C71.9346 98.0755 71.9625 98.2159 72.0168 98.3468C72.071 98.4778 72.1506 98.5969 72.2509 98.6971L75.3525 101.798C75.5549 102.001 75.8295 102.114 76.1157 102.114C76.402 102.114 76.6765 102.001 76.8789 101.798L79.9806 98.6971C79.997 98.6803 80.0126 98.6635 80.0274 98.6463H86.0971C86.2417 99.4621 86.6341 100.214 87.221 100.798C87.9808 101.558 89.0113 101.985 90.0857 101.985C91.1602 101.985 92.1907 101.558 92.9505 100.798C93.7102 100.039 94.1369 99.0081 94.1369 97.9336C94.1368 96.8591 93.7099 95.8287 92.9501 95.0689Z" fill="#ED183E"/>
<path d="M106.285 130.582C106.038 130.582 105.792 130.562 105.549 130.522C103.998 130.269 102.713 129.262 102.111 127.827C101.964 127.474 101.86 127.104 101.8 126.727L101.745 126.73L101.601 122.746C101.53 122.746 101.458 122.746 101.385 122.746H101.341C98.622 122.739 97.3026 121.292 96.7597 120.43C96.2116 119.554 95.961 118.525 96.0453 117.495C96.0968 116.802 96.2911 116.096 96.623 115.397C97.8827 112.743 99.1865 110.066 100.447 107.478C100.728 106.903 101.008 106.328 101.287 105.753C101.292 105.743 101.298 105.73 101.304 105.717C101.509 105.26 101.776 104.834 102.098 104.45C102.517 103.959 103.037 103.564 103.623 103.293C104.209 103.022 104.847 102.881 105.492 102.88C105.718 102.881 105.943 102.897 106.167 102.93C107.754 103.165 109.067 104.177 109.678 105.635C110.025 106.464 110.048 107.202 110.059 107.554C110.059 107.57 110.059 107.586 110.059 107.602C110.079 108.065 110.101 108.542 110.123 109.004C110.151 109.566 110.178 110.136 110.201 110.712C110.319 110.712 110.436 110.712 110.554 110.712C111.307 110.715 112.009 110.838 112.64 111.077C113.636 111.455 114.454 112.114 115.005 112.984C115.547 113.845 115.797 114.859 115.718 115.873C115.67 116.551 115.484 117.241 115.165 117.923C113.951 120.518 112.691 123.132 111.472 125.659C111.129 126.371 110.786 127.082 110.443 127.793C110.237 128.241 109.97 128.659 109.65 129.034C109.233 129.518 108.716 129.907 108.135 130.174C107.555 130.441 106.924 130.58 106.285 130.582Z" fill="white"/>
<path d="M105.594 122.535L105.545 121.187C105.451 118.605 105.451 118.605 102.924 118.697C102.4 118.716 101.876 118.75 101.352 118.748C100.16 118.745 99.7346 118.165 100.235 117.111C101.76 113.897 103.326 110.702 104.883 107.502C105.026 107.208 105.158 106.823 105.581 106.885C106.081 106.959 106.051 107.407 106.067 107.771C106.147 109.68 106.272 111.59 106.261 113.498C106.254 114.614 106.677 114.941 107.731 114.818C108.658 114.709 109.601 114.708 110.537 114.713C111.616 114.718 112.002 115.255 111.545 116.232C110.006 119.522 108.417 122.789 106.842 126.063C106.713 126.331 106.562 126.637 106.193 126.577C105.757 126.506 105.739 126.127 105.723 125.791C105.674 124.706 105.641 123.62 105.601 122.535H105.594Z" fill="#ED183E"/>
<path d="M35.5455 161.176C36.7209 161.176 37.7276 161.396 38.5657 161.837C39.4002 162.273 40.0394 162.87 40.4833 163.626C40.9272 164.379 41.1491 165.233 41.1491 166.189C41.1491 167.144 40.9272 168 40.4833 168.756C40.0359 169.509 39.3949 170.105 38.5604 170.546C37.7223 170.983 36.7173 171.201 35.5455 171.201C34.37 171.201 33.3651 170.983 32.5305 170.546C31.6925 170.105 31.0515 169.509 30.6076 168.756C30.1637 168 29.9418 167.144 29.9418 166.189C29.9418 165.233 30.1637 164.379 30.6076 163.626C31.0515 162.87 31.6925 162.273 32.5305 161.837C33.3651 161.396 34.37 161.176 35.5455 161.176ZM35.5455 163.163C34.718 163.163 34.0202 163.293 33.4521 163.552C32.8803 163.808 32.4489 164.163 32.1577 164.617C31.8629 165.072 31.7156 165.596 31.7156 166.189C31.7156 166.782 31.8629 167.305 32.1577 167.76C32.4489 168.214 32.8803 168.571 33.4521 168.831C34.0202 169.086 34.718 169.214 35.5455 169.214C36.3729 169.214 37.0724 169.086 37.6442 168.831C38.2124 168.571 38.6438 168.214 38.9386 167.76C39.2298 167.305 39.3754 166.782 39.3754 166.189C39.3754 165.596 39.2298 165.072 38.9386 164.617C38.6438 164.163 38.2124 163.808 37.6442 163.552C37.0724 163.293 36.3729 163.163 35.5455 163.163ZM33.7717 149.97V151.962C33.445 152.019 33.1555 152.124 32.9034 152.277C32.6477 152.429 32.4311 152.619 32.2536 152.847C32.076 153.074 31.9428 153.333 31.854 153.624C31.7617 153.912 31.7156 154.223 31.7156 154.556C31.7156 155.149 31.8647 155.675 32.163 156.133C32.4577 156.591 32.891 156.95 33.4627 157.209C34.0309 157.468 34.7251 157.598 35.5455 157.598C36.38 157.598 37.0831 157.468 37.6548 157.209C38.223 156.946 38.6527 156.588 38.9439 156.133C39.2315 155.675 39.3754 155.151 39.3754 154.562C39.3754 154.235 39.3327 153.93 39.2475 153.646C39.1587 153.358 39.0291 153.1 38.8587 152.873C38.6882 152.642 38.4787 152.449 38.2301 152.293C37.9815 152.133 37.6974 152.023 37.3778 151.962L37.3885 149.97C37.907 150.045 38.3935 150.206 38.848 150.455C39.3026 150.7 39.7038 151.021 40.0518 151.419C40.3963 151.817 40.6662 152.282 40.8615 152.815C41.0533 153.347 41.1491 153.938 41.1491 154.588C41.1491 155.547 40.9272 156.403 40.4833 157.156C40.0394 157.909 39.3984 158.502 38.5604 158.935C37.7223 159.368 36.7173 159.585 35.5455 159.585C34.37 159.585 33.3651 159.366 32.5305 158.93C31.6925 158.493 31.0515 157.898 30.6076 157.145C30.1637 156.392 29.9418 155.54 29.9418 154.588C29.9418 153.981 30.027 153.416 30.1974 152.894C30.3679 152.372 30.6183 151.907 30.9485 151.499C31.2752 151.09 31.6765 150.755 32.1523 150.492C32.6246 150.226 33.1644 150.052 33.7717 149.97ZM41 146.891V149.001L30.0909 145.16V142.72L41 138.875V140.984L32.3281 143.898V143.983L41 146.891ZM36.7227 146.822V141.069H38.31V146.822H36.7227ZM41 132.316V134.425L30.0909 130.585V128.145L41 124.299V126.409L32.3281 129.322V129.408L41 132.316ZM36.7227 132.247V126.494H38.31V132.247H36.7227ZM30.0909 120.886H41V122.862H30.0909V120.886ZM33.7717 105.688V107.68C33.445 107.737 33.1555 107.842 32.9034 107.994C32.6477 108.147 32.4311 108.337 32.2536 108.564C32.076 108.792 31.9428 109.051 31.854 109.342C31.7617 109.63 31.7156 109.94 31.7156 110.274C31.7156 110.867 31.8647 111.393 32.163 111.851C32.4577 112.309 32.891 112.668 33.4627 112.927C34.0309 113.186 34.7251 113.316 35.5455 113.316C36.38 113.316 37.0831 113.186 37.6548 112.927C38.223 112.664 38.6527 112.305 38.9439 111.851C39.2315 111.393 39.3754 110.869 39.3754 110.279C39.3754 109.953 39.3327 109.647 39.2475 109.363C39.1587 109.076 39.0291 108.818 38.8587 108.591C38.6882 108.36 38.4787 108.167 38.2301 108.01C37.9815 107.85 37.6974 107.74 37.3778 107.68L37.3885 105.688C37.907 105.762 38.3935 105.924 38.848 106.173C39.3026 106.418 39.7038 106.739 40.0518 107.137C40.3963 107.534 40.6662 108 40.8615 108.532C41.0533 109.065 41.1491 109.656 41.1491 110.306C41.1491 111.265 40.9272 112.121 40.4833 112.874C40.0394 113.626 39.3984 114.219 38.5604 114.653C37.7223 115.086 36.7173 115.303 35.5455 115.303C34.37 115.303 33.3651 115.084 32.5305 114.647C31.6925 114.211 31.0515 113.616 30.6076 112.863C30.1637 112.11 29.9418 111.258 29.9418 110.306C29.9418 109.699 30.027 109.134 30.1974 108.612C30.3679 108.09 30.6183 107.625 30.9485 107.217C31.2752 106.808 31.6765 106.473 32.1523 106.21C32.6246 105.944 33.1644 105.77 33.7717 105.688ZM41.1598 100.394C41.1598 101.193 40.984 101.886 40.6325 102.472C40.2809 103.058 39.7891 103.512 39.157 103.835C38.5249 104.155 37.7862 104.315 36.9411 104.315C36.0959 104.315 35.3555 104.155 34.7198 103.835C34.0842 103.512 33.5906 103.058 33.239 102.472C32.8874 101.886 32.7116 101.193 32.7116 100.394C32.7116 99.5954 32.8874 98.903 33.239 98.317C33.5906 97.7311 34.0842 97.2783 34.7198 96.9587C35.3555 96.6356 36.0959 96.474 36.9411 96.474C37.7862 96.474 38.5249 96.6356 39.157 96.9587C39.7891 97.2783 40.2809 97.7311 40.6325 98.317C40.984 98.903 41.1598 99.5954 41.1598 100.394ZM39.6151 100.384C39.6151 99.9506 39.4961 99.5883 39.2582 99.2971C39.0167 99.0059 38.6935 98.7893 38.2887 98.6473C37.8839 98.5017 37.4329 98.4289 36.9357 98.4289C36.435 98.4289 35.9822 98.5017 35.5774 98.6473C35.169 98.7893 34.8441 99.0059 34.6026 99.2971C34.3612 99.5883 34.2404 99.9506 34.2404 100.384C34.2404 100.828 34.3612 101.197 34.6026 101.492C34.8441 101.783 35.169 102.001 35.5774 102.147C35.9822 102.289 36.435 102.36 36.9357 102.36C37.4329 102.36 37.8839 102.289 38.2887 102.147C38.6935 102.001 39.0167 101.783 39.2582 101.492C39.4961 101.197 39.6151 100.828 39.6151 100.384ZM44.0682 94.8374H32.8182V92.9411H34.1712V92.8292C33.9723 92.7298 33.761 92.5895 33.5373 92.4084C33.31 92.2273 33.1165 91.9822 32.9567 91.6733C32.7933 91.3643 32.7116 90.9702 32.7116 90.4908C32.7116 89.8587 32.8732 89.2887 33.1964 88.7809C33.516 88.2695 33.9901 87.8647 34.6186 87.5664C35.2436 87.2646 36.0107 87.1136 36.9197 87.1136C37.8182 87.1136 38.5817 87.261 39.2102 87.5558C39.8388 87.8505 40.3182 88.2518 40.6484 88.7596C40.9787 89.2674 41.1438 89.8427 41.1438 90.4854C41.1438 90.9542 41.0657 91.343 40.9094 91.652C40.7532 91.9609 40.565 92.2095 40.3448 92.3977C40.1211 92.5824 39.9098 92.7262 39.7109 92.8292V92.9091H44.0682V94.8374ZM36.9091 92.9464C37.4382 92.9464 37.9016 92.8718 38.2994 92.7227C38.6971 92.57 39.0078 92.3516 39.2315 92.0675C39.4517 91.7798 39.5618 91.4318 39.5618 91.0234C39.5618 90.5973 39.4482 90.2404 39.2209 89.9528C38.9901 89.6651 38.6758 89.4485 38.2781 89.3029C37.8768 89.1538 37.4205 89.0792 36.9091 89.0792C36.4013 89.0792 35.9503 89.152 35.5561 89.2976C35.1619 89.4432 34.853 89.6598 34.6293 89.9474C34.4055 90.2351 34.2937 90.5938 34.2937 91.0234C34.2937 91.4354 34.402 91.7852 34.6186 92.0728C34.8352 92.3604 35.1388 92.5788 35.5295 92.728C35.9201 92.8736 36.38 92.9464 36.9091 92.9464ZM44.0682 84.5422C44.0682 84.805 44.0469 85.0482 44.0043 85.2719C43.9652 85.4921 43.919 85.6679 43.8658 85.7993L42.3636 85.3518C42.4453 85.0713 42.4844 84.8209 42.4808 84.6008C42.4773 84.3806 42.408 84.1871 42.2731 84.0202C42.1417 83.8497 41.9215 83.7059 41.6126 83.5887L41.1705 83.4236L32.8182 86.3905V84.3451L38.9972 82.4594V82.3742L32.8182 80.4832V78.4324L41.9908 81.7084C42.424 81.8611 42.7951 82.0635 43.104 82.3156C43.4165 82.5677 43.6545 82.8767 43.8178 83.2425C43.9847 83.6047 44.0682 84.0379 44.0682 84.5422ZM41 75.4095L32.8182 77.7213V75.7558L38.571 74.3176V74.243L32.8182 72.7728V70.8286L38.5391 69.3584V69.2785L32.8182 67.8616V65.8907L41 68.2078V70.216L35.4709 71.7501V71.8619L41 73.396V75.4095ZM41 64.5444H32.8182V62.6747H34.1818V62.5895C33.7095 62.4403 33.3455 62.1847 33.0898 61.8224C32.8306 61.4567 32.701 61.0394 32.701 60.5707C32.701 60.4641 32.7063 60.3452 32.717 60.2138C32.7241 60.0788 32.7365 59.967 32.7543 59.8782H34.5281C34.4996 59.9599 34.4748 60.0895 34.4535 60.267C34.4286 60.4411 34.4162 60.6097 34.4162 60.7731C34.4162 61.1246 34.4925 61.4407 34.6452 61.7212C34.7944 61.9982 35.0021 62.2166 35.2685 62.3764C35.5348 62.5362 35.842 62.6161 36.19 62.6161H41V64.5444ZM41 58.5971H32.8182V56.6689H41V58.5971ZM31.657 57.6277C31.657 57.9331 31.5558 58.1958 31.3533 58.416C31.1474 58.6362 30.9006 58.7463 30.6129 58.7463C30.3217 58.7463 30.0749 58.6362 29.8725 58.416C29.6665 58.1958 29.5636 57.9331 29.5636 57.6277C29.5636 57.3187 29.6665 57.0559 29.8725 56.8393C30.0749 56.6191 30.3217 56.5091 30.6129 56.5091C30.9006 56.5091 31.1474 56.6191 31.3533 56.8393C31.5558 57.0559 31.657 57.3187 31.657 57.6277ZM32.8182 50.6004H34.3097V55.3039H32.8182V50.6004ZM30.858 54.1427V52.2144H38.5391C38.7983 52.2144 38.9972 52.1753 39.1357 52.0972C39.2706 52.0155 39.3629 51.909 39.4126 51.7776C39.4624 51.6462 39.4872 51.5006 39.4872 51.3408C39.4872 51.2201 39.4783 51.11 39.4606 51.0106C39.4428 50.9076 39.4268 50.8295 39.4126 50.7762L40.9201 50.4513C40.9556 50.5542 40.9947 50.7016 41.0373 50.8934C41.0799 51.0816 41.1048 51.3124 41.1119 51.5858C41.1261 52.0688 41.0533 52.5038 40.8935 52.8909C40.7301 53.278 40.478 53.5851 40.1371 53.8124C39.7962 54.0361 39.37 54.1462 38.8587 54.1427H30.858ZM41 48.9877H32.8182V47.0595H41V48.9877ZM31.657 48.0183C31.657 48.3237 31.5558 48.5865 31.3533 48.8066C31.1474 49.0268 30.9006 49.1369 30.6129 49.1369C30.3217 49.1369 30.0749 49.0268 29.8725 48.8066C29.6665 48.5865 29.5636 48.3237 29.5636 48.0183C29.5636 47.7093 29.6665 47.4466 29.8725 47.2299C30.0749 47.0098 30.3217 46.8997 30.6129 46.8997C30.9006 46.8997 31.1474 47.0098 31.3533 47.2299C31.5558 47.4466 31.657 47.7093 31.657 48.0183ZM36.206 43.1483H41V45.0766H32.8182V43.2336H34.2085V43.1377C33.7504 42.9495 33.3864 42.6494 33.1165 42.2375C32.8466 41.822 32.7116 41.3089 32.7116 40.6981C32.7116 40.1334 32.8324 39.6416 33.0739 39.2226C33.3153 38.8 33.6651 38.4733 34.1232 38.2425C34.5813 38.0081 35.1371 37.8927 35.7905 37.8962H41V39.8245H36.0888C35.5419 39.8245 35.114 39.9665 34.805 40.2506C34.4961 40.5312 34.3416 40.92 34.3416 41.4172C34.3416 41.7545 34.4162 42.0546 34.5653 42.3174C34.7109 42.5766 34.9222 42.7808 35.1992 42.93C35.4762 43.0756 35.8118 43.1483 36.206 43.1483ZM44.2386 32.3778C44.2386 33.0702 44.1445 33.665 43.9563 34.1622C43.7717 34.6594 43.5231 35.0589 43.2106 35.3607C42.8981 35.6626 42.5518 35.8721 42.1719 35.9893L41.7511 34.2528C41.9109 34.1746 42.0689 34.061 42.2251 33.9118C42.3849 33.7627 42.5163 33.5621 42.6193 33.3099C42.7259 33.0542 42.7791 32.7329 42.7791 32.3458C42.7791 31.7989 42.646 31.3461 42.3796 30.9875C42.1168 30.6288 41.6836 30.4495 41.0799 30.4495H39.5298V30.5454C39.7287 30.6448 39.9329 30.7904 40.1424 30.9822C40.3519 31.1704 40.5277 31.4207 40.6697 31.7332C40.8118 32.0422 40.8828 32.431 40.8828 32.8998C40.8828 33.5283 40.7354 34.0983 40.4407 34.6096C40.1424 35.1175 39.6985 35.5223 39.109 35.8241C38.516 36.1224 37.7738 36.2716 36.8825 36.2716C35.984 36.2716 35.2259 36.1224 34.608 35.8241C33.9865 35.5223 33.516 35.1157 33.1964 34.6043C32.8732 34.093 32.7116 33.523 32.7116 32.8944C32.7116 32.415 32.7933 32.0209 32.9567 31.7119C33.1165 31.3994 33.31 31.1508 33.5373 30.9662C33.761 30.7815 33.9723 30.6412 34.1712 30.5454V30.4388H32.8182V28.5372H41.1332C41.8327 28.5372 42.4116 28.7041 42.8697 29.0379C43.3278 29.3717 43.6705 29.828 43.8977 30.4069C44.125 30.9857 44.2386 31.6427 44.2386 32.3778ZM39.37 32.3618C39.37 31.9534 39.2706 31.6054 39.0717 31.3177C38.8729 31.0301 38.587 30.8117 38.2141 30.6626C37.8413 30.5134 37.3938 30.4388 36.8718 30.4388C36.3569 30.4388 35.9059 30.5134 35.5188 30.6626C35.1317 30.8081 34.8317 31.0248 34.6186 31.3124C34.402 31.5965 34.2937 31.9463 34.2937 32.3618C34.2937 32.7915 34.4055 33.1501 34.6293 33.4378C34.853 33.7254 35.1602 33.942 35.5508 34.0876C35.9379 34.2332 36.3782 34.306 36.8718 34.306C37.3725 34.306 37.8111 34.2332 38.1875 34.0876C38.5604 33.9385 38.8516 33.7201 39.0611 33.4324C39.267 33.1412 39.37 32.7844 39.37 32.3618Z" fill="white"/>
<defs>
<filter id="filter0_dd_152_36565" x="0" y="0" width="140" height="199" filterUnits="userSpaceOnUse" color-interpolation-filters="sRGB">
<feFlood flood-opacity="0" result="BackgroundImageFix"/>
<feColorMatrix in="SourceAlpha" type="matrix" values="0 0 0 0 0 0 0 0 0 0 0 0 0 0 0 0 0 0 127 0" result="hardAlpha"/>
<feOffset/>
<feGaussianBlur stdDeviation="7.3"/>
<feComposite in2="hardAlpha" operator="out"/>
<feColorMatrix type="matrix" values="0 0 0 0 0 0 0 0 0 0 0 0 0 0 0 0 0 0 0.25 0"/>
<feBlend mode="normal" in2="BackgroundImageFix" result="effect1_dropShadow_152_36565"/>
<feColorMatrix in="SourceAlpha" type="matrix" values="0 0 0 0 0 0 0 0 0 0 0 0 0 0 0 0 0 0 127 0" result="hardAlpha"/>
<feOffset/>
<feGaussianBlur stdDeviation="10"/>
<feComposite in2="hardAlpha" operator="out"/>
<feColorMatrix type="matrix" values="0 0 0 0 0 0 0 0 0 0 0 0 0 0 0 0 0 0 0.25 0"/>
<feBlend mode="normal" in2="effect1_dropShadow_152_36565" result="effect2_dropShadow_152_36565"/>
<feBlend mode="normal" in="SourceGraphic" in2="effect2_dropShadow_152_36565" result="shape"/>
</filter>
</defs>
</svg>
