<svg width="90" height="149" viewBox="0 0 90 149" fill="none" xmlns="http://www.w3.org/2000/svg">
<g filter="url(#filter0_dd_152_36563)">
<mask id="path-1-inside-1_152_36563" fill="white">
<path d="M20 30C20 24.4772 24.4772 20 30 20H70V129H30C24.4772 129 20 124.523 20 119V30Z"/>
</mask>
<path d="M20 30C20 24.4772 24.4772 20 30 20H70V129H30C24.4772 129 20 124.523 20 119V30Z" fill="#5C0DA6" shape-rendering="crispEdges"/>
<path d="M20 20H70H20ZM70 129H20H70ZM30 129C23.3726 129 18 123.627 18 117V32C18 25.3726 23.3726 20 30 20C25.5817 20 22 24.4772 22 30V119C22 124.523 25.5817 129 30 129ZM70 20V129V20Z" fill="white" mask="url(#path-1-inside-1_152_36563)"/>
<path d="M49.5 104.943H40.7727V99.7102H41.7102V103.886H44.6591V100.102H45.5966V103.886H49.5V104.943ZM49.5 97.9002H40.7727V92.6332H41.7102V96.8434H44.6591V92.9059H45.5966V96.8434H48.5625V92.565H49.5V97.9002ZM49.5 90.7283H40.7727V85.4613H41.7102V89.6715H44.6591V85.734H45.5966V89.6715H48.5625V85.3931H49.5V90.7283ZM49.5 80.8633V83.5565H40.7727V80.744C40.7727 79.8974 40.9474 79.1729 41.2969 78.5707C41.6435 77.9684 42.142 77.5067 42.7926 77.1857C43.4403 76.8647 44.2159 76.7042 45.1193 76.7042C46.0284 76.7042 46.8111 76.8661 47.4673 77.19C48.1207 77.5138 48.6236 77.9854 48.9759 78.6048C49.3253 79.2241 49.5 79.9769 49.5 80.8633ZM48.5625 82.4996V80.9315C48.5625 80.2099 48.4233 79.6119 48.1449 79.1374C47.8665 78.663 47.4702 78.3093 46.956 78.0763C46.4418 77.8434 45.8295 77.7269 45.1193 77.7269C44.4148 77.7269 43.8082 77.842 43.2997 78.0721C42.7884 78.3022 42.3963 78.646 42.1236 79.1033C41.848 79.5607 41.7102 80.1303 41.7102 80.8121V82.4996H48.5625ZM49.5 74.9315H40.7727V71.8803C40.7727 71.2724 40.8778 70.771 41.0881 70.3761C41.2955 69.9812 41.5753 69.6871 41.9276 69.494C42.277 69.3008 42.6648 69.2042 43.0909 69.2042C43.4659 69.2042 43.7756 69.271 44.0199 69.4045C44.2642 69.5352 44.4574 69.7085 44.5994 69.9244C44.7415 70.1374 44.8466 70.369 44.9148 70.619H45C45.017 70.3519 45.1108 70.0835 45.2812 69.8136C45.4517 69.5437 45.696 69.3178 46.0142 69.136C46.3324 68.9542 46.7216 68.8633 47.1818 68.8633C47.6193 68.8633 48.0128 68.9627 48.3622 69.1616C48.7116 69.3604 48.9886 69.6744 49.1932 70.1033C49.3977 70.5323 49.5 71.0906 49.5 71.7781V74.9315ZM48.5625 73.8746V71.7781C48.5625 71.0877 48.429 70.5977 48.1619 70.3079C47.892 70.0153 47.5653 69.869 47.1818 69.869C46.8864 69.869 46.6136 69.9442 46.3636 70.0948C46.1108 70.2454 45.9091 70.4599 45.7585 70.7383C45.6051 71.0167 45.5284 71.3462 45.5284 71.7269V73.8746H48.5625ZM44.608 73.8746V71.9144C44.608 71.5962 44.5455 71.3093 44.4205 71.0536C44.2955 70.7951 44.1193 70.5906 43.892 70.44C43.6648 70.2866 43.3977 70.2099 43.0909 70.2099C42.7074 70.2099 42.3821 70.3434 42.1151 70.6104C41.8452 70.8775 41.7102 71.3008 41.7102 71.8803V73.8746H44.608ZM49.5 66.7688V67.8768L40.7727 64.6722V63.5813L49.5 60.3768V61.4847L42.1534 64.0927V64.1609L49.5 66.7688ZM46.0909 66.3597V61.8938H47.0284V66.3597H46.0909ZM43.5 52.4048V53.4616C43.196 53.5241 42.929 53.6335 42.6989 53.7898C42.4688 53.9432 42.2756 54.1307 42.1193 54.3523C41.9602 54.571 41.8409 54.8139 41.7614 55.081C41.6818 55.348 41.642 55.6264 41.642 55.9162C41.642 56.4446 41.7756 56.9233 42.0426 57.3523C42.3097 57.7784 42.7031 58.1179 43.223 58.3707C43.7429 58.6207 44.3807 58.7457 45.1364 58.7457C45.892 58.7457 46.5298 58.6207 47.0497 58.3707C47.5696 58.1179 47.9631 57.7784 48.2301 57.3523C48.4972 56.9233 48.6307 56.4446 48.6307 55.9162C48.6307 55.6264 48.5909 55.348 48.5114 55.081C48.4318 54.8139 48.3139 54.571 48.1577 54.3523C47.9986 54.1307 47.804 53.9432 47.5739 53.7898C47.3409 53.6335 47.0739 53.5241 46.7727 53.4616V52.4048C47.2187 52.4844 47.6179 52.6293 47.9702 52.8395C48.3224 53.0497 48.6222 53.3111 48.8693 53.6236C49.1136 53.9361 49.2997 54.2869 49.4276 54.6761C49.5554 55.0625 49.6193 55.4759 49.6193 55.9162C49.6193 56.6605 49.4375 57.3224 49.0739 57.902C48.7102 58.4815 48.1932 58.9375 47.5227 59.2699C46.8523 59.6023 46.0568 59.7685 45.1364 59.7685C44.2159 59.7685 43.4205 59.6023 42.75 59.2699C42.0795 58.9375 41.5625 58.4815 41.1989 57.902C40.8352 57.3224 40.6534 56.6605 40.6534 55.9162C40.6534 55.4759 40.7173 55.0625 40.8452 54.6761C40.973 54.2869 41.1605 53.9361 41.4077 53.6236C41.652 53.3111 41.9503 53.0497 42.3026 52.8395C42.652 52.6293 43.0511 52.4844 43.5 52.4048ZM49.5 50.6971H40.7727V49.6403H45.1023V49.538L40.7727 45.6175V44.2369L44.7102 47.9016L49.5 44.2369V45.5153L45.4432 48.5494L46.6705 49.6403H49.5V50.6971Z" fill="white"/>
</g>
<defs>
<filter id="filter0_dd_152_36563" x="0" y="0" width="90" height="149" filterUnits="userSpaceOnUse" color-interpolation-filters="sRGB">
<feFlood flood-opacity="0" result="BackgroundImageFix"/>
<feColorMatrix in="SourceAlpha" type="matrix" values="0 0 0 0 0 0 0 0 0 0 0 0 0 0 0 0 0 0 127 0" result="hardAlpha"/>
<feOffset/>
<feGaussianBlur stdDeviation="10"/>
<feComposite in2="hardAlpha" operator="out"/>
<feColorMatrix type="matrix" values="0 0 0 0 0 0 0 0 0 0 0 0 0 0 0 0 0 0 0.25 0"/>
<feBlend mode="normal" in2="BackgroundImageFix" result="effect1_dropShadow_152_36563"/>
<feColorMatrix in="SourceAlpha" type="matrix" values="0 0 0 0 0 0 0 0 0 0 0 0 0 0 0 0 0 0 127 0" result="hardAlpha"/>
<feOffset/>
<feGaussianBlur stdDeviation="10"/>
<feComposite in2="hardAlpha" operator="out"/>
<feColorMatrix type="matrix" values="0 0 0 0 0 0 0 0 0 0 0 0 0 0 0 0 0 0 0.25 0"/>
<feBlend mode="normal" in2="effect1_dropShadow_152_36563" result="effect2_dropShadow_152_36563"/>
<feBlend mode="normal" in="SourceGraphic" in2="effect2_dropShadow_152_36563" result="shape"/>
</filter>
</defs>
</svg>
